<svg width="156" height="71" viewBox="0 0 156 71" fill="none" xmlns="http://www.w3.org/2000/svg">
<path d="M48.2031 54.375H40.5156V69H27.4375V54.375H0.53125V42.7031L25.5156 1.45312H40.5156V43.9219H48.2031V54.375ZM27.4375 43.9219V14.5781L10.4219 43.9219H27.4375ZM68.0781 35.6719C68.0781 43.4844 68.7188 49.4688 70 53.625C71.2812 57.75 73.9062 59.8125 77.875 59.8125C81.8438 59.8125 84.4375 57.75 85.6562 53.625C86.9062 49.4688 87.5312 43.4844 87.5312 35.6719C87.5312 27.4844 86.9062 21.4219 85.6562 17.4844C84.4375 13.5469 81.8438 11.5781 77.875 11.5781C73.9062 11.5781 71.2812 13.5469 70 17.4844C68.7188 21.4219 68.0781 27.4844 68.0781 35.6719ZM77.875 0.5625C86.5312 0.5625 92.5938 3.60938 96.0625 9.70312C99.5625 15.7969 101.312 24.4531 101.312 35.6719C101.312 46.8906 99.5625 55.5312 96.0625 61.5938C92.5938 67.6562 86.5312 70.6875 77.875 70.6875C69.2188 70.6875 63.1406 67.6562 59.6406 61.5938C56.1719 55.5312 54.4375 46.8906 54.4375 35.6719C54.4375 24.4531 56.1719 15.7969 59.6406 9.70312C63.1406 3.60938 69.2188 0.5625 77.875 0.5625ZM155.078 54.375H147.391V69H134.312V54.375H107.406V42.7031L132.391 1.45312H147.391V43.9219H155.078V54.375ZM134.312 43.9219V14.5781L117.297 43.9219H134.312Z" fill="#FF9F0D"/>
</svg>
