<svg width="94" height="40" viewBox="0 0 94 40" fill="none" xmlns="http://www.w3.org/2000/svg">
<path d="M17.44 29.048C16.5013 29.048 15.84 28.6747 15.456 27.928C15.072 27.2027 14.88 26.3493 14.88 25.368C14.88 24.4933 14.9973 23.6293 15.232 22.776C15.488 21.9227 15.7867 21.272 16.128 20.824C15.552 21.5067 14.8373 22.2853 13.984 23.16C13.1307 24.0347 12.192 24.8773 11.168 25.688C10.144 26.4987 9.088 27.1707 8 27.704C6.912 28.2373 5.83467 28.504 4.768 28.504C4.448 28.504 4.128 28.472 3.808 28.408C3.50933 28.3653 3.21067 28.28 2.912 28.152C2.12267 27.832 1.536 27.2667 1.152 26.456C0.768 25.624 0.576 24.632 0.576 23.48C0.576 22.264 0.778667 20.9627 1.184 19.576C1.61067 18.168 2.22933 16.7387 3.04 15.288C3.424 14.584 3.85067 13.8907 4.32 13.208C4.81067 12.504 5.33333 11.8427 5.888 11.224C5.22667 10.9253 4.61867 10.5947 4.064 10.232C3.50933 9.848 3.04 9.432 2.656 8.984C2.4 8.68533 2.208 8.33333 2.08 7.928C1.952 7.52267 1.888 7.128 1.888 6.744C1.888 6.06133 2.048 5.61333 2.368 5.4C2.47467 5.22933 2.60267 5.144 2.752 5.144C2.944 5.144 3.04 5.26133 3.04 5.496C3.04 5.64533 2.99733 5.80533 2.912 5.976C2.80533 6.25333 2.752 6.50933 2.752 6.744C2.752 7.08533 2.83733 7.40533 3.008 7.704C3.17867 7.98133 3.38133 8.248 3.616 8.504C4.29867 9.31467 5.23733 9.98667 6.432 10.52C7.79733 9.02667 9.29067 7.65067 10.912 6.392C12.5547 5.112 14.3147 4.088 16.192 3.32C18.0693 2.552 20.0427 2.168 22.112 2.168C23.84 2.168 25.1947 2.552 26.176 3.32C27.1573 4.06667 27.648 5.03733 27.648 6.232C27.648 6.808 27.4773 7.43733 27.136 8.12C26.7947 8.78133 26.24 9.432 25.472 10.072C24.704 10.6907 23.68 11.2347 22.4 11.704C21.1413 12.152 19.5733 12.4613 17.696 12.632C17.0347 12.696 16.4373 12.7493 15.904 12.792C15.392 12.8133 14.8373 12.824 14.24 12.824C13.1307 12.824 12.0533 12.7493 11.008 12.6C9.984 12.4507 8.96 12.216 7.936 11.896C7.552 12.4293 7.06133 13.1547 6.464 14.072C5.888 14.9893 5.312 15.9707 4.736 17.016C4.16 18.0613 3.68 19.0533 3.296 19.992C2.95467 20.888 2.69867 21.7093 2.528 22.456C2.35733 23.1813 2.272 23.832 2.272 24.408C2.272 25.4533 2.51733 26.2427 3.008 26.776C3.49867 27.288 4.16 27.544 4.992 27.544C5.80267 27.544 6.72 27.3093 7.744 26.84C8.78933 26.3707 9.87733 25.6667 11.008 24.728C12.1387 23.7893 13.2373 22.7333 14.304 21.56C15.392 20.3867 16.384 19.192 17.28 17.976C18.176 16.76 18.9013 15.64 19.456 14.616C19.8187 13.9333 20.1707 13.4533 20.512 13.176C20.8533 12.8773 21.1413 12.728 21.376 12.728C21.6107 12.728 21.792 12.824 21.92 13.016C22.048 13.1867 22.112 13.4213 22.112 13.72C22.112 14.3173 21.8453 14.9147 21.312 15.512C20.7147 16.1733 20.128 16.984 19.552 17.944C18.976 18.904 18.464 19.9173 18.016 20.984C17.568 22.0507 17.248 23.096 17.056 24.12C16.992 24.4613 16.9493 24.7813 16.928 25.08C16.9067 25.3787 16.896 25.6453 16.896 25.88C16.896 26.6693 17.0133 27.2347 17.248 27.576C17.504 27.9173 17.8347 28.088 18.24 28.088C18.7307 28.088 19.296 27.864 19.936 27.416C20.576 26.968 21.1947 26.3707 21.792 25.624C22.304 24.9413 22.7947 24.216 23.264 23.448C23.7547 22.68 24.2027 21.88 24.608 21.048C24.672 20.8987 24.7573 20.792 24.864 20.728C24.992 20.6427 25.0773 20.6 25.12 20.6C25.2267 20.6 25.28 20.664 25.28 20.792C25.28 20.8773 25.248 21.0053 25.184 21.176C24.992 21.6027 24.736 22.1147 24.416 22.712C24.096 23.3093 23.744 23.928 23.36 24.568C22.976 25.1867 22.5813 25.7627 22.176 26.296C21.6213 27.0213 20.9173 27.6613 20.064 28.216C19.232 28.7707 18.3573 29.048 17.44 29.048ZM13.952 12.056C15.0613 12.056 16.2987 11.992 17.664 11.864C19.4347 11.7147 20.9707 11.3627 22.272 10.808C23.5733 10.2533 24.576 9.54933 25.28 8.696C25.984 7.84267 26.336 6.89333 26.336 5.848C26.336 4.90933 25.9413 4.19467 25.152 3.704C24.384 3.21333 23.4027 2.968 22.208 2.968C20.224 2.968 18.4107 3.36267 16.768 4.152C15.1467 4.92 13.6533 5.93333 12.288 7.192C10.944 8.45067 9.664 9.80533 8.448 11.256C10.0693 11.7893 11.904 12.056 13.952 12.056ZM27.0023 27.032C26.0849 27.032 25.4023 26.7973 24.9543 26.328C24.5063 25.8587 24.2823 25.272 24.2823 24.568C24.2823 24.2267 24.3249 23.896 24.4103 23.576C24.5383 23.0853 24.7196 22.5413 24.9543 21.944C25.2103 21.3253 25.4983 20.696 25.8183 20.056C25.0716 21.5067 24.3889 22.7333 23.7703 23.736C23.1729 24.7173 22.7142 25.3573 22.3942 25.656C22.3302 25.72 22.2662 25.752 22.2022 25.752C22.0956 25.752 22.0422 25.6987 22.0422 25.592C22.0422 25.5067 22.0742 25.4213 22.1382 25.336C22.5862 24.7387 23.0983 23.9173 23.6743 22.872C24.2716 21.8267 24.9009 20.664 25.5623 19.384C26.2236 18.0827 26.8956 16.7707 27.5783 15.448C28.2609 14.1253 28.9223 12.8773 29.5623 11.704C30.2236 10.5307 30.8209 9.53867 31.3542 8.728C31.7383 8.152 32.1009 7.74667 32.4423 7.512C32.7836 7.256 33.1356 7.128 33.4983 7.128H33.6583C33.8503 7.128 34.0636 7.16 34.2983 7.224C34.5543 7.288 34.7889 7.29867 35.0023 7.256C34.7249 7.55467 34.2983 8.088 33.7223 8.856C33.1676 9.60267 32.5383 10.488 31.8343 11.512C31.1516 12.5147 30.4583 13.5813 29.7543 14.712C29.0716 15.8213 28.4636 16.9093 27.9303 17.976C27.4183 19 26.9596 20.0987 26.5543 21.272C26.1703 22.424 25.9783 23.4373 25.9783 24.312C25.9783 24.824 26.0636 25.2507 26.2343 25.592C26.4049 25.9333 26.6929 26.1467 27.0983 26.232C27.7809 26.3813 28.6983 25.7733 29.8503 24.408C30.2983 23.8747 30.7463 23.2453 31.1943 22.52C31.6423 21.7733 31.9943 21.08 32.2503 20.44C32.6129 19.5867 32.7943 18.808 32.7943 18.104C32.7943 17.5707 32.6556 17.144 32.3783 16.824C32.1223 16.504 31.6849 16.376 31.0663 16.44H30.9383C30.5543 16.44 30.3623 16.3333 30.3623 16.12C30.3623 16.0347 30.4156 15.9493 30.5223 15.864C30.6503 15.7787 30.8209 15.736 31.0343 15.736C31.0983 15.736 31.1623 15.7467 31.2263 15.768C31.3116 15.768 31.3969 15.7787 31.4823 15.8C32.4423 15.9493 33.1249 16.344 33.5303 16.984C33.9569 17.6027 34.1703 18.3173 34.1703 19.128C34.1703 19.2987 34.1596 19.4907 34.1383 19.704C34.1169 19.896 34.0849 20.1093 34.0423 20.344C33.8716 21.2187 33.5409 22.1147 33.0503 23.032C32.5596 23.928 31.9516 24.7173 31.2263 25.4C30.5223 26.0827 29.7329 26.5413 28.8583 26.776C28.4956 26.8613 28.1543 26.9253 27.8343 26.968C27.5356 27.0107 27.2583 27.032 27.0023 27.032ZM37.328 27C36.5173 27 35.92 26.7333 35.536 26.2C35.152 25.6453 34.96 24.9733 34.96 24.184C34.96 23.224 35.184 22.2213 35.632 21.176C36.0587 20.1947 36.6027 19.2987 37.264 18.488C37.9253 17.6773 38.64 17.0267 39.408 16.536C40.176 16.024 40.9227 15.768 41.648 15.768C42.4587 15.768 43.056 16.0347 43.44 16.568C43.824 17.1013 44.016 17.7733 44.016 18.584C44.016 19.5653 43.792 20.568 43.344 21.592C43.088 22.168 42.7253 22.808 42.256 23.512C41.7867 24.1947 41.2533 24.824 40.656 25.4C40.784 25.6347 40.9653 25.8373 41.2 26.008C41.4347 26.1573 41.7547 26.232 42.16 26.232C42.672 26.232 43.152 26.0187 43.6 25.592C44.0693 25.1653 44.496 24.6533 44.88 24.056C45.264 23.4373 45.6053 22.8187 45.904 22.2C46.2027 21.5813 46.448 21.08 46.64 20.696C46.704 20.568 46.8107 20.504 46.96 20.504C47.0453 20.504 47.1093 20.5467 47.152 20.632C47.1947 20.696 47.184 20.8027 47.12 20.952C46.992 21.272 46.7787 21.752 46.48 22.392C46.1813 23.0107 45.8187 23.6613 45.392 24.344C44.9653 25.0053 44.4747 25.5707 43.92 26.04C43.3653 26.5093 42.7467 26.744 42.064 26.744C41.5947 26.744 41.1893 26.6693 40.848 26.52C40.5067 26.3493 40.2293 26.1467 40.016 25.912C39.568 26.2533 39.12 26.52 38.672 26.712C38.224 26.904 37.776 27 37.328 27ZM37.808 26.296C38.384 26.296 39.0027 26.0187 39.664 25.464C39.4933 25.208 39.3653 24.9413 39.28 24.664C39.1947 24.3867 39.152 24.1307 39.152 23.896C39.152 23.512 39.2373 23.1813 39.408 22.904C39.6 22.6267 39.888 22.488 40.272 22.488C40.5493 22.488 40.7733 22.5947 40.944 22.808C41.136 23 41.232 23.224 41.232 23.48C41.232 23.544 41.2213 23.608 41.2 23.672C41.2 23.7147 41.1893 23.768 41.168 23.832C41.5307 23.3413 41.872 22.7653 42.192 22.104C42.896 20.5893 43.248 19.3413 43.248 18.36C43.248 17.8693 43.152 17.4853 42.96 17.208C42.768 16.9307 42.48 16.792 42.096 16.792C41.648 16.792 41.1573 16.984 40.624 17.368C40.112 17.752 39.6107 18.264 39.12 18.904C38.6507 19.544 38.2347 20.2587 37.872 21.048C37.5307 21.7733 37.2533 22.4773 37.04 23.16C36.848 23.8213 36.752 24.3973 36.752 24.888C36.752 25.3147 36.8373 25.656 37.008 25.912C37.1787 26.168 37.4453 26.296 37.808 26.296ZM47.5348 27C47.3001 27 47.0121 26.9467 46.6708 26.84C46.3508 26.7333 46.0628 26.5413 45.8068 26.264C45.5721 25.9653 45.4548 25.528 45.4548 24.952C45.4548 24.3973 45.5828 23.864 45.8388 23.352C46.1161 22.8187 46.3721 22.3067 46.6068 21.816C46.5428 21.816 46.4681 21.7947 46.3828 21.752C46.3188 21.7093 46.2868 21.6453 46.2868 21.56C46.2868 21.4747 46.3081 21.3893 46.3508 21.304C46.4361 21.1333 46.5321 20.952 46.6388 20.76C46.7454 20.568 46.8414 20.3653 46.9268 20.152C47.2468 19.4907 47.5668 18.8613 47.8868 18.264C48.2068 17.6453 48.4841 17.1013 48.7188 16.632C48.9534 16.1627 49.3588 15.928 49.9348 15.928H51.9188C51.5561 16.2053 51.2254 16.5147 50.9268 16.856C50.6494 17.176 50.2974 17.7733 49.8708 18.648C49.8708 18.648 49.7961 18.7973 49.6468 19.096C49.4974 19.3947 49.3054 19.7787 49.0708 20.248C48.8574 20.696 48.6334 21.1547 48.3988 21.624C48.1854 22.0933 48.0041 22.488 47.8548 22.808C47.5774 23.4053 47.3961 23.8853 47.3108 24.248C47.2254 24.5893 47.1828 24.9093 47.1828 25.208C47.1828 25.912 47.4174 26.264 47.8868 26.264C48.3988 26.264 49.0174 25.848 49.7428 25.016C50.3401 24.312 50.9268 23.4693 51.5028 22.488C52.0788 21.5067 52.6228 20.4933 53.1348 19.448C53.6681 18.4027 54.1374 17.464 54.5428 16.632C54.7774 16.1627 55.1934 15.928 55.7908 15.928H57.5508C57.2308 16.184 56.9641 16.4293 56.7508 16.664C56.5374 16.8773 56.3241 17.176 56.1108 17.56C55.9188 17.9227 55.6521 18.4453 55.3108 19.128C55.0334 19.704 54.7348 20.3227 54.4148 20.984C54.1161 21.624 53.8494 22.232 53.6148 22.808C53.3801 23.384 53.2308 23.8533 53.1667 24.216C53.1454 24.4293 53.1241 24.5893 53.1028 24.696C53.0814 24.8027 53.0708 24.92 53.0708 25.048C53.0708 25.4533 53.1348 25.7413 53.2628 25.912C53.4121 26.0827 53.5828 26.168 53.7748 26.168C54.2868 26.168 54.7988 25.88 55.3108 25.304C55.8441 24.728 56.3454 24.024 56.8148 23.192C57.3054 22.36 57.7214 21.5707 58.0628 20.824C58.1908 20.5893 58.3081 20.472 58.4148 20.472C58.5428 20.472 58.6068 20.5467 58.6068 20.696C58.6068 20.8027 58.5641 20.9307 58.4788 21.08C58.2441 21.592 57.9561 22.1787 57.6148 22.84C57.2734 23.5013 56.8894 24.152 56.4628 24.792C56.0361 25.432 55.5668 25.9653 55.0548 26.392C54.5428 26.7973 53.9881 27 53.3908 27C52.8574 27 52.4201 26.808 52.0788 26.424C51.7374 26.0187 51.5668 25.4533 51.5668 24.728C51.5668 24.152 51.6734 23.5333 51.8868 22.872C51.5241 23.512 51.1081 24.152 50.6388 24.792C50.1694 25.432 49.6681 25.9653 49.1348 26.392C48.6014 26.7973 48.0681 27 47.5348 27ZM59.5788 27C58.9814 27 58.4481 26.7973 57.9788 26.392C57.5094 25.9653 57.2747 25.304 57.2747 24.408C57.2747 23.704 57.4028 22.84 57.6588 21.816C57.9361 20.7707 58.2668 19.6933 58.6508 18.584C59.0561 17.4533 59.4508 16.4293 59.8348 15.512H58.1388C57.9894 15.512 57.9148 15.4053 57.9148 15.192C57.9148 15.0853 57.9361 14.9893 57.9788 14.904C58.0428 14.8187 58.1281 14.776 58.2348 14.776H60.1548C60.5174 13.9653 60.9014 13.176 61.3068 12.408C61.7121 11.64 62.1068 10.9147 62.4908 10.232C62.9814 9.37867 63.5041 8.73867 64.0588 8.312C64.6134 7.88533 65.0934 7.672 65.4988 7.672C65.8188 7.672 66.0854 7.8 66.2988 8.056C66.5121 8.29067 66.6188 8.65333 66.6188 9.144C66.6188 9.44267 66.5548 9.85867 66.4268 10.392C66.2988 10.904 66.0961 11.448 65.8188 12.024C65.6694 12.3227 65.4561 12.7493 65.1788 13.304C64.9228 13.8587 64.6668 14.3493 64.4108 14.776H65.9468C66.0961 14.776 66.1708 14.8827 66.1708 15.096C66.1708 15.1813 66.1494 15.2773 66.1068 15.384C66.0641 15.4693 66.0001 15.512 65.9148 15.512H64.0268C63.4934 16.4293 62.8854 17.3253 62.2028 18.2C61.5201 19.0747 60.7094 19.9493 59.7708 20.824C59.7068 21.016 59.6214 21.2933 59.5148 21.656C59.4294 22.0187 59.3441 22.392 59.2588 22.776C59.1948 23.1387 59.1308 23.448 59.0668 23.704C59.0241 23.96 59.0028 24.088 59.0028 24.088C58.9388 24.3653 58.9068 24.6213 58.9068 24.856C58.9068 25.304 59.0134 25.6347 59.2268 25.848C59.4401 26.04 59.6854 26.136 59.9628 26.136C60.1334 26.136 60.3041 26.1147 60.4748 26.072C60.6454 26.008 60.8374 25.9013 61.0508 25.752C61.7974 25.2187 62.4481 24.4933 63.0028 23.576C63.5788 22.6587 64.0801 21.7733 64.5068 20.92C64.6348 20.664 64.7628 20.536 64.8908 20.536C64.9761 20.536 65.0188 20.6 65.0188 20.728C65.0188 20.792 64.9868 20.9093 64.9228 21.08C64.4534 22.0613 64.0588 22.8507 63.7388 23.448C63.4188 24.0453 63.1094 24.5467 62.8108 24.952C62.5121 25.336 62.1601 25.72 61.7548 26.104C61.4561 26.4027 61.1148 26.6267 60.7308 26.776C60.3468 26.9253 59.9628 27 59.5788 27ZM62.1068 14.776H63.7388C64.0374 14.2213 64.3148 13.6773 64.5708 13.144C64.8481 12.6107 65.0934 12.0773 65.3068 11.544C65.4561 11.2027 65.5841 10.8187 65.6908 10.392C65.7974 9.96533 65.8508 9.63467 65.8508 9.4C65.8508 9.08 65.7761 8.92 65.6267 8.92C65.5201 8.92 65.3601 9.016 65.1468 9.208C64.9548 9.37867 64.7094 9.67733 64.4108 10.104C64.0268 10.6373 63.6428 11.3307 63.2588 12.184C62.8961 13.016 62.5121 13.88 62.1068 14.776ZM60.0268 19.8C60.6454 19.16 61.2214 18.4773 61.7548 17.752C62.3094 17.0267 62.8214 16.28 63.2908 15.512H61.7868C61.4454 16.3013 61.1254 17.0693 60.8268 17.816C60.5281 18.5627 60.2614 19.224 60.0268 19.8ZM73.7848 27C73.5501 27 73.2621 26.9467 72.9208 26.84C72.6008 26.7333 72.3128 26.5413 72.0568 26.264C71.8221 25.9653 71.7048 25.528 71.7048 24.952C71.7048 24.3973 71.8328 23.864 72.0888 23.352C72.3661 22.8187 72.6221 22.3067 72.8568 21.816C72.7928 21.816 72.7181 21.7947 72.6328 21.752C72.5688 21.7093 72.5368 21.6453 72.5368 21.56C72.5368 21.4747 72.5581 21.3893 72.6008 21.304C72.6861 21.1333 72.7821 20.952 72.8888 20.76C72.9954 20.568 73.0914 20.3653 73.1768 20.152C73.4968 19.4907 73.8168 18.8613 74.1368 18.264C74.4568 17.6453 74.7341 17.1013 74.9688 16.632C75.2034 16.1627 75.6088 15.928 76.1848 15.928H78.1688C77.8061 16.2053 77.4754 16.5147 77.1768 16.856C76.8994 17.176 76.5474 17.7733 76.1208 18.648C76.1208 18.648 76.0461 18.7973 75.8968 19.096C75.7474 19.3947 75.5554 19.7787 75.3208 20.248C75.1074 20.696 74.8834 21.1547 74.6488 21.624C74.4354 22.0933 74.2541 22.488 74.1048 22.808C73.8274 23.4053 73.6461 23.8853 73.5608 24.248C73.4754 24.5893 73.4328 24.9093 73.4328 25.208C73.4328 25.912 73.6674 26.264 74.1368 26.264C74.6488 26.264 75.2674 25.848 75.9928 25.016C76.5901 24.312 77.1768 23.4693 77.7528 22.488C78.3288 21.5067 78.8728 20.4933 79.3848 19.448C79.9181 18.4027 80.3874 17.464 80.7928 16.632C81.0274 16.1627 81.4434 15.928 82.0408 15.928H83.8008C83.4808 16.184 83.2141 16.4293 83.0008 16.664C82.7874 16.8773 82.5741 17.176 82.3608 17.56C82.1688 17.9227 81.9021 18.4453 81.5608 19.128C81.2834 19.704 80.9848 20.3227 80.6648 20.984C80.3661 21.624 80.0994 22.232 79.8648 22.808C79.6301 23.384 79.4808 23.8533 79.4167 24.216C79.3954 24.4293 79.3741 24.5893 79.3528 24.696C79.3314 24.8027 79.3208 24.92 79.3208 25.048C79.3208 25.4533 79.3848 25.7413 79.5128 25.912C79.6621 26.0827 79.8328 26.168 80.0248 26.168C80.5368 26.168 81.0488 25.88 81.5608 25.304C82.0941 24.728 82.5954 24.024 83.0648 23.192C83.5554 22.36 83.9714 21.5707 84.3128 20.824C84.4408 20.5893 84.5581 20.472 84.6648 20.472C84.7928 20.472 84.8568 20.5467 84.8568 20.696C84.8568 20.8027 84.8141 20.9307 84.7288 21.08C84.4941 21.592 84.2061 22.1787 83.8648 22.84C83.5234 23.5013 83.1394 24.152 82.7128 24.792C82.2861 25.432 81.8168 25.9653 81.3048 26.392C80.7928 26.7973 80.2381 27 79.6408 27C79.1074 27 78.6701 26.808 78.3288 26.424C77.9874 26.0187 77.8168 25.4533 77.8168 24.728C77.8168 24.152 77.9234 23.5333 78.1368 22.872C77.7741 23.512 77.3581 24.152 76.8888 24.792C76.4194 25.432 75.9181 25.9653 75.3848 26.392C74.8514 26.7973 74.3181 27 73.7848 27ZM84.9655 27.128C83.9202 27.128 83.1735 26.8613 82.7255 26.328C82.2988 25.7733 82.0855 25.1973 82.0855 24.6C82.0855 24.1093 82.2028 23.6613 82.4375 23.256C82.6935 22.8507 82.9922 22.6373 83.3335 22.616C83.7602 21.784 84.2188 20.8773 84.7095 19.896C85.2215 18.9147 85.6908 17.9653 86.1175 17.048C86.4162 16.4293 86.7895 15.832 87.2375 15.256C87.7068 14.68 88.2188 14.3493 88.7735 14.264H89.0935C89.2642 14.264 89.4135 14.2747 89.5415 14.296C89.6908 14.3173 89.8402 14.36 89.9895 14.424C90.2242 14.5307 90.3415 14.6907 90.3415 14.904C90.3415 15.032 90.2668 15.096 90.1175 15.096C90.0535 15.096 89.9682 15.064 89.8615 15C89.6055 14.8933 89.3815 14.84 89.1895 14.84C89.0615 14.84 88.9442 14.872 88.8375 14.936C88.4322 15.1493 88.1442 15.448 87.9735 15.832C87.8242 16.216 87.7495 16.6213 87.7495 17.048C87.7495 17.3893 87.7815 17.7413 87.8455 18.104C87.9308 18.4453 88.0268 18.7547 88.1335 19.032C88.3682 19.6293 88.6135 20.216 88.8695 20.792C89.1468 21.368 89.2855 21.9867 89.2855 22.648C89.2855 23.288 89.0722 23.9707 88.6455 24.696C88.2188 25.4 87.6748 25.9653 87.0135 26.392L87.2375 26.424C87.3442 26.4453 87.4188 26.456 87.4615 26.456C87.5042 26.456 87.5362 26.456 87.5575 26.456C88.0482 26.456 88.5068 26.3173 88.9335 26.04C89.3815 25.7413 89.7762 25.3787 90.1175 24.952C90.4588 24.5253 90.8428 23.928 91.2695 23.16C91.7175 22.392 92.1442 21.5813 92.5495 20.728C92.6135 20.6213 92.6882 20.568 92.7735 20.568C92.8802 20.568 92.9548 20.6107 92.9975 20.696C93.0615 20.76 93.0722 20.8453 93.0295 20.952C92.7522 21.5493 92.4322 22.2 92.0695 22.904C91.7282 23.5867 91.3335 24.248 90.8855 24.888C90.4375 25.5067 89.9148 26.0187 89.3175 26.424C88.7415 26.808 88.0908 27 87.3655 27C87.1948 27 87.0135 26.9893 86.8215 26.968C86.6295 26.9467 86.4375 26.904 86.2455 26.84C86.0322 26.9253 85.8082 26.9893 85.5735 27.032C85.3602 27.096 85.1575 27.128 84.9655 27.128ZM85.9255 26.168C86.2882 25.8693 86.6082 25.432 86.8855 24.856C87.1842 24.28 87.3335 23.5227 87.3335 22.584C87.3335 21.752 87.2482 20.8667 87.0775 19.928C86.9068 18.9893 86.8215 18.1573 86.8215 17.432C86.8215 17.2827 86.8215 17.1547 86.8215 17.048C86.8428 16.92 86.8642 16.8027 86.8855 16.696C86.6082 17.272 86.2882 17.944 85.9255 18.712C85.5628 19.4587 85.2002 20.184 84.8375 20.888C84.4748 21.592 84.1655 22.1893 83.9095 22.68C83.9095 22.68 83.9628 22.6907 84.0695 22.712C84.1975 22.712 84.3148 22.7867 84.4215 22.936C84.5282 23.064 84.5708 23.3307 84.5495 23.736C84.5282 24.2693 84.6455 24.7707 84.9015 25.24C85.1788 25.688 85.5202 25.9973 85.9255 26.168ZM84.7095 26.616C84.8375 26.616 84.9548 26.6053 85.0615 26.584C85.1682 26.5413 85.2642 26.5093 85.3495 26.488C85.0295 26.2533 84.7415 25.944 84.4855 25.56C84.2508 25.1547 84.1122 24.6427 84.0695 24.024C83.6855 24.4293 83.4935 24.8667 83.4935 25.336C83.4935 25.6773 83.6002 25.976 83.8135 26.232C84.0268 26.488 84.3255 26.616 84.7095 26.616Z" fill="#FF9F0D"/>
</svg>
