<svg width="128" height="38" viewBox="0 0 128 38" fill="none" xmlns="http://www.w3.org/2000/svg">
<path d="M5.696 28.248C5.22667 28.248 4.74667 28.216 4.256 28.152C2.912 27.9813 1.92 27.5867 1.28 26.968C0.661333 26.3493 0.352 25.6773 0.352 24.952C0.352 24.1627 0.704 23.448 1.408 22.808C2.112 22.1467 3.104 21.816 4.384 21.816C5.23733 21.816 6.16533 21.9867 7.168 22.328C7.72267 22.52 8.384 22.84 9.152 23.288C9.92 23.736 10.8053 24.2053 11.808 24.696C12.8747 23.672 13.8453 22.4027 14.72 20.888C15.616 19.3733 16.5013 17.752 17.376 16.024C18.272 14.2747 19.232 12.5253 20.256 10.776C21.3013 9.02667 22.5067 7.384 23.872 5.848L25.728 3.768C24.9387 3.64 24.1173 3.544 23.264 3.48C22.4107 3.39467 21.5253 3.352 20.608 3.352C19.456 3.352 18.272 3.416 17.056 3.544C15.84 3.65067 14.624 3.832 13.408 4.088C11.4027 4.51467 9.70667 5.19733 8.32 6.136C6.93333 7.07467 5.87733 8.09867 5.152 9.208C4.448 10.296 4.096 11.32 4.096 12.28C4.096 12.9413 4.27733 13.5387 4.64 14.072C5.024 14.584 5.58933 14.9573 6.336 15.192C6.80533 15.3413 7.28533 15.416 7.776 15.416C8.50133 15.416 9.14133 15.2667 9.696 14.968C10.2507 14.6693 10.72 14.3067 11.104 13.88C11.488 13.432 11.7653 13.0053 11.936 12.6C12.128 12.1947 12.2133 11.896 12.192 11.704C12.192 11.5547 12.2987 11.48 12.512 11.48C12.7253 11.48 12.832 11.64 12.832 11.96V11.992C12.832 12.8667 12.5653 13.624 12.032 14.264C11.4987 14.904 10.8267 15.3947 10.016 15.736C9.22667 16.0773 8.42667 16.248 7.616 16.248C7.104 16.248 6.57067 16.1627 6.016 15.992C4.864 15.5867 4.01067 15 3.456 14.232C2.90133 13.4427 2.624 12.5787 2.624 11.64C2.624 10.7653 2.85867 9.86933 3.328 8.952C3.81867 8.01333 4.53333 7.128 5.472 6.296C6.41067 5.44267 7.57333 4.70667 8.96 4.088C10.368 3.46933 11.9893 3.032 13.824 2.776C14.8053 2.62667 15.776 2.52 16.736 2.456C17.696 2.392 18.624 2.36 19.52 2.36C20.7573 2.36 21.9627 2.424 23.136 2.552C24.3307 2.65866 25.4507 2.82933 26.496 3.064C26.7947 2.808 27.0933 2.584 27.392 2.392C27.712 2.2 28 2.05066 28.256 1.944C28.4053 1.88 28.5333 1.83733 28.64 1.816C28.7467 1.79467 28.832 1.784 28.896 1.784C29.024 1.784 29.088 1.82667 29.088 1.912C29.088 2.01867 28.928 2.18933 28.608 2.424C28.3947 2.57333 28.192 2.744 28 2.936C27.808 3.10667 27.6907 3.23467 27.648 3.32C29.824 3.87467 31.584 4.64267 32.928 5.624C34.2933 6.584 34.976 7.72533 34.976 9.048C34.976 9.73067 34.752 10.4773 34.304 11.288C33.8347 12.0773 33.184 12.7173 32.352 13.208C31.52 13.6773 30.6347 14.0293 29.696 14.264C28.7573 14.4773 27.8827 14.6053 27.072 14.648C27.776 14.8613 28.544 15.1813 29.376 15.608C30.2293 16.0133 31.008 16.5147 31.712 17.112C32.4373 17.7093 32.9173 18.4133 33.152 19.224C33.3013 19.736 33.376 20.2587 33.376 20.792C33.376 21.9227 33.0453 22.9467 32.384 23.864C31.744 24.7813 30.88 25.5707 29.792 26.232C28.7253 26.872 27.552 27.3627 26.272 27.704C24.992 28.0667 23.7227 28.248 22.464 28.248C21.9947 28.248 21.5147 28.216 21.024 28.152C18.976 27.896 17.28 27.576 15.936 27.192C14.6133 26.808 13.4507 26.3813 12.448 25.912C10.3787 27.4693 8.128 28.248 5.696 28.248ZM22.016 27.32C23.3387 27.32 24.544 27.1173 25.632 26.712C26.72 26.3067 27.6587 25.7733 28.448 25.112C29.2587 24.4507 29.8773 23.7147 30.304 22.904C30.752 22.0933 30.976 21.2933 30.976 20.504C30.976 19.7573 30.752 19.032 30.304 18.328C29.856 17.624 29.152 17.0373 28.192 16.568C27.36 16.1627 26.496 15.832 25.6 15.576C24.7253 15.2987 23.968 15.064 23.328 14.872C22.688 14.6587 22.3147 14.4453 22.208 14.232C22.208 13.976 22.3147 13.8053 22.528 13.72C22.7627 13.6133 23.0613 13.56 23.424 13.56C23.8507 13.56 24.3627 13.592 24.96 13.656C25.5573 13.72 26.1867 13.752 26.848 13.752C27.5307 13.752 28.224 13.6027 28.928 13.304C29.6533 12.984 30.3147 12.568 30.912 12.056C31.5093 11.5227 31.9893 10.9467 32.352 10.328C32.736 9.688 32.928 9.03733 32.928 8.376C32.928 7.77867 32.7253 7.192 32.32 6.616C31.9147 6.04 31.2427 5.53867 30.304 5.112C29.3653 4.68533 28.352 4.344 27.264 4.088C26.1973 5.56 25.1307 7.21333 24.064 9.048C22.9973 10.8613 21.9307 12.7067 20.864 14.584C19.7973 16.44 18.72 18.2 17.632 19.864C16.544 21.528 15.456 22.9573 14.368 24.152C14.112 24.4293 13.9093 24.6427 13.76 24.792C13.6107 24.92 13.408 25.1013 13.152 25.336C14.1547 25.7413 15.296 26.1253 16.576 26.488C17.856 26.8507 19.3173 27.1067 20.96 27.256C21.1307 27.2773 21.3013 27.288 21.472 27.288C21.664 27.3093 21.8453 27.32 22.016 27.32ZM5.056 27.256C6.25067 27.32 7.33867 27.1813 8.32 26.84C9.32267 26.4773 10.2507 25.976 11.104 25.336C10.3573 24.9733 9.58933 24.6 8.8 24.216C8.032 23.8107 7.21067 23.448 6.336 23.128C5.71733 22.9147 5.152 22.808 4.64 22.808C3.85067 22.808 3.25333 23.0213 2.848 23.448C2.44267 23.8533 2.24 24.3227 2.24 24.856C2.24 25.4107 2.47467 25.944 2.944 26.456C3.41333 26.9467 4.11733 27.2133 5.056 27.256ZM36.892 27.096C35.996 27.096 35.388 26.8613 35.068 26.392C34.748 25.9013 34.588 25.3253 34.588 24.664C34.588 23.9813 34.684 23.2773 34.876 22.552C35.068 21.8267 35.2387 21.2187 35.388 20.728C35.7293 19.5333 36.156 18.264 36.668 16.92C37.2013 15.5547 37.7773 14.2213 38.396 12.92C39.036 11.5973 39.6653 10.4133 40.284 9.368C40.7747 8.536 41.2973 7.91733 41.852 7.512C42.428 7.08533 42.9293 6.872 43.356 6.872C43.6973 6.872 43.964 7 44.156 7.256C44.3693 7.49067 44.476 7.85333 44.476 8.344C44.476 8.68533 44.412 9.09067 44.284 9.56C44.1773 10.0293 43.9853 10.5627 43.708 11.16C42.9613 12.824 42.0653 14.488 41.02 16.152C39.996 17.816 38.6947 19.3733 37.116 20.824C37.0307 21.1013 36.9133 21.432 36.764 21.816C36.636 22.1787 36.5187 22.552 36.412 22.936C36.284 23.512 36.22 24.0027 36.22 24.408C36.22 25.0693 36.348 25.5707 36.604 25.912C36.8813 26.232 37.212 26.392 37.596 26.392C37.9373 26.392 38.3 26.2747 38.684 26.04C39.068 25.784 39.4307 25.4213 39.772 24.952C40.284 24.2053 40.7427 23.448 41.148 22.68C41.5747 21.8907 41.8947 21.2827 42.108 20.856C42.236 20.6213 42.3747 20.504 42.524 20.504C42.6307 20.504 42.684 20.568 42.684 20.696C42.684 20.8027 42.652 20.92 42.588 21.048C42.396 21.4747 42.14 22.0293 41.82 22.712C41.5213 23.3733 41.1373 24.0453 40.668 24.728C40.22 25.3893 39.676 25.9547 39.036 26.424C38.4173 26.872 37.7027 27.096 36.892 27.096ZM37.372 19.8C38.14 19.0107 38.8867 18.104 39.612 17.08C40.3373 16.0347 41.0093 14.9573 41.628 13.848C42.268 12.7173 42.8013 11.6507 43.228 10.648C43.3773 10.328 43.4947 9.976 43.58 9.592C43.6867 9.208 43.74 8.888 43.74 8.632C43.74 8.33333 43.6653 8.184 43.516 8.184C43.4307 8.184 43.3027 8.26933 43.132 8.44C42.9613 8.58933 42.7373 8.856 42.46 9.24C42.0547 9.77333 41.6067 10.4987 41.116 11.416C40.6467 12.3333 40.1667 13.3147 39.676 14.36C39.1853 15.4053 38.7373 16.4187 38.332 17.4C37.9267 18.36 37.6067 19.16 37.372 19.8ZM43.6405 27C42.8298 27 42.2325 26.7333 41.8485 26.2C41.4645 25.6453 41.2725 24.9733 41.2725 24.184C41.2725 23.224 41.4965 22.2213 41.9445 21.176C42.3712 20.1947 42.9152 19.2987 43.5765 18.488C44.2378 17.6773 44.9525 17.0267 45.7205 16.536C46.4885 16.024 47.2352 15.768 47.9605 15.768C48.7712 15.768 49.3685 16.0347 49.7525 16.568C50.1365 17.1013 50.3285 17.7733 50.3285 18.584C50.3285 19.5653 50.1045 20.568 49.6565 21.592C49.4005 22.168 49.0378 22.808 48.5685 23.512C48.0992 24.1947 47.5658 24.824 46.9685 25.4C47.0965 25.6347 47.2778 25.8373 47.5125 26.008C47.7472 26.1573 48.0672 26.232 48.4725 26.232C48.9845 26.232 49.4645 26.0187 49.9125 25.592C50.3818 25.1653 50.8085 24.6533 51.1925 24.056C51.5765 23.4373 51.9178 22.8187 52.2165 22.2C52.5152 21.5813 52.7605 21.08 52.9525 20.696C53.0165 20.568 53.1232 20.504 53.2725 20.504C53.3578 20.504 53.4218 20.5467 53.4645 20.632C53.5072 20.696 53.4965 20.8027 53.4325 20.952C53.3045 21.272 53.0912 21.752 52.7925 22.392C52.4938 23.0107 52.1312 23.6613 51.7045 24.344C51.2778 25.0053 50.7872 25.5707 50.2325 26.04C49.6778 26.5093 49.0592 26.744 48.3765 26.744C47.9072 26.744 47.5018 26.6693 47.1605 26.52C46.8192 26.3493 46.5418 26.1467 46.3285 25.912C45.8805 26.2533 45.4325 26.52 44.9845 26.712C44.5365 26.904 44.0885 27 43.6405 27ZM44.1205 26.296C44.6965 26.296 45.3152 26.0187 45.9765 25.464C45.8058 25.208 45.6778 24.9413 45.5925 24.664C45.5072 24.3867 45.4645 24.1307 45.4645 23.896C45.4645 23.512 45.5498 23.1813 45.7205 22.904C45.9125 22.6267 46.2005 22.488 46.5845 22.488C46.8618 22.488 47.0858 22.5947 47.2565 22.808C47.4485 23 47.5445 23.224 47.5445 23.48C47.5445 23.544 47.5338 23.608 47.5125 23.672C47.5125 23.7147 47.5018 23.768 47.4805 23.832C47.8432 23.3413 48.1845 22.7653 48.5045 22.104C49.2085 20.5893 49.5605 19.3413 49.5605 18.36C49.5605 17.8693 49.4645 17.4853 49.2725 17.208C49.0805 16.9307 48.7925 16.792 48.4085 16.792C47.9605 16.792 47.4698 16.984 46.9365 17.368C46.4245 17.752 45.9232 18.264 45.4325 18.904C44.9632 19.544 44.5472 20.2587 44.1845 21.048C43.8432 21.7733 43.5658 22.4773 43.3525 23.16C43.1605 23.8213 43.0645 24.3973 43.0645 24.888C43.0645 25.3147 43.1498 25.656 43.3205 25.912C43.4912 26.168 43.7578 26.296 44.1205 26.296ZM50.6472 37.208C48.6206 37.208 47.6072 36.376 47.6072 34.712C47.6072 33.9227 47.8846 33.2187 48.4392 32.6C48.9939 31.9813 49.6552 31.448 50.4232 31C51.4899 30.36 52.5246 29.848 53.5273 29.464C54.5299 29.08 55.4793 28.7387 56.3753 28.44C57.2926 28.1627 58.1566 27.8533 58.9673 27.512C59.3513 26.3813 59.6073 25.1973 59.7353 23.96C59.7993 23.32 59.8313 22.7653 59.8313 22.296C59.8313 21.8053 59.7993 21.4853 59.7353 21.336C59.5006 21.784 59.1913 22.328 58.8073 22.968C58.4233 23.608 57.9859 24.2373 57.4953 24.856C57.0046 25.4533 56.4713 25.9547 55.8953 26.36C55.3406 26.7653 54.7646 26.968 54.1673 26.968C53.9539 26.968 53.7513 26.936 53.5593 26.872C52.9619 26.616 52.5246 26.2533 52.2473 25.784C51.9913 25.3147 51.8633 24.7813 51.8633 24.184C51.8633 23.224 52.1406 22.1893 52.6953 21.08C53.2499 19.9707 53.9113 18.9573 54.6793 18.04C55.2979 17.2933 56.0233 16.696 56.8553 16.248C57.6873 15.8 58.5299 15.576 59.3833 15.576C60.3646 15.576 61.2819 15.9067 62.1353 16.568C62.4553 16.824 62.6153 17.1013 62.6153 17.4C62.6153 17.72 62.4873 17.88 62.2313 17.88C62.0179 17.88 61.8686 17.7413 61.7833 17.464C61.4846 16.6747 61.0046 16.28 60.3433 16.28C59.8099 16.28 59.2019 16.5147 58.5193 16.984C57.8366 17.432 57.1966 17.9973 56.5993 18.68C56.0873 19.256 55.5859 19.9173 55.0953 20.664C54.6259 21.4107 54.2313 22.1467 53.9113 22.872C53.6126 23.5973 53.4633 24.2267 53.4633 24.76C53.4633 25.1227 53.5486 25.432 53.7193 25.688C53.8899 25.944 54.1566 26.072 54.5193 26.072C55.0099 26.072 55.5219 25.8373 56.0553 25.368C56.6099 24.8987 57.1326 24.3227 57.6233 23.64C58.1353 22.9573 58.5726 22.264 58.9353 21.56C59.3193 20.856 59.5859 20.2693 59.7353 19.8C59.8846 19.3093 60.0873 19.0107 60.3433 18.904C60.5993 18.776 60.8553 18.712 61.1113 18.712C61.3673 18.712 61.5806 18.648 61.7513 18.52C61.8366 18.9893 61.8899 19.4693 61.9113 19.96C61.9539 20.4293 61.9753 20.9093 61.9753 21.4C61.9753 23.0427 61.7619 24.696 61.3353 26.36C61.7193 26.0613 62.1139 25.7413 62.5193 25.4C62.9459 25.0373 63.3086 24.6533 63.6073 24.248C64.1406 23.5227 64.5353 22.8613 64.7913 22.264C65.0686 21.6453 65.2819 21.1653 65.4313 20.824C65.5593 20.6107 65.6979 20.504 65.8473 20.504C65.9753 20.504 66.0393 20.568 66.0393 20.696C66.0393 20.8027 65.9966 20.9307 65.9113 21.08C65.3779 22.2107 64.8873 23.1813 64.4393 23.992C63.9913 24.7813 63.5006 25.4533 62.9673 26.008C62.4339 26.5413 61.7726 27 60.9833 27.384C60.6419 28.408 60.1299 29.4853 59.4473 30.616C58.7646 31.7467 57.9646 32.8133 57.0473 33.816C56.1299 34.8187 55.1273 35.6293 54.0393 36.248C52.9513 36.888 51.8206 37.208 50.6472 37.208ZM49.8792 36.568C50.3486 36.568 50.8392 36.4613 51.3513 36.248C51.8846 36.056 52.3859 35.8213 52.8553 35.544C53.3246 35.2667 53.6873 35.032 53.9433 34.84C54.4339 34.456 54.9353 33.976 55.4473 33.4C55.9593 32.824 56.4073 32.2693 56.7913 31.736C57.1539 31.224 57.4953 30.68 57.8153 30.104C58.1566 29.5493 58.4446 28.9947 58.6793 28.44C58.5086 28.504 58.2953 28.5787 58.0393 28.664C57.8046 28.7493 57.6339 28.8133 57.5273 28.856C56.8233 29.0907 56.0446 29.3573 55.1913 29.656C54.3593 29.976 53.5273 30.3173 52.6953 30.68C51.8633 31.064 51.1059 31.48 50.4232 31.928C49.8259 32.3333 49.3352 32.8667 48.9512 33.528C48.5459 34.1893 48.3432 34.7653 48.3432 35.256C48.3432 35.6187 48.4712 35.928 48.7272 36.184C48.9619 36.44 49.3459 36.568 49.8792 36.568ZM76.3855 28.248C75.9162 28.248 75.4575 28.216 75.0095 28.152C73.6655 27.9813 72.6735 27.5867 72.0335 26.968C71.4148 26.3493 71.1055 25.6773 71.1055 24.952C71.1055 24.1627 71.4575 23.448 72.1615 22.808C72.8868 22.168 73.9002 21.848 75.2015 21.848C75.6068 21.848 76.0335 21.8907 76.4815 21.976C76.9508 22.04 77.4415 22.1573 77.9535 22.328C78.2095 22.4133 78.3375 22.5307 78.3375 22.68C78.3375 22.7653 78.2735 22.808 78.1455 22.808C78.0175 22.808 77.9108 22.7867 77.8255 22.744C77.4842 22.616 77.1535 22.5307 76.8335 22.488C76.5348 22.424 76.2468 22.392 75.9695 22.392C75.0522 22.392 74.3482 22.6587 73.8575 23.192C73.3882 23.704 73.1535 24.2693 73.1535 24.888C73.1535 25.4853 73.3988 26.0293 73.8895 26.52C74.3802 27.0107 75.1588 27.256 76.2255 27.256C77.5695 27.256 78.8068 26.9467 79.9375 26.328C81.0895 25.7093 82.1775 24.8987 83.2015 23.896C84.2895 22.8293 85.2815 21.5493 86.1775 20.056C87.0735 18.5413 87.9588 16.9307 88.8335 15.224C89.7295 13.496 90.7002 11.7573 91.7455 10.008C92.7908 8.25867 93.9962 6.616 95.3615 5.08C95.6388 4.78133 95.9162 4.472 96.1935 4.152C96.4922 3.81067 96.7802 3.52267 97.0575 3.288C96.3322 3.18133 95.5855 3.10667 94.8175 3.064C94.0495 3 93.2922 2.968 92.5455 2.968C91.4362 2.968 90.3802 3.02133 89.3775 3.128C88.3962 3.21333 87.4148 3.34133 86.4335 3.512C85.4308 3.704 84.3108 4.00267 83.0735 4.408C81.8362 4.81333 80.6308 5.34667 79.4575 6.008C78.3055 6.648 77.3135 7.42667 76.4815 8.344C75.6708 9.26133 75.1695 10.3173 74.9775 11.512C74.9562 11.6187 74.9348 11.736 74.9135 11.864C74.9135 11.9707 74.9135 12.0773 74.9135 12.184C74.9135 13.1653 75.2442 13.976 75.9055 14.616C76.5882 15.256 77.3775 15.576 78.2735 15.576C78.9348 15.576 79.5748 15.4053 80.1935 15.064C80.8122 14.7013 81.3668 14.232 81.8575 13.656C82.3482 13.0587 82.7108 12.408 82.9455 11.704C82.9668 11.4907 83.0522 11.384 83.2015 11.384C83.3295 11.384 83.3935 11.5013 83.3935 11.736C83.3722 12.6747 83.0948 13.4853 82.5615 14.168C82.0495 14.8507 81.3988 15.3733 80.6095 15.736C79.8202 16.0773 79.0202 16.248 78.2095 16.248C77.3775 16.248 76.5882 16.0773 75.8415 15.736C75.0948 15.3733 74.4868 14.8507 74.0175 14.168C73.5482 13.464 73.3135 12.6 73.3135 11.576C73.3135 10.3813 73.6015 9.32533 74.1775 8.408C74.7748 7.49067 75.5642 6.69067 76.5455 6.008C77.5268 5.304 78.5935 4.71733 79.7455 4.248C80.8975 3.75733 82.0495 3.37333 83.2015 3.096C84.3535 2.79733 85.3988 2.57333 86.3375 2.424C87.2975 2.27467 88.2895 2.15733 89.3135 2.072C90.3588 1.98667 91.4148 1.944 92.4815 1.944C93.3988 1.944 94.3162 1.98667 95.2335 2.072C96.1508 2.15733 97.0468 2.28533 97.9215 2.456C98.2842 2.17867 98.6575 1.93333 99.0415 1.72C99.4255 1.50667 99.8522 1.31467 100.322 1.144C100.62 1.016 100.844 0.952 100.994 0.952C101.122 0.952 101.186 0.994666 101.186 1.08C101.186 1.22933 101.015 1.41067 100.674 1.624C100.503 1.70933 100.29 1.85867 100.034 2.072C99.7775 2.28533 99.5002 2.53067 99.2015 2.808C100.588 3.14933 101.836 3.66133 102.946 4.344C104.162 5.06933 105.026 5.83733 105.538 6.648C106.071 7.45867 106.338 8.29067 106.338 9.144C106.338 10.1253 106.039 11.1067 105.442 12.088C104.844 13.048 104.066 13.944 103.106 14.776C102.146 15.608 101.09 16.3333 99.9375 16.952C98.7855 17.5493 97.6442 17.9867 96.5135 18.264C95.4255 18.5413 94.3268 18.744 93.2175 18.872C92.1082 19 91.1162 19.064 90.2415 19.064C90.0922 19.064 89.9322 19.064 89.7615 19.064C89.6122 19.064 89.4628 19.0533 89.3135 19.032C88.5882 20.056 87.8415 21.0587 87.0735 22.04C86.3055 23 85.4415 23.9387 84.4815 24.856C83.3082 25.9653 82.0282 26.808 80.6415 27.384C79.2548 27.96 77.8362 28.248 76.3855 28.248ZM89.7615 18.328C90.5722 18.3493 91.4788 18.2853 92.4815 18.136C93.4842 17.9867 94.4868 17.7627 95.4895 17.464C97.1535 16.952 98.6468 16.216 99.9695 15.256C101.314 14.296 102.37 13.2293 103.138 12.056C103.927 10.8827 104.322 9.73067 104.322 8.6C104.322 7.91733 104.151 7.26667 103.81 6.648C103.49 6.02933 102.956 5.47467 102.21 4.984C101.719 4.664 101.164 4.38667 100.546 4.152C99.9268 3.91733 99.2762 3.72533 98.5935 3.576C97.5055 5.112 96.4815 6.712 95.5215 8.376C94.5828 10.04 93.6442 11.7147 92.7055 13.4C91.7882 15.0853 90.8068 16.728 89.7615 18.328ZM101.266 27C100.455 27 99.8575 26.7333 99.4735 26.2C99.0895 25.6453 98.8975 24.9733 98.8975 24.184C98.8975 23.224 99.1215 22.2213 99.5695 21.176C99.9962 20.1947 100.54 19.2987 101.202 18.488C101.863 17.6773 102.578 17.0267 103.346 16.536C104.114 16.024 104.86 15.768 105.586 15.768C106.396 15.768 106.994 16.0347 107.378 16.568C107.762 17.1013 107.954 17.7733 107.954 18.584C107.954 19.5653 107.73 20.568 107.282 21.592C107.026 22.168 106.663 22.808 106.194 23.512C105.724 24.1947 105.191 24.824 104.594 25.4C104.722 25.6347 104.903 25.8373 105.138 26.008C105.372 26.1573 105.692 26.232 106.098 26.232C106.61 26.232 107.09 26.0187 107.538 25.592C108.007 25.1653 108.434 24.6533 108.818 24.056C109.202 23.4373 109.543 22.8187 109.842 22.2C110.14 21.5813 110.386 21.08 110.578 20.696C110.642 20.568 110.748 20.504 110.898 20.504C110.983 20.504 111.047 20.5467 111.09 20.632C111.132 20.696 111.122 20.8027 111.058 20.952C110.93 21.272 110.716 21.752 110.418 22.392C110.119 23.0107 109.756 23.6613 109.33 24.344C108.903 25.0053 108.412 25.5707 107.858 26.04C107.303 26.5093 106.684 26.744 106.002 26.744C105.532 26.744 105.127 26.6693 104.786 26.52C104.444 26.3493 104.167 26.1467 103.954 25.912C103.506 26.2533 103.058 26.52 102.61 26.712C102.162 26.904 101.714 27 101.266 27ZM101.746 26.296C102.322 26.296 102.94 26.0187 103.602 25.464C103.431 25.208 103.303 24.9413 103.218 24.664C103.132 24.3867 103.09 24.1307 103.09 23.896C103.09 23.512 103.175 23.1813 103.346 22.904C103.538 22.6267 103.826 22.488 104.21 22.488C104.487 22.488 104.711 22.5947 104.882 22.808C105.074 23 105.17 23.224 105.17 23.48C105.17 23.544 105.159 23.608 105.138 23.672C105.138 23.7147 105.127 23.768 105.106 23.832C105.468 23.3413 105.81 22.7653 106.13 22.104C106.834 20.5893 107.186 19.3413 107.186 18.36C107.186 17.8693 107.09 17.4853 106.898 17.208C106.706 16.9307 106.418 16.792 106.034 16.792C105.586 16.792 105.095 16.984 104.562 17.368C104.05 17.752 103.548 18.264 103.058 18.904C102.588 19.544 102.172 20.2587 101.81 21.048C101.468 21.7733 101.191 22.4773 100.978 23.16C100.786 23.8213 100.69 24.3973 100.69 24.888C100.69 25.3147 100.775 25.656 100.946 25.912C101.116 26.168 101.383 26.296 101.746 26.296ZM111.184 27.128C110.139 27.128 109.392 26.8613 108.944 26.328C108.518 25.7733 108.304 25.1973 108.304 24.6C108.304 24.1093 108.422 23.6613 108.656 23.256C108.912 22.8507 109.211 22.6373 109.552 22.616C109.979 21.784 110.438 20.8773 110.928 19.896C111.44 18.9147 111.91 17.9653 112.336 17.048C112.635 16.4293 113.008 15.832 113.456 15.256C113.926 14.68 114.438 14.3493 114.992 14.264H115.312C115.483 14.264 115.632 14.2747 115.76 14.296C115.91 14.3173 116.059 14.36 116.208 14.424C116.443 14.5307 116.56 14.6907 116.56 14.904C116.56 15.032 116.486 15.096 116.336 15.096C116.272 15.096 116.187 15.064 116.08 15C115.824 14.8933 115.6 14.84 115.408 14.84C115.28 14.84 115.163 14.872 115.056 14.936C114.651 15.1493 114.363 15.448 114.192 15.832C114.043 16.216 113.968 16.6213 113.968 17.048C113.968 17.3893 114 17.7413 114.064 18.104C114.15 18.4453 114.246 18.7547 114.352 19.032C114.587 19.6293 114.832 20.216 115.088 20.792C115.366 21.368 115.504 21.9867 115.504 22.648C115.504 23.288 115.291 23.9707 114.864 24.696C114.438 25.4 113.894 25.9653 113.232 26.392L113.456 26.424C113.563 26.4453 113.638 26.456 113.68 26.456C113.723 26.456 113.755 26.456 113.776 26.456C114.267 26.456 114.726 26.3173 115.152 26.04C115.6 25.7413 115.995 25.3787 116.336 24.952C116.678 24.5253 117.062 23.928 117.488 23.16C117.936 22.392 118.363 21.5813 118.768 20.728C118.832 20.6213 118.907 20.568 118.992 20.568C119.099 20.568 119.174 20.6107 119.216 20.696C119.28 20.76 119.291 20.8453 119.248 20.952C118.971 21.5493 118.651 22.2 118.288 22.904C117.947 23.5867 117.552 24.248 117.104 24.888C116.656 25.5067 116.134 26.0187 115.536 26.424C114.96 26.808 114.31 27 113.584 27C113.414 27 113.232 26.9893 113.04 26.968C112.848 26.9467 112.656 26.904 112.464 26.84C112.251 26.9253 112.027 26.9893 111.792 27.032C111.579 27.096 111.376 27.128 111.184 27.128ZM112.144 26.168C112.507 25.8693 112.827 25.432 113.104 24.856C113.403 24.28 113.552 23.5227 113.552 22.584C113.552 21.752 113.467 20.8667 113.296 19.928C113.126 18.9893 113.04 18.1573 113.04 17.432C113.04 17.2827 113.04 17.1547 113.04 17.048C113.062 16.92 113.083 16.8027 113.104 16.696C112.827 17.272 112.507 17.944 112.144 18.712C111.782 19.4587 111.419 20.184 111.056 20.888C110.694 21.592 110.384 22.1893 110.128 22.68C110.128 22.68 110.182 22.6907 110.288 22.712C110.416 22.712 110.534 22.7867 110.64 22.936C110.747 23.064 110.79 23.3307 110.768 23.736C110.747 24.2693 110.864 24.7707 111.12 25.24C111.398 25.688 111.739 25.9973 112.144 26.168ZM110.928 26.616C111.056 26.616 111.174 26.6053 111.28 26.584C111.387 26.5413 111.483 26.5093 111.568 26.488C111.248 26.2533 110.96 25.944 110.704 25.56C110.47 25.1547 110.331 24.6427 110.288 24.024C109.904 24.4293 109.712 24.8667 109.712 25.336C109.712 25.6773 109.819 25.976 110.032 26.232C110.246 26.488 110.544 26.616 110.928 26.616ZM120.235 27C119.638 27 119.104 26.7973 118.635 26.392C118.166 25.9653 117.931 25.304 117.931 24.408C117.931 23.704 118.059 22.84 118.315 21.816C118.592 20.7707 118.923 19.6933 119.307 18.584C119.712 17.4533 120.107 16.4293 120.491 15.512H118.795C118.646 15.512 118.571 15.4053 118.571 15.192C118.571 15.0853 118.592 14.9893 118.635 14.904C118.699 14.8187 118.784 14.776 118.891 14.776H120.811C121.174 13.9653 121.558 13.176 121.963 12.408C122.368 11.64 122.763 10.9147 123.147 10.232C123.638 9.37867 124.16 8.73867 124.715 8.312C125.27 7.88533 125.75 7.672 126.155 7.672C126.475 7.672 126.742 7.8 126.955 8.056C127.168 8.29067 127.275 8.65333 127.275 9.144C127.275 9.44267 127.211 9.85867 127.083 10.392C126.955 10.904 126.752 11.448 126.475 12.024C126.326 12.3227 126.112 12.7493 125.835 13.304C125.579 13.8587 125.323 14.3493 125.067 14.776H126.603C126.752 14.776 126.827 14.8827 126.827 15.096C126.827 15.1813 126.806 15.2773 126.763 15.384C126.72 15.4693 126.656 15.512 126.571 15.512H124.683C124.15 16.4293 123.542 17.3253 122.859 18.2C122.176 19.0747 121.366 19.9493 120.427 20.824C120.363 21.016 120.278 21.2933 120.171 21.656C120.086 22.0187 120 22.392 119.915 22.776C119.851 23.1387 119.787 23.448 119.723 23.704C119.68 23.96 119.659 24.088 119.659 24.088C119.595 24.3653 119.563 24.6213 119.563 24.856C119.563 25.304 119.67 25.6347 119.883 25.848C120.096 26.04 120.342 26.136 120.619 26.136C120.79 26.136 120.96 26.1147 121.131 26.072C121.302 26.008 121.494 25.9013 121.707 25.752C122.454 25.2187 123.104 24.4933 123.659 23.576C124.235 22.6587 124.736 21.7733 125.163 20.92C125.291 20.664 125.419 20.536 125.547 20.536C125.632 20.536 125.675 20.6 125.675 20.728C125.675 20.792 125.643 20.9093 125.579 21.08C125.11 22.0613 124.715 22.8507 124.395 23.448C124.075 24.0453 123.766 24.5467 123.467 24.952C123.168 25.336 122.816 25.72 122.411 26.104C122.112 26.4027 121.771 26.6267 121.387 26.776C121.003 26.9253 120.619 27 120.235 27ZM122.763 14.776H124.395C124.694 14.2213 124.971 13.6773 125.227 13.144C125.504 12.6107 125.75 12.0773 125.963 11.544C126.112 11.2027 126.24 10.8187 126.347 10.392C126.454 9.96533 126.507 9.63467 126.507 9.4C126.507 9.08 126.432 8.92 126.283 8.92C126.176 8.92 126.016 9.016 125.803 9.208C125.611 9.37867 125.366 9.67733 125.067 10.104C124.683 10.6373 124.299 11.3307 123.915 12.184C123.552 13.016 123.168 13.88 122.763 14.776ZM120.683 19.8C121.302 19.16 121.878 18.4773 122.411 17.752C122.966 17.0267 123.478 16.28 123.947 15.512H122.443C122.102 16.3013 121.782 17.0693 121.483 17.816C121.184 18.5627 120.918 19.224 120.683 19.8Z" fill="#FF9F0D"/>
</svg>
