<svg width="178" height="40" viewBox="0 0 178 40" fill="none" xmlns="http://www.w3.org/2000/svg">
<path d="M17.576 31C16.936 31 16.4027 30.7653 15.976 30.296C15.5707 29.8267 15.4107 28.9413 15.496 27.64C15.5813 26.296 15.9973 24.568 16.744 22.456C17.4907 20.344 18.4613 17.8587 19.656 15C20.04 14.0827 20.424 13.0587 20.808 11.928C21.2133 10.7973 21.5547 9.66667 21.832 8.536C22.1093 7.384 22.248 6.34933 22.248 5.432C22.248 4.792 22.1627 4.23733 21.992 3.768C21.8427 3.27733 21.5653 2.91467 21.16 2.68C20.6907 2.38133 20.1893 2.168 19.656 2.04C19.1227 1.912 18.5573 1.848 17.96 1.848C16.616 1.848 15.1973 2.15733 13.704 2.776C12.232 3.39467 10.8027 4.248 9.416 5.336C8.05067 6.40267 6.824 7.61867 5.736 8.984C4.66933 10.3493 3.85867 11.768 3.304 13.24C2.984 14.1147 2.74933 14.936 2.6 15.704C2.45067 16.472 2.376 17.1653 2.376 17.784C2.376 18.9573 2.58933 19.9387 3.016 20.728C3.464 21.496 4.04 22.072 4.744 22.456C5.46933 22.8187 6.248 23 7.08 23C7.86933 23 8.616 22.8613 9.32 22.584C10.2373 22.2427 11.0587 21.6667 11.784 20.856C12.5093 20.0453 13.0853 19.1493 13.512 18.168C13.9387 17.1653 14.152 16.248 14.152 15.416C14.152 14.6907 13.96 14.0827 13.576 13.592C13.2133 13.1013 12.6053 12.856 11.752 12.856C11.624 12.856 11.496 12.856 11.368 12.856C11.2613 12.856 11.1333 12.8773 10.984 12.92C10.8987 12.9413 10.824 12.952 10.76 12.952C10.696 12.952 10.6427 12.952 10.6 12.952C10.408 12.952 10.312 12.9093 10.312 12.824C10.312 12.696 10.5147 12.5573 10.92 12.408C11.5813 12.1947 12.2 12.088 12.776 12.088C13.7787 12.088 14.5253 12.3867 15.016 12.984C15.5067 13.56 15.752 14.296 15.752 15.192C15.752 16.088 15.5067 17.0587 15.016 18.104C14.5253 19.128 13.8 20.1093 12.84 21.048C11.9013 21.9867 10.7173 22.7547 9.288 23.352C8.52 23.672 7.73067 23.832 6.92 23.832C5.81067 23.832 4.76533 23.544 3.784 22.968C2.80267 22.392 2.00267 21.5707 1.384 20.504C0.765333 19.4373 0.456 18.1787 0.456 16.728C0.456 16.024 0.541333 15.288 0.712 14.52C0.882667 13.752 1.14933 12.9413 1.512 12.088C2.216 10.4453 3.176 8.952 4.392 7.608C5.608 6.24267 6.96267 5.06933 8.456 4.088C9.97067 3.08533 11.5173 2.31733 13.096 1.784C14.6747 1.25067 16.1787 0.983999 17.608 0.983999C18.8667 0.983999 20.008 1.208 21.032 1.656C22.1627 2.14666 22.952 2.85067 23.4 3.768C23.8693 4.664 24.104 5.67733 24.104 6.808C24.104 8.04533 23.8907 9.368 23.464 10.776C23.0587 12.1627 22.5573 13.528 21.96 14.872C21.2987 16.3867 20.648 17.9653 20.008 19.608C19.368 21.2507 18.8133 22.808 18.344 24.28C17.8747 25.752 17.544 26.9787 17.352 27.96C17.3093 28.1947 17.2773 28.3973 17.256 28.568C17.2347 28.76 17.224 28.92 17.224 29.048C17.224 29.7947 17.4693 30.168 17.96 30.168C18.2587 30.168 18.6107 30.04 19.016 29.784C19.8053 29.3147 20.6053 28.6107 21.416 27.672C22.2267 26.7333 23.0267 25.6667 23.816 24.472C24.6267 23.256 25.4053 22.0187 26.152 20.76C26.8987 19.48 27.6133 18.2747 28.296 17.144C28.9787 16.0133 29.5973 15.0533 30.152 14.264C30.4933 13.7947 30.8133 13.4533 31.112 13.24C31.4107 13.0053 31.6667 12.888 31.88 12.888C32.328 12.888 32.552 13.2293 32.552 13.912C32.552 14.3173 32.456 14.808 32.264 15.384C31.9867 16.1947 31.6133 17.1227 31.144 18.168C30.6747 19.192 30.2373 20.2373 29.832 21.304C29.4267 22.3493 29.16 23.3307 29.032 24.248C29.0107 24.4827 28.9893 24.696 28.968 24.888C28.968 25.0587 28.968 25.24 28.968 25.432C28.968 26.5413 29.192 27.3307 29.64 27.8C30.088 28.2907 30.6747 28.536 31.4 28.536C32.232 28.536 33.1707 28.2693 34.216 27.736C35.2827 27.2027 36.3493 26.4987 37.416 25.624C38.4827 24.728 39.4427 23.7467 40.296 22.68C41.1707 21.6133 41.832 20.5467 42.28 19.48C42.7707 18.3067 43.144 17.1653 43.4 16.056C43.656 14.9467 43.784 13.9333 43.784 13.016C43.784 11.544 43.464 10.3493 42.824 9.432C42.184 8.49333 41.1813 8.024 39.816 8.024C39.7093 8.024 39.592 8.03467 39.464 8.056C39.336 8.056 39.1973 8.06667 39.048 8.088C38.536 8.216 38.1627 8.28 37.928 8.28C37.6507 8.28 37.512 8.216 37.512 8.088C37.512 7.91733 37.7253 7.72533 38.152 7.512C38.5787 7.29867 39.0267 7.23467 39.496 7.32C40.52 7.23467 41.48 7.46933 42.376 8.024C43.2933 8.55733 44.0293 9.368 44.584 10.456C45.1387 11.5227 45.416 12.824 45.416 14.36C45.416 15.1493 45.3307 16.0027 45.16 16.92C44.9893 17.8373 44.7013 18.7973 44.296 19.8C43.7627 21.144 43.016 22.392 42.056 23.544C41.096 24.696 40.0187 25.7093 38.824 26.584C37.6507 27.4587 36.4453 28.1307 35.208 28.6C33.992 29.0907 32.8507 29.336 31.784 29.336C30.568 29.336 29.544 28.952 28.712 28.184C27.9013 27.4373 27.496 26.2213 27.496 24.536C27.496 23.832 27.56 23.1173 27.688 22.392C27.816 21.6667 27.9653 21.0267 28.136 20.472C27.7733 21.0693 27.2933 21.816 26.696 22.712C26.0987 23.5867 25.416 24.504 24.648 25.464C23.9013 26.424 23.1227 27.32 22.312 28.152C21.5013 29.0053 20.6907 29.688 19.88 30.2C19.0693 30.7333 18.3013 31 17.576 31ZM42.9387 27.256C43.8347 25.4213 44.7628 23.5013 45.7228 21.496C46.7041 19.4693 47.7068 17.432 48.7308 15.384C49.7548 13.336 50.7681 11.384 51.7708 9.528C52.1334 8.888 52.4641 8.38667 52.7628 8.024C53.0828 7.66133 53.4988 7.48 54.0108 7.48C54.2028 7.48 54.4268 7.512 54.6828 7.576C54.9388 7.64 55.1841 7.65067 55.4188 7.608C55.1414 7.90667 54.7574 8.42933 54.2668 9.176C53.7974 9.92267 53.2641 10.8187 52.6667 11.864C52.0908 12.9093 51.4721 14.04 50.8108 15.256C50.1708 16.4507 49.5308 17.6667 48.8908 18.904C48.2721 20.12 47.6961 21.2613 47.1628 22.328C47.5894 21.7733 48.0268 21.2507 48.4748 20.76C48.9228 20.2693 49.3601 19.8427 49.7868 19.48C50.2561 19.0533 50.8428 18.6053 51.5468 18.136C52.2721 17.6667 52.9868 17.2613 53.6908 16.92C54.4161 16.5787 54.9921 16.408 55.4188 16.408C55.5681 16.408 55.6748 16.4187 55.7388 16.44C55.7388 16.44 55.6214 16.6533 55.3868 17.08C55.1521 17.5067 54.8534 18.0507 54.4908 18.712C54.1494 19.3733 53.7868 20.088 53.4028 20.856C53.0401 21.624 52.7201 22.36 52.4427 23.064C52.1654 23.7467 51.9841 24.312 51.8988 24.76C51.8348 25.1013 51.8028 25.3893 51.8028 25.624C51.8028 25.9653 51.8668 26.2 51.9948 26.328C52.1228 26.4347 52.2614 26.488 52.4108 26.488C52.7734 26.488 53.1681 26.264 53.5948 25.816C54.0214 25.368 54.4374 24.824 54.8428 24.184C55.2481 23.5227 55.6108 22.8827 55.9308 22.264C56.2721 21.6453 56.5281 21.1653 56.6988 20.824C56.8268 20.5893 56.9548 20.472 57.0828 20.472C57.2108 20.472 57.2748 20.5573 57.2748 20.728C57.2748 20.8133 57.2428 20.9413 57.1788 21.112C56.9014 21.6667 56.5814 22.296 56.2188 23C55.8774 23.6827 55.4828 24.344 55.0348 24.984C54.6081 25.6027 54.1281 26.1147 53.5948 26.52C53.0828 26.9253 52.5281 27.128 51.9308 27.128C51.5041 27.128 51.0668 26.9787 50.6188 26.68C50.1708 26.3813 49.9468 25.8373 49.9468 25.048C49.9468 24.8133 49.9681 24.568 50.0108 24.312C50.0534 24.0347 50.1281 23.7253 50.2348 23.384C50.3628 22.9573 50.5761 22.488 50.8748 21.976C51.1734 21.4427 51.5574 20.7813 52.0268 19.992C52.2401 19.6293 52.3468 19.3413 52.3468 19.128C52.3468 18.872 52.2188 18.744 51.9628 18.744C51.7494 18.744 51.4614 18.8507 51.0988 19.064C50.7361 19.2773 50.2774 19.6507 49.7228 20.184C49.1894 20.696 48.5281 21.4427 47.7388 22.424C46.9494 23.4053 46.1068 24.7813 45.2108 26.552C45.0614 26.8293 44.8908 26.9787 44.6988 27C44.5281 27 44.2934 27.0107 43.9947 27.032C43.8027 27.0533 43.6107 27.064 43.4187 27.064C43.2267 27.0853 43.0667 27.1493 42.9387 27.256ZM52.3782 37.208C51.2689 37.208 50.4796 36.984 50.0102 36.536C49.5409 36.1093 49.3062 35.5973 49.3062 35C49.3062 34.68 49.3489 34.4027 49.4342 34.168C49.5196 33.9333 49.6476 33.6347 49.8182 33.272C50.1169 32.6533 50.5329 32.12 51.0662 31.672C51.5996 31.224 52.1756 30.8613 52.7943 30.584C53.9036 30.072 55.1623 29.656 56.5703 29.336C57.9996 29.016 59.3649 28.664 60.6663 28.28C61.0716 27.576 61.4449 26.776 61.7863 25.88C62.1276 24.9627 62.4369 24.0773 62.7143 23.224C62.9916 22.3493 63.2156 21.6347 63.3863 21.08C63.1303 21.5493 62.7996 22.1253 62.3943 22.808C62.0103 23.4693 61.5729 24.12 61.0823 24.76C60.5916 25.4 60.0583 25.9333 59.4823 26.36C58.9276 26.7867 58.3409 27 57.7223 27C57.4876 27 57.1996 26.9467 56.8583 26.84C56.5383 26.7333 56.2503 26.5413 55.9943 26.264C55.7596 25.9653 55.6423 25.528 55.6423 24.952C55.6423 24.3973 55.7703 23.864 56.0263 23.352C56.3036 22.8187 56.5596 22.3067 56.7943 21.816C56.7303 21.816 56.6556 21.7947 56.5703 21.752C56.5063 21.7093 56.4743 21.6453 56.4743 21.56C56.4743 21.4747 56.4956 21.3893 56.5383 21.304C56.6236 21.1333 56.7196 20.952 56.8263 20.76C56.9329 20.568 57.0289 20.3653 57.1143 20.152C57.4343 19.4907 57.7543 18.8613 58.0743 18.264C58.3943 17.6453 58.6716 17.1013 58.9062 16.632C59.1409 16.1627 59.5463 15.928 60.1223 15.928H62.1063C61.9569 16.056 61.7649 16.2053 61.5303 16.376C61.3169 16.5253 61.1143 16.76 60.9223 17.08C60.3463 18.0613 59.8449 19.0107 59.4183 19.928C58.9916 20.824 58.5329 21.784 58.0423 22.808C57.8076 23.2987 57.6369 23.7467 57.5303 24.152C57.4236 24.5573 57.3703 24.9093 57.3703 25.208C57.3703 25.912 57.6049 26.264 58.0743 26.264C58.5863 26.264 59.2049 25.848 59.9303 25.016C60.5276 24.312 61.1249 23.48 61.7223 22.52C62.3409 21.5387 62.9276 20.536 63.4823 19.512C64.0583 18.4667 64.5596 17.5067 64.9863 16.632C65.2209 16.1627 65.6369 15.928 66.2343 15.928H67.9943C67.3756 16.3547 66.8956 16.9093 66.5543 17.592C66.2343 18.2747 65.8716 19.1493 65.4663 20.216C65.0183 21.3893 64.5916 22.6053 64.1863 23.864C63.8023 25.1013 63.3649 26.3493 62.8743 27.608C63.5783 27.3733 64.3676 27.0107 65.2423 26.52C66.1383 26.0293 66.8956 25.3253 67.5143 24.408C68.0049 23.6827 68.4209 22.9893 68.7623 22.328C69.1249 21.6453 69.3809 21.1547 69.5303 20.856C69.6156 20.6427 69.7329 20.536 69.8823 20.536C70.0316 20.536 70.1063 20.632 70.1063 20.824C70.1063 20.9307 70.0743 21.048 70.0103 21.176C69.4556 22.2853 68.9543 23.224 68.5063 23.992C68.0796 24.7387 67.5996 25.3893 67.0663 25.944C66.5543 26.4773 65.9249 26.9467 65.1783 27.352C64.4316 27.7787 63.4823 28.2053 62.3303 28.632C61.8183 29.5493 61.2316 30.4987 60.5703 31.48C59.9303 32.4827 59.1943 33.4107 58.3623 34.264C57.5516 35.1387 56.6449 35.8427 55.6423 36.376C54.6609 36.9307 53.5729 37.208 52.3782 37.208ZM51.6102 36.568C52.3142 36.568 53.0396 36.3547 53.7862 35.928C54.5329 35.5013 55.2582 34.9573 55.9622 34.296C56.6662 33.656 57.3063 32.9947 57.8823 32.312C58.4796 31.6507 58.9596 31.064 59.3223 30.552C59.4289 30.4027 59.5463 30.2107 59.6743 29.976C59.8023 29.7413 59.9303 29.5173 60.0583 29.304C59.0129 29.5813 57.8609 29.88 56.6023 30.2C55.3649 30.5413 54.2876 30.9147 53.3702 31.32C52.3462 31.7467 51.5462 32.3547 50.9702 33.144C50.3729 33.9333 50.0742 34.6373 50.0742 35.256C50.0742 35.64 50.2022 35.9493 50.4582 36.184C50.6929 36.44 51.0769 36.568 51.6102 36.568ZM88.3505 30.296C87.5612 30.296 86.7505 30.2107 85.9185 30.04C85.1078 29.8693 84.2972 29.6133 83.4865 29.272C82.1638 28.696 81.0972 27.9387 80.2865 27C79.4758 26.0827 78.8892 25.0373 78.5265 23.864C78.1638 22.6907 77.9825 21.464 77.9825 20.184C77.9825 18.84 78.1425 17.496 78.4625 16.152C78.8038 14.808 79.2732 13.528 79.8705 12.312C80.4678 11.0747 81.1398 9.976 81.8865 9.016C81.7372 8.46133 81.6092 7.82133 81.5025 7.096C81.4172 6.37067 81.3745 5.63467 81.3745 4.888C81.3745 3.75733 81.5025 2.68 81.7585 1.656C81.8438 1.35733 81.9932 1.208 82.2065 1.208C82.3558 1.208 82.4305 1.31466 82.4305 1.528C82.4305 1.656 82.4198 1.752 82.3985 1.816C82.3558 2.136 82.3132 2.46667 82.2705 2.808C82.2492 3.14933 82.2385 3.50133 82.2385 3.864C82.2385 4.58933 82.2812 5.304 82.3665 6.008C82.4518 6.712 82.5478 7.36267 82.6545 7.96C84.2118 5.93333 85.9932 4.42933 87.9985 3.448C90.0252 2.44533 92.1478 1.944 94.3665 1.944C94.9425 1.944 95.4972 1.976 96.0305 2.04C97.7372 2.232 99.1345 2.65867 100.223 3.32C101.311 3.96 102.111 4.74933 102.623 5.688C103.156 6.62667 103.423 7.61867 103.423 8.664C103.423 9.688 103.188 10.7013 102.719 11.704C102.249 12.7067 101.567 13.624 100.671 14.456C99.7745 15.2667 98.6758 15.928 97.3745 16.44C96.0945 16.9307 94.6438 17.176 93.0225 17.176C92.6598 17.176 92.2972 17.1653 91.9345 17.144C91.5718 17.1227 91.1772 17.08 90.7505 17.016C89.0652 16.76 87.5292 16.216 86.1425 15.384C84.7558 14.552 83.6358 13.272 82.7825 11.544C82.6118 11.7573 82.3772 12.1947 82.0785 12.856C81.7798 13.496 81.4812 14.2747 81.1825 15.192C80.8838 16.1093 80.6278 17.112 80.4145 18.2C80.2012 19.2667 80.0945 20.344 80.0945 21.432C80.0945 22.4773 80.2332 23.4907 80.5105 24.472C80.7878 25.432 81.2678 26.2747 81.9505 27C82.6332 27.7467 83.5612 28.3013 84.7345 28.664C85.3105 28.8347 85.9078 28.9627 86.5265 29.048C87.1452 29.1333 87.7745 29.176 88.4145 29.176C89.6518 29.176 90.8785 29.016 92.0945 28.696C93.3105 28.376 94.4412 27.9067 95.4865 27.288C96.8732 26.4773 97.9398 25.5387 98.6865 24.472C99.4332 23.384 100.127 22.168 100.767 20.824C100.852 20.6107 100.969 20.504 101.119 20.504C101.225 20.504 101.279 20.5787 101.279 20.728C101.279 20.8347 101.236 20.9627 101.151 21.112C100.703 22.0507 100.255 22.9147 99.8065 23.704C99.3585 24.472 98.8358 25.1867 98.2385 25.848C97.6412 26.5093 96.8838 27.16 95.9665 27.8C94.9212 28.5253 93.7478 29.1227 92.4465 29.592C91.1452 30.0613 89.7798 30.296 88.3505 30.296ZM92.8305 16.344C94.3025 16.344 95.6038 16.1307 96.7345 15.704C97.8652 15.256 98.8145 14.68 99.5825 13.976C100.372 13.2507 100.959 12.4507 101.343 11.576C101.748 10.7013 101.951 9.816 101.951 8.92C101.951 8.04533 101.748 7.21333 101.343 6.424C100.937 5.63467 100.319 4.96267 99.4865 4.408C98.6758 3.832 97.6305 3.45867 96.3505 3.288C95.8812 3.224 95.4118 3.192 94.9425 3.192C93.4918 3.192 92.0625 3.50133 90.6545 4.12C89.2678 4.71733 87.9558 5.57067 86.7185 6.68C85.4812 7.768 84.3825 9.048 83.4225 10.52C84.1692 12.376 85.2145 13.7413 86.5585 14.616C87.9238 15.4907 89.4812 16.0347 91.2305 16.248C91.7852 16.312 92.3185 16.344 92.8305 16.344ZM97.6262 27.256C98.5222 25.4213 99.4503 23.5013 100.41 21.496C101.392 19.4693 102.394 17.432 103.418 15.384C104.442 13.336 105.456 11.384 106.458 9.528C106.821 8.888 107.152 8.38667 107.45 8.024C107.77 7.66133 108.186 7.48 108.698 7.48C108.89 7.48 109.114 7.512 109.37 7.576C109.626 7.64 109.872 7.65067 110.106 7.608C109.829 7.90667 109.445 8.42933 108.954 9.176C108.485 9.92267 107.952 10.8187 107.354 11.864C106.778 12.9093 106.16 14.04 105.498 15.256C104.858 16.4507 104.218 17.6667 103.578 18.904C102.96 20.12 102.384 21.2613 101.85 22.328C102.277 21.7733 102.714 21.2507 103.162 20.76C103.61 20.2693 104.048 19.8427 104.474 19.48C104.944 19.0533 105.53 18.6053 106.234 18.136C106.96 17.6667 107.674 17.2613 108.378 16.92C109.104 16.5787 109.68 16.408 110.106 16.408C110.256 16.408 110.362 16.4187 110.426 16.44C110.426 16.44 110.309 16.6533 110.074 17.08C109.84 17.5067 109.541 18.0507 109.178 18.712C108.837 19.3733 108.474 20.088 108.09 20.856C107.728 21.624 107.408 22.36 107.13 23.064C106.853 23.7467 106.672 24.312 106.586 24.76C106.522 25.1013 106.49 25.3893 106.49 25.624C106.49 25.9653 106.554 26.2 106.682 26.328C106.81 26.4347 106.949 26.488 107.098 26.488C107.461 26.488 107.856 26.264 108.282 25.816C108.709 25.368 109.125 24.824 109.53 24.184C109.936 23.5227 110.298 22.8827 110.618 22.264C110.96 21.6453 111.216 21.1653 111.386 20.824C111.514 20.5893 111.642 20.472 111.77 20.472C111.898 20.472 111.962 20.5573 111.962 20.728C111.962 20.8133 111.93 20.9413 111.866 21.112C111.589 21.6667 111.269 22.296 110.906 23C110.565 23.6827 110.17 24.344 109.722 24.984C109.296 25.6027 108.816 26.1147 108.282 26.52C107.77 26.9253 107.216 27.128 106.618 27.128C106.192 27.128 105.754 26.9787 105.306 26.68C104.858 26.3813 104.634 25.8373 104.634 25.048C104.634 24.8133 104.656 24.568 104.698 24.312C104.741 24.0347 104.816 23.7253 104.922 23.384C105.05 22.9573 105.264 22.488 105.562 21.976C105.861 21.4427 106.245 20.7813 106.714 19.992C106.928 19.6293 107.034 19.3413 107.034 19.128C107.034 18.872 106.906 18.744 106.65 18.744C106.437 18.744 106.149 18.8507 105.786 19.064C105.424 19.2773 104.965 19.6507 104.41 20.184C103.877 20.696 103.216 21.4427 102.426 22.424C101.637 23.4053 100.794 24.7813 99.8983 26.552C99.7489 26.8293 99.5783 26.9787 99.3863 27C99.2156 27 98.9809 27.0107 98.6822 27.032C98.4902 27.0533 98.2982 27.064 98.1062 27.064C97.9142 27.0853 97.7542 27.1493 97.6262 27.256ZM112.922 27C112.111 27 111.514 26.7333 111.13 26.2C110.746 25.6453 110.554 24.9733 110.554 24.184C110.554 23.224 110.778 22.2213 111.226 21.176C111.652 20.1947 112.196 19.2987 112.858 18.488C113.519 17.6773 114.234 17.0267 115.002 16.536C115.77 16.024 116.516 15.768 117.242 15.768C118.052 15.768 118.65 16.0347 119.034 16.568C119.418 17.1013 119.61 17.7733 119.61 18.584C119.61 19.5653 119.386 20.568 118.938 21.592C118.682 22.168 118.319 22.808 117.85 23.512C117.38 24.1947 116.847 24.824 116.25 25.4C116.378 25.6347 116.559 25.8373 116.794 26.008C117.028 26.1573 117.348 26.232 117.754 26.232C118.266 26.232 118.746 26.0187 119.194 25.592C119.663 25.1653 120.09 24.6533 120.474 24.056C120.858 23.4373 121.199 22.8187 121.498 22.2C121.796 21.5813 122.042 21.08 122.234 20.696C122.298 20.568 122.404 20.504 122.554 20.504C122.639 20.504 122.703 20.5467 122.746 20.632C122.788 20.696 122.778 20.8027 122.714 20.952C122.586 21.272 122.372 21.752 122.074 22.392C121.775 23.0107 121.412 23.6613 120.986 24.344C120.559 25.0053 120.068 25.5707 119.514 26.04C118.959 26.5093 118.34 26.744 117.658 26.744C117.188 26.744 116.783 26.6693 116.442 26.52C116.1 26.3493 115.823 26.1467 115.61 25.912C115.162 26.2533 114.714 26.52 114.266 26.712C113.818 26.904 113.37 27 112.922 27ZM113.402 26.296C113.978 26.296 114.596 26.0187 115.258 25.464C115.087 25.208 114.959 24.9413 114.874 24.664C114.788 24.3867 114.746 24.1307 114.746 23.896C114.746 23.512 114.831 23.1813 115.002 22.904C115.194 22.6267 115.482 22.488 115.866 22.488C116.143 22.488 116.367 22.5947 116.538 22.808C116.73 23 116.826 23.224 116.826 23.48C116.826 23.544 116.815 23.608 116.794 23.672C116.794 23.7147 116.783 23.768 116.762 23.832C117.124 23.3413 117.466 22.7653 117.786 22.104C118.49 20.5893 118.842 19.3413 118.842 18.36C118.842 17.8693 118.746 17.4853 118.554 17.208C118.362 16.9307 118.074 16.792 117.69 16.792C117.242 16.792 116.751 16.984 116.218 17.368C115.706 17.752 115.204 18.264 114.714 18.904C114.244 19.544 113.828 20.2587 113.466 21.048C113.124 21.7733 112.847 22.4773 112.634 23.16C112.442 23.8213 112.346 24.3973 112.346 24.888C112.346 25.3147 112.431 25.656 112.602 25.912C112.772 26.168 113.039 26.296 113.402 26.296ZM123.641 27C122.83 27 122.232 26.7333 121.849 26.2C121.465 25.6453 121.273 24.9733 121.273 24.184C121.273 23.224 121.497 22.2213 121.945 21.176C122.371 20.1947 122.915 19.2987 123.577 18.488C124.238 17.6773 124.953 17.0267 125.721 16.536C126.489 16.024 127.235 15.768 127.961 15.768C128.771 15.768 129.369 16.0347 129.753 16.568C130.137 17.1013 130.329 17.7733 130.329 18.584C130.329 19.5653 130.105 20.568 129.657 21.592C129.401 22.168 129.038 22.808 128.569 23.512C128.099 24.1947 127.566 24.824 126.969 25.4C127.097 25.6347 127.278 25.8373 127.513 26.008C127.747 26.1573 128.067 26.232 128.473 26.232C128.985 26.232 129.465 26.0187 129.913 25.592C130.382 25.1653 130.809 24.6533 131.193 24.056C131.577 23.4373 131.918 22.8187 132.217 22.2C132.515 21.5813 132.761 21.08 132.953 20.696C133.017 20.568 133.123 20.504 133.273 20.504C133.358 20.504 133.422 20.5467 133.465 20.632C133.507 20.696 133.497 20.8027 133.433 20.952C133.305 21.272 133.091 21.752 132.793 22.392C132.494 23.0107 132.131 23.6613 131.705 24.344C131.278 25.0053 130.787 25.5707 130.233 26.04C129.678 26.5093 129.059 26.744 128.377 26.744C127.907 26.744 127.502 26.6693 127.161 26.52C126.819 26.3493 126.542 26.1467 126.329 25.912C125.881 26.2533 125.433 26.52 124.985 26.712C124.537 26.904 124.089 27 123.641 27ZM124.121 26.296C124.697 26.296 125.315 26.0187 125.977 25.464C125.806 25.208 125.678 24.9413 125.593 24.664C125.507 24.3867 125.465 24.1307 125.465 23.896C125.465 23.512 125.55 23.1813 125.721 22.904C125.913 22.6267 126.201 22.488 126.585 22.488C126.862 22.488 127.086 22.5947 127.257 22.808C127.449 23 127.545 23.224 127.545 23.48C127.545 23.544 127.534 23.608 127.513 23.672C127.513 23.7147 127.502 23.768 127.481 23.832C127.843 23.3413 128.185 22.7653 128.505 22.104C129.209 20.5893 129.561 19.3413 129.561 18.36C129.561 17.8693 129.465 17.4853 129.273 17.208C129.081 16.9307 128.793 16.792 128.409 16.792C127.961 16.792 127.47 16.984 126.937 17.368C126.425 17.752 125.923 18.264 125.433 18.904C124.963 19.544 124.547 20.2587 124.185 21.048C123.843 21.7733 123.566 22.4773 123.353 23.16C123.161 23.8213 123.065 24.3973 123.065 24.888C123.065 25.3147 123.15 25.656 123.321 25.912C123.491 26.168 123.758 26.296 124.121 26.296ZM133.559 27.128C132.514 27.128 131.767 26.8613 131.319 26.328C130.893 25.7733 130.679 25.1973 130.679 24.6C130.679 24.1093 130.797 23.6613 131.031 23.256C131.287 22.8507 131.586 22.6373 131.927 22.616C132.354 21.784 132.813 20.8773 133.303 19.896C133.815 18.9147 134.285 17.9653 134.711 17.048C135.01 16.4293 135.383 15.832 135.831 15.256C136.301 14.68 136.813 14.3493 137.367 14.264H137.687C137.858 14.264 138.007 14.2747 138.135 14.296C138.285 14.3173 138.434 14.36 138.583 14.424C138.818 14.5307 138.935 14.6907 138.935 14.904C138.935 15.032 138.861 15.096 138.711 15.096C138.647 15.096 138.562 15.064 138.455 15C138.199 14.8933 137.975 14.84 137.783 14.84C137.655 14.84 137.538 14.872 137.431 14.936C137.026 15.1493 136.738 15.448 136.567 15.832C136.418 16.216 136.343 16.6213 136.343 17.048C136.343 17.3893 136.375 17.7413 136.439 18.104C136.525 18.4453 136.621 18.7547 136.727 19.032C136.962 19.6293 137.207 20.216 137.463 20.792C137.741 21.368 137.879 21.9867 137.879 22.648C137.879 23.288 137.666 23.9707 137.239 24.696C136.813 25.4 136.269 25.9653 135.607 26.392L135.831 26.424C135.938 26.4453 136.013 26.456 136.055 26.456C136.098 26.456 136.13 26.456 136.151 26.456C136.642 26.456 137.101 26.3173 137.527 26.04C137.975 25.7413 138.37 25.3787 138.711 24.952C139.053 24.5253 139.437 23.928 139.863 23.16C140.311 22.392 140.738 21.5813 141.143 20.728C141.207 20.6213 141.282 20.568 141.367 20.568C141.474 20.568 141.549 20.6107 141.591 20.696C141.655 20.76 141.666 20.8453 141.623 20.952C141.346 21.5493 141.026 22.2 140.663 22.904C140.322 23.5867 139.927 24.248 139.479 24.888C139.031 25.5067 138.509 26.0187 137.911 26.424C137.335 26.808 136.685 27 135.959 27C135.789 27 135.607 26.9893 135.415 26.968C135.223 26.9467 135.031 26.904 134.839 26.84C134.626 26.9253 134.402 26.9893 134.167 27.032C133.954 27.096 133.751 27.128 133.559 27.128ZM134.519 26.168C134.882 25.8693 135.202 25.432 135.479 24.856C135.778 24.28 135.927 23.5227 135.927 22.584C135.927 21.752 135.842 20.8667 135.671 19.928C135.501 18.9893 135.415 18.1573 135.415 17.432C135.415 17.2827 135.415 17.1547 135.415 17.048C135.437 16.92 135.458 16.8027 135.479 16.696C135.202 17.272 134.882 17.944 134.519 18.712C134.157 19.4587 133.794 20.184 133.431 20.888C133.069 21.592 132.759 22.1893 132.503 22.68C132.503 22.68 132.557 22.6907 132.663 22.712C132.791 22.712 132.909 22.7867 133.015 22.936C133.122 23.064 133.165 23.3307 133.143 23.736C133.122 24.2693 133.239 24.7707 133.495 25.24C133.773 25.688 134.114 25.9973 134.519 26.168ZM133.303 26.616C133.431 26.616 133.549 26.6053 133.655 26.584C133.762 26.5413 133.858 26.5093 133.943 26.488C133.623 26.2533 133.335 25.944 133.079 25.56C132.845 25.1547 132.706 24.6427 132.663 24.024C132.279 24.4293 132.087 24.8667 132.087 25.336C132.087 25.6773 132.194 25.976 132.407 26.232C132.621 26.488 132.919 26.616 133.303 26.616ZM143.314 27.128C142.525 27.128 141.81 26.872 141.17 26.36C140.551 25.848 140.242 25.0693 140.242 24.024C140.242 23.064 140.477 22.04 140.946 20.952C141.415 19.8427 142.013 18.872 142.738 18.04C143.357 17.3147 144.05 16.7173 144.818 16.248C145.586 15.7787 146.311 15.544 146.994 15.544C147.463 15.544 147.869 15.672 148.21 15.928C148.573 16.2053 148.754 16.6 148.754 17.112C148.754 17.6453 148.551 18.232 148.146 18.872C147.741 19.512 147.165 20.1093 146.418 20.664C146.098 20.8987 145.693 21.1227 145.202 21.336C144.711 21.5493 144.221 21.7307 143.73 21.88C143.239 22.008 142.834 22.072 142.514 22.072C142.407 22.328 142.301 22.6693 142.194 23.096C142.109 23.5227 142.066 23.96 142.066 24.408C142.066 24.9413 142.173 25.4213 142.386 25.848C142.599 26.2747 142.994 26.488 143.57 26.488C144.274 26.488 144.914 26.2853 145.49 25.88C146.066 25.4747 146.578 24.9733 147.026 24.376C147.474 23.7573 147.847 23.1387 148.146 22.52C148.466 21.9013 148.722 21.3787 148.914 20.952C149.042 20.6533 149.213 20.504 149.426 20.504C149.533 20.504 149.586 20.5573 149.586 20.664C149.586 20.7493 149.554 20.856 149.49 20.984C149.191 21.624 148.871 22.3067 148.53 23.032C148.189 23.736 147.783 24.408 147.314 25.048C146.845 25.6667 146.279 26.168 145.618 26.552C144.978 26.936 144.21 27.128 143.314 27.128ZM142.738 21.496C143.037 21.496 143.538 21.3893 144.242 21.176C144.946 20.9413 145.586 20.5787 146.162 20.088C146.717 19.5973 147.143 19.064 147.442 18.488C147.741 17.8907 147.89 17.3893 147.89 16.984C147.89 16.5147 147.719 16.28 147.378 16.28C147.122 16.28 146.77 16.4507 146.322 16.792C145.874 17.1333 145.319 17.7093 144.658 18.52C144.253 19.032 143.869 19.5867 143.506 20.184C143.143 20.7813 142.887 21.2187 142.738 21.496ZM158.316 27C158.081 27 157.793 26.9467 157.452 26.84C157.132 26.7333 156.844 26.5413 156.588 26.264C156.353 25.9653 156.236 25.528 156.236 24.952C156.236 24.3973 156.364 23.864 156.62 23.352C156.897 22.8187 157.153 22.3067 157.388 21.816C157.324 21.816 157.249 21.7947 157.164 21.752C157.1 21.7093 157.068 21.6453 157.068 21.56C157.068 21.4747 157.089 21.3893 157.132 21.304C157.217 21.1333 157.313 20.952 157.42 20.76C157.527 20.568 157.623 20.3653 157.708 20.152C158.028 19.4907 158.348 18.8613 158.668 18.264C158.988 17.6453 159.265 17.1013 159.5 16.632C159.735 16.1627 160.14 15.928 160.716 15.928H162.7C162.337 16.2053 162.007 16.5147 161.708 16.856C161.431 17.176 161.079 17.7733 160.652 18.648C160.652 18.648 160.577 18.7973 160.428 19.096C160.279 19.3947 160.087 19.7787 159.852 20.248C159.639 20.696 159.415 21.1547 159.18 21.624C158.967 22.0933 158.785 22.488 158.636 22.808C158.359 23.4053 158.177 23.8853 158.092 24.248C158.007 24.5893 157.964 24.9093 157.964 25.208C157.964 25.912 158.199 26.264 158.668 26.264C159.18 26.264 159.799 25.848 160.524 25.016C161.121 24.312 161.708 23.4693 162.284 22.488C162.86 21.5067 163.404 20.4933 163.916 19.448C164.449 18.4027 164.919 17.464 165.324 16.632C165.559 16.1627 165.975 15.928 166.572 15.928H168.332C168.012 16.184 167.745 16.4293 167.532 16.664C167.319 16.8773 167.105 17.176 166.892 17.56C166.7 17.9227 166.433 18.4453 166.092 19.128C165.815 19.704 165.516 20.3227 165.196 20.984C164.897 21.624 164.631 22.232 164.396 22.808C164.161 23.384 164.012 23.8533 163.948 24.216C163.927 24.4293 163.905 24.5893 163.884 24.696C163.863 24.8027 163.852 24.92 163.852 25.048C163.852 25.4533 163.916 25.7413 164.044 25.912C164.193 26.0827 164.364 26.168 164.556 26.168C165.068 26.168 165.58 25.88 166.092 25.304C166.625 24.728 167.127 24.024 167.596 23.192C168.087 22.36 168.503 21.5707 168.844 20.824C168.972 20.5893 169.089 20.472 169.196 20.472C169.324 20.472 169.388 20.5467 169.388 20.696C169.388 20.8027 169.345 20.9307 169.26 21.08C169.025 21.592 168.737 22.1787 168.396 22.84C168.055 23.5013 167.671 24.152 167.244 24.792C166.817 25.432 166.348 25.9653 165.836 26.392C165.324 26.7973 164.769 27 164.172 27C163.639 27 163.201 26.808 162.86 26.424C162.519 26.0187 162.348 25.4533 162.348 24.728C162.348 24.152 162.455 23.5333 162.668 22.872C162.305 23.512 161.889 24.152 161.42 24.792C160.951 25.432 160.449 25.9653 159.916 26.392C159.383 26.7973 158.849 27 158.316 27ZM169.497 27.128C168.451 27.128 167.705 26.8613 167.257 26.328C166.83 25.7733 166.617 25.1973 166.617 24.6C166.617 24.1093 166.734 23.6613 166.969 23.256C167.225 22.8507 167.523 22.6373 167.865 22.616C168.291 21.784 168.75 20.8773 169.241 19.896C169.753 18.9147 170.222 17.9653 170.649 17.048C170.947 16.4293 171.321 15.832 171.769 15.256C172.238 14.68 172.75 14.3493 173.305 14.264H173.625C173.795 14.264 173.945 14.2747 174.073 14.296C174.222 14.3173 174.371 14.36 174.521 14.424C174.755 14.5307 174.873 14.6907 174.873 14.904C174.873 15.032 174.798 15.096 174.649 15.096C174.585 15.096 174.499 15.064 174.393 15C174.137 14.8933 173.913 14.84 173.721 14.84C173.593 14.84 173.475 14.872 173.369 14.936C172.963 15.1493 172.675 15.448 172.505 15.832C172.355 16.216 172.281 16.6213 172.281 17.048C172.281 17.3893 172.313 17.7413 172.377 18.104C172.462 18.4453 172.558 18.7547 172.665 19.032C172.899 19.6293 173.145 20.216 173.401 20.792C173.678 21.368 173.817 21.9867 173.817 22.648C173.817 23.288 173.603 23.9707 173.177 24.696C172.75 25.4 172.206 25.9653 171.545 26.392L171.769 26.424C171.875 26.4453 171.95 26.456 171.993 26.456C172.035 26.456 172.067 26.456 172.089 26.456C172.579 26.456 173.038 26.3173 173.465 26.04C173.913 25.7413 174.307 25.3787 174.649 24.952C174.99 24.5253 175.374 23.928 175.801 23.16C176.249 22.392 176.675 21.5813 177.081 20.728C177.145 20.6213 177.219 20.568 177.305 20.568C177.411 20.568 177.486 20.6107 177.529 20.696C177.593 20.76 177.603 20.8453 177.561 20.952C177.283 21.5493 176.963 22.2 176.601 22.904C176.259 23.5867 175.865 24.248 175.417 24.888C174.969 25.5067 174.446 26.0187 173.849 26.424C173.273 26.808 172.622 27 171.897 27C171.726 27 171.545 26.9893 171.353 26.968C171.161 26.9467 170.969 26.904 170.777 26.84C170.563 26.9253 170.339 26.9893 170.105 27.032C169.891 27.096 169.689 27.128 169.497 27.128ZM170.457 26.168C170.819 25.8693 171.139 25.432 171.417 24.856C171.715 24.28 171.865 23.5227 171.865 22.584C171.865 21.752 171.779 20.8667 171.609 19.928C171.438 18.9893 171.353 18.1573 171.353 17.432C171.353 17.2827 171.353 17.1547 171.353 17.048C171.374 16.92 171.395 16.8027 171.417 16.696C171.139 17.272 170.819 17.944 170.457 18.712C170.094 19.4587 169.731 20.184 169.369 20.888C169.006 21.592 168.697 22.1893 168.441 22.68C168.441 22.68 168.494 22.6907 168.601 22.712C168.729 22.712 168.846 22.7867 168.953 22.936C169.059 23.064 169.102 23.3307 169.081 23.736C169.059 24.2693 169.177 24.7707 169.433 25.24C169.71 25.688 170.051 25.9973 170.457 26.168ZM169.241 26.616C169.369 26.616 169.486 26.6053 169.593 26.584C169.699 26.5413 169.795 26.5093 169.881 26.488C169.561 26.2533 169.273 25.944 169.017 25.56C168.782 25.1547 168.643 24.6427 168.601 24.024C168.217 24.4293 168.025 24.8667 168.025 25.336C168.025 25.6773 168.131 25.976 168.345 26.232C168.558 26.488 168.857 26.616 169.241 26.616Z" fill="#FF9F0D"/>
</svg>
