<svg width="61" height="38" viewBox="0 0 61 38" fill="none" xmlns="http://www.w3.org/2000/svg">
<path d="M10.872 29.424C8.93067 29.424 7.20267 29.0293 5.688 28.24C4.19467 27.472 3.02133 26.3307 2.168 24.816C1.336 23.28 0.92 21.4027 0.92 19.184C0.92 17.8613 1.09067 16.5387 1.432 15.216C1.77333 13.8933 2.232 12.624 2.808 11.408C3.40533 10.192 4.06667 9.072 4.792 8.048C4.472 6.768 4.312 5.38133 4.312 3.888C4.312 2.75733 4.44 1.68 4.696 0.655998C4.78133 0.357332 4.93067 0.207998 5.144 0.207998C5.31467 0.207998 5.38933 0.314665 5.368 0.527998C5.304 0.954666 5.25067 1.41333 5.208 1.904C5.16533 2.37333 5.144 2.93867 5.144 3.6C5.144 4.83733 5.26133 6.01067 5.496 7.12C5.70933 6.84267 5.92267 6.58667 6.136 6.352C7.01067 5.392 8.04533 4.496 9.24 3.664C10.4347 2.81067 11.7573 2.128 13.208 1.616C14.68 1.104 16.2373 0.848 17.88 0.848C19.416 0.848 20.824 1.136 22.104 1.712C23.384 2.26667 24.408 3.07733 25.176 4.144C25.9653 5.18933 26.36 6.45867 26.36 7.952C26.36 8.89067 26.104 9.85067 25.592 10.832C25.1013 11.8133 24.3867 12.72 23.448 13.552C22.5307 14.3627 21.4107 15.024 20.088 15.536C18.7867 16.048 17.3253 16.304 15.704 16.304C13.5707 16.304 11.6187 15.8347 9.848 14.896C8.07733 13.9573 6.70133 12.528 5.72 10.608C4.86667 12.1227 4.23733 13.6587 3.832 15.216C3.42667 16.7733 3.224 18.256 3.224 19.664C3.224 21.712 3.56533 23.376 4.248 24.656C4.93067 25.936 5.86933 26.8747 7.064 27.472C8.28 28.0907 9.66667 28.4 11.224 28.4C13.9973 28.4 16.4293 27.696 18.52 26.288C20.632 24.9013 22.3707 22.7467 23.736 19.824C23.992 19.824 24.12 19.92 24.12 20.112C22.7973 23.2693 20.984 25.6053 18.68 27.12C16.3973 28.656 13.7947 29.424 10.872 29.424ZM7.096 8.464C6.81867 8.848 6.552 9.24267 6.296 9.648C7.04267 11.3973 8.184 12.8053 9.72 13.872C11.256 14.9387 13.1867 15.472 15.512 15.472C16.984 15.472 18.296 15.248 19.448 14.8C20.6213 14.352 21.6027 13.7547 22.392 13.008C23.2027 12.2613 23.8213 11.44 24.248 10.544C24.6747 9.62667 24.888 8.70933 24.888 7.792C24.888 6.66133 24.5787 5.66933 23.96 4.816C23.3627 3.96267 22.5413 3.30133 21.496 2.832C20.4507 2.34133 19.2667 2.096 17.944 2.096C16.6213 2.096 15.288 2.37333 13.944 2.928C12.6213 3.48267 11.3627 4.24 10.168 5.2C8.99467 6.16 7.97067 7.248 7.096 8.464ZM23.0965 26.256C23.9925 24.4213 24.9205 22.5013 25.8805 20.496C26.8618 18.4693 27.8645 16.432 28.8885 14.384C29.9125 12.336 30.9258 10.384 31.9285 8.528C32.2912 7.888 32.6218 7.38667 32.9205 7.024C33.2405 6.66133 33.6565 6.48 34.1685 6.48C34.3605 6.48 34.5845 6.512 34.8405 6.576C35.0965 6.64 35.3418 6.65067 35.5765 6.608C35.2992 6.90667 34.9152 7.42933 34.4245 8.176C33.9552 8.92267 33.4218 9.81867 32.8245 10.864C32.2485 11.9093 31.6298 13.04 30.9685 14.256C30.3285 15.4507 29.6885 16.6667 29.0485 17.904C28.4298 19.12 27.8538 20.2613 27.3205 21.328C27.7472 20.7733 28.1845 20.2507 28.6325 19.76C29.0805 19.2693 29.5178 18.8427 29.9445 18.48C30.4138 18.0533 31.0005 17.6053 31.7045 17.136C32.4298 16.6667 33.1445 16.2613 33.8485 15.92C34.5738 15.5787 35.1498 15.408 35.5765 15.408C35.7258 15.408 35.8325 15.4187 35.8965 15.44C35.8965 15.44 35.7792 15.6533 35.5445 16.08C35.3098 16.5067 35.0112 17.0507 34.6485 17.712C34.3072 18.3733 33.9445 19.088 33.5605 19.856C33.1978 20.624 32.8778 21.36 32.6005 22.064C32.3232 22.7467 32.1418 23.312 32.0565 23.76C31.9925 24.1013 31.9605 24.3893 31.9605 24.624C31.9605 24.9653 32.0245 25.2 32.1525 25.328C32.2805 25.4347 32.4192 25.488 32.5685 25.488C32.9312 25.488 33.3152 25.3067 33.7205 24.944C34.1472 24.56 34.5632 24.08 34.9685 23.504C35.3738 22.928 35.7472 22.32 36.0885 21.68C36.4512 21.0187 36.7392 20.4 36.9525 19.824C37.2085 19.824 37.3365 19.92 37.3365 20.112C37.1018 20.688 36.8032 21.328 36.4405 22.032C36.0992 22.7147 35.7045 23.3653 35.2565 23.984C34.8085 24.6027 34.3178 25.1147 33.7845 25.52C33.2512 25.9253 32.6858 26.128 32.0885 26.128C31.6618 26.128 31.2245 25.9787 30.7765 25.68C30.3285 25.3813 30.1045 24.8373 30.1045 24.048C30.1045 23.8133 30.1258 23.568 30.1685 23.312C30.2112 23.0347 30.2858 22.7253 30.3925 22.384C30.5205 21.9573 30.7338 21.488 31.0325 20.976C31.3312 20.4427 31.7152 19.7813 32.1845 18.992C32.3978 18.6293 32.5045 18.3413 32.5045 18.128C32.5045 17.872 32.3765 17.744 32.1205 17.744C31.9072 17.744 31.6192 17.8507 31.2565 18.064C30.8938 18.2773 30.4352 18.6507 29.8805 19.184C29.3472 19.696 28.6858 20.4427 27.8965 21.424C27.1072 22.4053 26.2645 23.7813 25.3685 25.552C25.2192 25.8293 25.0485 25.9787 24.8565 26C24.6858 26 24.4512 26.0107 24.1525 26.032C23.9605 26.0533 23.7685 26.064 23.5765 26.064C23.3845 26.0853 23.2245 26.1493 23.0965 26.256ZM39.2545 26.128C38.4652 26.128 37.7505 25.872 37.1105 25.36C36.4918 24.848 36.1825 24.0693 36.1825 23.024C36.1825 22.1493 36.3745 21.2213 36.7585 20.24C37.1638 19.2587 37.6865 18.3413 38.3265 17.488C38.9878 16.6133 39.7132 15.9093 40.5025 15.376C41.3132 14.8213 42.1238 14.544 42.9345 14.544C43.3398 14.544 43.7345 14.6613 44.1185 14.896C44.5025 15.1307 44.6945 15.536 44.6945 16.112C44.6945 16.6453 44.4918 17.232 44.0865 17.872C43.6812 18.512 43.1052 19.1093 42.3585 19.664C42.0385 19.8987 41.6332 20.1227 41.1425 20.336C40.6518 20.5493 40.1612 20.7307 39.6705 20.88C39.1798 21.008 38.7745 21.072 38.4545 21.072C38.3478 21.328 38.2412 21.6693 38.1345 22.096C38.0492 22.5227 38.0065 22.96 38.0065 23.408C38.0065 23.9413 38.1132 24.4213 38.3265 24.848C38.5398 25.2747 38.9345 25.488 39.5105 25.488C40.2145 25.488 40.8652 25.2853 41.4625 24.88C42.0812 24.4747 42.6252 23.9627 43.0945 23.344C43.5852 22.7253 44.0012 22.096 44.3425 21.456C44.6838 20.816 44.9505 20.272 45.1425 19.824C45.3985 19.824 45.5265 19.92 45.5265 20.112C45.2492 20.7093 44.9292 21.36 44.5665 22.064C44.2252 22.768 43.8092 23.4293 43.3185 24.048C42.8492 24.6453 42.2732 25.1467 41.5905 25.552C40.9292 25.936 40.1505 26.128 39.2545 26.128ZM38.6785 20.496C38.9772 20.496 39.4785 20.3893 40.1825 20.176C40.8865 19.9413 41.5265 19.5787 42.1025 19.088C42.6572 18.5973 43.0838 18.064 43.3825 17.488C43.6812 16.8907 43.8305 16.3893 43.8305 15.984C43.8305 15.5147 43.6598 15.28 43.3185 15.28C43.0625 15.28 42.7105 15.4507 42.2625 15.792C41.8145 16.1333 41.2598 16.7093 40.5985 17.52C40.1932 18.032 39.8092 18.5867 39.4465 19.184C39.0838 19.7813 38.8278 20.2187 38.6785 20.496ZM41.17 37.232C40.7007 37.232 40.2953 37.1147 39.954 36.88C39.5913 36.6453 39.41 36.1867 39.41 35.504C39.41 34.4373 39.73 32.9867 40.37 31.152C41.01 29.3173 41.7887 27.3013 42.706 25.104C42.45 24.6773 42.322 24.2293 42.322 23.76C42.322 23.0133 42.5353 22.5013 42.962 22.224C43.3247 21.9253 43.7087 21.808 44.114 21.872C44.882 20.144 45.6607 18.448 46.45 16.784C47.2393 15.0987 47.9967 13.5093 48.722 12.016C49.4687 10.5227 50.1407 9.21067 50.738 8.08C51.1007 7.376 51.474 6.832 51.858 6.448C52.2633 6.064 52.786 5.872 53.426 5.872C53.618 5.872 53.842 5.91467 54.098 6C54.3753 6.064 54.6207 6.08533 54.834 6.064C54.3433 6.53333 53.7247 7.32267 52.978 8.432C52.2527 9.52 51.4633 10.8213 50.61 12.336C49.7567 13.8507 48.882 15.4933 47.986 17.264C47.1113 19.0133 46.2687 20.7947 45.458 22.608C45.7993 23.0347 46.034 23.4613 46.162 23.888C46.29 24.3147 46.4287 24.8267 46.578 25.424C47.218 25.4667 47.826 25.2 48.402 24.624C48.9993 24.048 49.5433 23.3227 50.034 22.448C50.546 21.5733 50.9833 20.6987 51.346 19.824C51.602 19.824 51.73 19.92 51.73 20.112C51.3673 21.008 50.93 21.9147 50.418 22.832C49.9273 23.7493 49.362 24.528 48.722 25.168C48.1033 25.7867 47.41 26.1173 46.642 26.16V26.992C46.642 28.1013 46.5033 29.2533 46.226 30.448C45.97 31.6427 45.5967 32.752 45.106 33.776C44.6153 34.8 44.0393 35.632 43.378 36.272C42.7167 36.912 41.9807 37.232 41.17 37.232ZM45.714 25.552H45.874C45.8527 25.1253 45.7673 24.7093 45.618 24.304C45.4687 23.8773 45.298 23.5573 45.106 23.344L44.434 24.976C44.626 25.36 45.0527 25.552 45.714 25.552ZM41.65 36.368C41.8633 36.368 42.1193 36.24 42.418 35.984C42.7167 35.7493 43.0047 35.44 43.282 35.056C43.8153 34.352 44.2847 33.488 44.69 32.464C45.0953 31.44 45.4153 30.3733 45.65 29.264C45.8847 28.1547 45.9913 27.1307 45.97 26.192C45.5647 26.192 45.1913 26.1387 44.85 26.032C44.53 25.9253 44.274 25.7973 44.082 25.648C43.5273 27.0773 43.0153 28.4853 42.546 29.872C42.0553 31.28 41.682 32.5173 41.426 33.584C41.3407 33.9893 41.2767 34.3413 41.234 34.64C41.1913 34.9387 41.17 35.1947 41.17 35.408C41.17 36.048 41.33 36.368 41.65 36.368ZM52.0288 26.128C51.1541 26.128 50.4394 25.8613 49.8848 25.328C49.3514 24.7733 49.0847 24.1973 49.0847 23.6C49.0847 23.1093 49.2127 22.6613 49.4688 22.256C49.7034 21.8293 50.0234 21.616 50.4288 21.616L50.4608 21.552C50.9301 20.6987 51.3781 19.8347 51.8048 18.96C52.2528 18.064 52.7434 17.1147 53.2768 16.112C53.7248 15.28 54.2048 14.5973 54.7168 14.064C55.2501 13.5307 55.8688 13.264 56.5728 13.264C56.7434 13.264 56.9781 13.3067 57.2768 13.392C57.5754 13.456 57.7248 13.6053 57.7248 13.84C57.7248 14.0107 57.6288 14.096 57.4368 14.096C57.2874 14.096 57.1168 14.0533 56.9248 13.968C56.7541 13.8827 56.6154 13.84 56.5088 13.84C56.1034 13.84 55.7621 14.0747 55.4848 14.544C55.2074 15.0133 55.0688 15.5147 55.0688 16.048C55.0688 16.624 55.1648 17.1467 55.3568 17.616C55.5488 18.064 55.7728 18.5013 56.0288 18.928C56.2848 19.3547 56.5088 19.792 56.7008 20.24C56.8928 20.6667 56.9888 21.136 56.9888 21.648C56.9888 22.672 56.7861 23.504 56.3808 24.144C55.9968 24.7627 55.4848 25.232 54.8448 25.552H54.8768C56.0074 25.552 56.9354 25.0293 57.6608 23.984C58.4074 22.9173 59.1434 21.5307 59.8688 19.824C60.1248 19.824 60.2528 19.92 60.2528 20.112C59.8474 21.072 59.3994 22.0107 58.9088 22.928C58.4181 23.8453 57.8421 24.6027 57.1808 25.2C56.5194 25.7973 55.7088 26.096 54.7488 26.096C54.3434 26.096 53.9701 26.0533 53.6288 25.968C53.1381 26.0747 52.6048 26.128 52.0288 26.128ZM51.5488 22.736C51.5488 23.248 51.6661 23.7387 51.9008 24.208C52.1354 24.6773 52.5621 25.0293 53.1808 25.264C53.7354 24.944 54.1621 24.4533 54.4608 23.792C54.7808 23.1093 54.9408 22.4053 54.9408 21.68C54.9408 21.0827 54.8768 20.4747 54.7488 19.856C54.6208 19.2373 54.4821 18.6293 54.3328 18.032C54.2048 17.4347 54.1408 16.9013 54.1408 16.432C54.1408 16.2827 54.1408 16.1547 54.1408 16.048C54.1621 15.92 54.1834 15.8027 54.2048 15.696C53.8208 16.272 53.4261 16.944 53.0208 17.712C52.6368 18.48 52.2634 19.216 51.9008 19.92C51.5381 20.624 51.2074 21.2 50.9088 21.648C51.3354 21.712 51.5488 22.0747 51.5488 22.736ZM50.4928 24.336C50.4928 24.6773 50.6101 24.976 50.8448 25.232C51.0794 25.488 51.4314 25.616 51.9008 25.616C52.1141 25.616 52.3168 25.5947 52.5088 25.552C52.0608 25.2747 51.6981 24.9227 51.4208 24.496C51.1648 24.0693 51.0368 23.5787 51.0368 23.024C50.8448 23.2373 50.7061 23.4613 50.6208 23.696C50.5354 23.9093 50.4928 24.1227 50.4928 24.336Z" fill="#FF9F0D"/>
</svg>
