<svg width="146" height="35" viewBox="0 0 146 35" fill="none" xmlns="http://www.w3.org/2000/svg">
<path d="M11.288 29.296C10.4987 29.296 9.688 29.2107 8.856 29.04C8.04533 28.8693 7.23467 28.6133 6.424 28.272C5.10133 27.696 4.03467 26.9387 3.224 26C2.41333 25.0827 1.82667 24.0373 1.464 22.864C1.10133 21.6907 0.92 20.464 0.92 19.184C0.92 17.84 1.08 16.496 1.4 15.152C1.74133 13.808 2.21067 12.528 2.808 11.312C3.40533 10.0747 4.07733 8.976 4.824 8.016C4.67467 7.46133 4.54667 6.82133 4.44 6.096C4.35467 5.37067 4.312 4.63467 4.312 3.888C4.312 2.75733 4.44 1.68 4.696 0.655998C4.78133 0.357332 4.93067 0.207998 5.144 0.207998C5.29333 0.207998 5.368 0.314665 5.368 0.527998C5.368 0.655999 5.35733 0.751999 5.336 0.815998C5.29333 1.136 5.25067 1.46667 5.208 1.808C5.18667 2.14933 5.176 2.50133 5.176 2.864C5.176 3.58933 5.21867 4.304 5.304 5.008C5.38933 5.712 5.48533 6.36267 5.592 6.96C7.14933 4.93333 8.93067 3.42933 10.936 2.448C12.9627 1.44533 15.0853 0.943998 17.304 0.943998C17.88 0.943998 18.4347 0.975999 18.968 1.04C20.6747 1.232 22.072 1.65867 23.16 2.32C24.248 2.96 25.048 3.74933 25.56 4.688C26.0933 5.62667 26.36 6.61867 26.36 7.664C26.36 8.688 26.1253 9.70133 25.656 10.704C25.1867 11.7067 24.504 12.624 23.608 13.456C22.712 14.2667 21.6133 14.928 20.312 15.44C19.032 15.9307 17.5813 16.176 15.96 16.176C15.5973 16.176 15.2347 16.1653 14.872 16.144C14.5093 16.1227 14.1147 16.08 13.688 16.016C12.0027 15.76 10.4667 15.216 9.08 14.384C7.69333 13.552 6.57333 12.272 5.72 10.544C5.54933 10.7573 5.31467 11.1947 5.016 11.856C4.71733 12.496 4.41867 13.2747 4.12 14.192C3.82133 15.1093 3.56533 16.112 3.352 17.2C3.13867 18.2667 3.032 19.344 3.032 20.432C3.032 21.4773 3.17067 22.4907 3.448 23.472C3.72533 24.432 4.20533 25.2747 4.888 26C5.57067 26.7467 6.49867 27.3013 7.672 27.664C8.248 27.8347 8.84533 27.9627 9.464 28.048C10.0827 28.1333 10.712 28.176 11.352 28.176C12.5893 28.176 13.816 28.016 15.032 27.696C16.248 27.376 17.3787 26.9067 18.424 26.288C19.8107 25.4773 20.8773 24.5387 21.624 23.472C22.3707 22.384 23.064 21.168 23.704 19.824C23.7893 19.6107 23.9067 19.504 24.056 19.504C24.1627 19.504 24.216 19.5787 24.216 19.728C24.216 19.8347 24.1733 19.9627 24.088 20.112C23.64 21.0507 23.192 21.9147 22.744 22.704C22.296 23.472 21.7733 24.1867 21.176 24.848C20.5787 25.5093 19.8213 26.16 18.904 26.8C17.8587 27.5253 16.6853 28.1227 15.384 28.592C14.0827 29.0613 12.7173 29.296 11.288 29.296ZM15.768 15.344C17.24 15.344 18.5413 15.1307 19.672 14.704C20.8027 14.256 21.752 13.68 22.52 12.976C23.3093 12.2507 23.896 11.4507 24.28 10.576C24.6853 9.70133 24.888 8.816 24.888 7.92C24.888 7.04533 24.6853 6.21333 24.28 5.424C23.8747 4.63467 23.256 3.96267 22.424 3.408C21.6133 2.832 20.568 2.45867 19.288 2.288C18.8187 2.224 18.3493 2.192 17.88 2.192C16.4293 2.192 15 2.50133 13.592 3.12C12.2053 3.71733 10.8933 4.57067 9.656 5.68C8.41867 6.768 7.32 8.048 6.36 9.52C7.10667 11.376 8.152 12.7413 9.496 13.616C10.8613 14.4907 12.4187 15.0347 14.168 15.248C14.7227 15.312 15.256 15.344 15.768 15.344ZM20.5637 26.256C21.4597 24.4213 22.3878 22.5013 23.3478 20.496C24.3291 18.4693 25.3318 16.432 26.3558 14.384C27.3798 12.336 28.3931 10.384 29.3958 8.528C29.7584 7.888 30.0891 7.38667 30.3878 7.024C30.7078 6.66133 31.1238 6.48 31.6358 6.48C31.8278 6.48 32.0518 6.512 32.3078 6.576C32.5638 6.64 32.8091 6.65067 33.0438 6.608C32.7664 6.90667 32.3824 7.42933 31.8918 8.176C31.4224 8.92267 30.8891 9.81867 30.2917 10.864C29.7158 11.9093 29.0971 13.04 28.4358 14.256C27.7958 15.4507 27.1558 16.6667 26.5158 17.904C25.8971 19.12 25.3211 20.2613 24.7878 21.328C25.2144 20.7733 25.6518 20.2507 26.0998 19.76C26.5478 19.2693 26.9851 18.8427 27.4118 18.48C27.8811 18.0533 28.4678 17.6053 29.1718 17.136C29.8971 16.6667 30.6118 16.2613 31.3158 15.92C32.0411 15.5787 32.6171 15.408 33.0438 15.408C33.1931 15.408 33.2998 15.4187 33.3638 15.44C33.3638 15.44 33.2464 15.6533 33.0118 16.08C32.7771 16.5067 32.4784 17.0507 32.1158 17.712C31.7744 18.3733 31.4118 19.088 31.0278 19.856C30.6651 20.624 30.3451 21.36 30.0677 22.064C29.7904 22.7467 29.6091 23.312 29.5238 23.76C29.4598 24.1013 29.4278 24.3893 29.4278 24.624C29.4278 24.9653 29.4918 25.2 29.6198 25.328C29.7478 25.4347 29.8864 25.488 30.0358 25.488C30.3984 25.488 30.7931 25.264 31.2198 24.816C31.6464 24.368 32.0624 23.824 32.4678 23.184C32.8731 22.5227 33.2358 21.8827 33.5558 21.264C33.8971 20.6453 34.1531 20.1653 34.3238 19.824C34.4518 19.5893 34.5798 19.472 34.7078 19.472C34.8358 19.472 34.8998 19.5573 34.8998 19.728C34.8998 19.8133 34.8678 19.9413 34.8038 20.112C34.5264 20.6667 34.2064 21.296 33.8438 22C33.5024 22.6827 33.1078 23.344 32.6598 23.984C32.2331 24.6027 31.7531 25.1147 31.2198 25.52C30.7078 25.9253 30.1531 26.128 29.5558 26.128C29.1291 26.128 28.6918 25.9787 28.2438 25.68C27.7958 25.3813 27.5718 24.8373 27.5718 24.048C27.5718 23.8133 27.5931 23.568 27.6358 23.312C27.6784 23.0347 27.7531 22.7253 27.8598 22.384C27.9878 21.9573 28.2011 21.488 28.4998 20.976C28.7984 20.4427 29.1824 19.7813 29.6518 18.992C29.8651 18.6293 29.9718 18.3413 29.9718 18.128C29.9718 17.872 29.8438 17.744 29.5878 17.744C29.3744 17.744 29.0864 17.8507 28.7238 18.064C28.3611 18.2773 27.9024 18.6507 27.3478 19.184C26.8144 19.696 26.1531 20.4427 25.3638 21.424C24.5744 22.4053 23.7318 23.7813 22.8358 25.552C22.6864 25.8293 22.5158 25.9787 22.3238 26C22.1531 26 21.9184 26.0107 21.6197 26.032C21.4277 26.0533 21.2357 26.064 21.0437 26.064C20.8517 26.0853 20.6917 26.1493 20.5637 26.256ZM35.8593 26C35.0486 26 34.4512 25.7333 34.0673 25.2C33.6833 24.6453 33.4913 23.9733 33.4913 23.184C33.4913 22.224 33.7153 21.2213 34.1633 20.176C34.5899 19.1947 35.1339 18.2987 35.7953 17.488C36.4566 16.6773 37.1713 16.0267 37.9393 15.536C38.7073 15.024 39.4539 14.768 40.1793 14.768C40.9899 14.768 41.5873 15.0347 41.9713 15.568C42.3553 16.1013 42.5473 16.7733 42.5473 17.584C42.5473 18.5653 42.3233 19.568 41.8753 20.592C41.6193 21.168 41.2566 21.808 40.7873 22.512C40.3179 23.1947 39.7846 23.824 39.1873 24.4C39.3153 24.6347 39.4966 24.8373 39.7313 25.008C39.9659 25.1573 40.2859 25.232 40.6913 25.232C41.2033 25.232 41.6833 25.0187 42.1313 24.592C42.6006 24.1653 43.0273 23.6533 43.4113 23.056C43.7953 22.4373 44.1366 21.8187 44.4353 21.2C44.7339 20.5813 44.9793 20.08 45.1713 19.696C45.2353 19.568 45.3419 19.504 45.4913 19.504C45.5766 19.504 45.6406 19.5467 45.6833 19.632C45.7259 19.696 45.7153 19.8027 45.6513 19.952C45.5233 20.272 45.3099 20.752 45.0113 21.392C44.7126 22.0107 44.3499 22.6613 43.9233 23.344C43.4966 24.0053 43.0059 24.5707 42.4513 25.04C41.8966 25.5093 41.2779 25.744 40.5953 25.744C40.1259 25.744 39.7206 25.6693 39.3793 25.52C39.0379 25.3493 38.7606 25.1467 38.5473 24.912C38.0993 25.2533 37.6513 25.52 37.2033 25.712C36.7553 25.904 36.3073 26 35.8593 26ZM36.3393 25.296C36.9153 25.296 37.5339 25.0187 38.1953 24.464C38.0246 24.208 37.8966 23.9413 37.8113 23.664C37.7259 23.3867 37.6833 23.1307 37.6833 22.896C37.6833 22.512 37.7686 22.1813 37.9393 21.904C38.1313 21.6267 38.4193 21.488 38.8033 21.488C39.0806 21.488 39.3046 21.5947 39.4753 21.808C39.6673 22 39.7633 22.224 39.7633 22.48C39.7633 22.544 39.7526 22.608 39.7313 22.672C39.7313 22.7147 39.7206 22.768 39.6993 22.832C40.0619 22.3413 40.4033 21.7653 40.7233 21.104C41.4273 19.5893 41.7793 18.3413 41.7793 17.36C41.7793 16.8693 41.6833 16.4853 41.4913 16.208C41.2993 15.9307 41.0113 15.792 40.6273 15.792C40.1793 15.792 39.6886 15.984 39.1553 16.368C38.6433 16.752 38.1419 17.264 37.6513 17.904C37.1819 18.544 36.7659 19.2587 36.4033 20.048C36.0619 20.7733 35.7846 21.4773 35.5713 22.16C35.3793 22.8213 35.2833 23.3973 35.2833 23.888C35.2833 24.3147 35.3686 24.656 35.5393 24.912C35.7099 25.168 35.9766 25.296 36.3393 25.296ZM46.578 26C45.7673 26 45.17 25.7333 44.786 25.2C44.402 24.6453 44.21 23.9733 44.21 23.184C44.21 22.224 44.434 21.2213 44.882 20.176C45.3087 19.1947 45.8527 18.2987 46.514 17.488C47.1753 16.6773 47.89 16.0267 48.658 15.536C49.426 15.024 50.1727 14.768 50.898 14.768C51.7087 14.768 52.306 15.0347 52.69 15.568C53.074 16.1013 53.266 16.7733 53.266 17.584C53.266 18.5653 53.042 19.568 52.594 20.592C52.338 21.168 51.9753 21.808 51.506 22.512C51.0367 23.1947 50.5033 23.824 49.906 24.4C50.034 24.6347 50.2153 24.8373 50.45 25.008C50.6847 25.1573 51.0047 25.232 51.41 25.232C51.922 25.232 52.402 25.0187 52.85 24.592C53.3193 24.1653 53.746 23.6533 54.13 23.056C54.514 22.4373 54.8553 21.8187 55.154 21.2C55.4527 20.5813 55.698 20.08 55.89 19.696C55.954 19.568 56.0607 19.504 56.21 19.504C56.2953 19.504 56.3593 19.5467 56.402 19.632C56.4447 19.696 56.434 19.8027 56.37 19.952C56.242 20.272 56.0287 20.752 55.73 21.392C55.4313 22.0107 55.0687 22.6613 54.642 23.344C54.2153 24.0053 53.7247 24.5707 53.17 25.04C52.6153 25.5093 51.9967 25.744 51.314 25.744C50.8447 25.744 50.4393 25.6693 50.098 25.52C49.7567 25.3493 49.4793 25.1467 49.266 24.912C48.818 25.2533 48.37 25.52 47.922 25.712C47.474 25.904 47.026 26 46.578 26ZM47.058 25.296C47.634 25.296 48.2527 25.0187 48.914 24.464C48.7433 24.208 48.6153 23.9413 48.53 23.664C48.4447 23.3867 48.402 23.1307 48.402 22.896C48.402 22.512 48.4873 22.1813 48.658 21.904C48.85 21.6267 49.138 21.488 49.522 21.488C49.7993 21.488 50.0233 21.5947 50.194 21.808C50.386 22 50.482 22.224 50.482 22.48C50.482 22.544 50.4713 22.608 50.45 22.672C50.45 22.7147 50.4393 22.768 50.418 22.832C50.7807 22.3413 51.122 21.7653 51.442 21.104C52.146 19.5893 52.498 18.3413 52.498 17.36C52.498 16.8693 52.402 16.4853 52.21 16.208C52.018 15.9307 51.73 15.792 51.346 15.792C50.898 15.792 50.4073 15.984 49.874 16.368C49.362 16.752 48.8607 17.264 48.37 17.904C47.9007 18.544 47.4847 19.2587 47.122 20.048C46.7807 20.7733 46.5033 21.4773 46.29 22.16C46.098 22.8213 46.002 23.3973 46.002 23.888C46.002 24.3147 46.0873 24.656 46.258 24.912C46.4287 25.168 46.6953 25.296 47.058 25.296ZM56.4968 26.128C55.4514 26.128 54.7048 25.8613 54.2568 25.328C53.8301 24.7733 53.6167 24.1973 53.6167 23.6C53.6167 23.1093 53.7341 22.6613 53.9688 22.256C54.2248 21.8507 54.5234 21.6373 54.8648 21.616C55.2914 20.784 55.7501 19.8773 56.2408 18.896C56.7528 17.9147 57.2221 16.9653 57.6488 16.048C57.9474 15.4293 58.3208 14.832 58.7688 14.256C59.2381 13.68 59.7501 13.3493 60.3048 13.264H60.6248C60.7954 13.264 60.9448 13.2747 61.0728 13.296C61.2221 13.3173 61.3714 13.36 61.5208 13.424C61.7554 13.5307 61.8728 13.6907 61.8728 13.904C61.8728 14.032 61.7981 14.096 61.6488 14.096C61.5848 14.096 61.4994 14.064 61.3928 14C61.1368 13.8933 60.9128 13.84 60.7208 13.84C60.5928 13.84 60.4754 13.872 60.3688 13.936C59.9634 14.1493 59.6754 14.448 59.5048 14.832C59.3554 15.216 59.2808 15.6213 59.2808 16.048C59.2808 16.3893 59.3128 16.7413 59.3768 17.104C59.4621 17.4453 59.5581 17.7547 59.6648 18.032C59.8994 18.6293 60.1448 19.216 60.4008 19.792C60.6781 20.368 60.8168 20.9867 60.8168 21.648C60.8168 22.288 60.6034 22.9707 60.1768 23.696C59.7501 24.4 59.2061 24.9653 58.5448 25.392L58.7688 25.424C58.8754 25.4453 58.9501 25.456 58.9928 25.456C59.0354 25.456 59.0674 25.456 59.0888 25.456C59.5794 25.456 60.0381 25.3173 60.4648 25.04C60.9128 24.7413 61.3074 24.3787 61.6488 23.952C61.9901 23.5253 62.3741 22.928 62.8008 22.16C63.2488 21.392 63.6754 20.5813 64.0808 19.728C64.1448 19.6213 64.2194 19.568 64.3048 19.568C64.4114 19.568 64.4861 19.6107 64.5288 19.696C64.5928 19.76 64.6034 19.8453 64.5608 19.952C64.2834 20.5493 63.9634 21.2 63.6008 21.904C63.2594 22.5867 62.8648 23.248 62.4167 23.888C61.9688 24.5067 61.4461 25.0187 60.8488 25.424C60.2728 25.808 59.6221 26 58.8968 26C58.7261 26 58.5448 25.9893 58.3528 25.968C58.1608 25.9467 57.9688 25.904 57.7768 25.84C57.5634 25.9253 57.3394 25.9893 57.1048 26.032C56.8914 26.096 56.6888 26.128 56.4968 26.128ZM57.4568 25.168C57.8194 24.8693 58.1394 24.432 58.4168 23.856C58.7154 23.28 58.8648 22.5227 58.8648 21.584C58.8648 20.752 58.7794 19.8667 58.6088 18.928C58.4381 17.9893 58.3528 17.1573 58.3528 16.432C58.3528 16.2827 58.3528 16.1547 58.3528 16.048C58.3741 15.92 58.3954 15.8027 58.4168 15.696C58.1394 16.272 57.8194 16.944 57.4568 17.712C57.0941 18.4587 56.7314 19.184 56.3688 19.888C56.0061 20.592 55.6968 21.1893 55.4408 21.68C55.4408 21.68 55.4941 21.6907 55.6008 21.712C55.7288 21.712 55.8461 21.7867 55.9528 21.936C56.0594 22.064 56.1021 22.3307 56.0807 22.736C56.0594 23.2693 56.1768 23.7707 56.4328 24.24C56.7101 24.688 57.0514 24.9973 57.4568 25.168ZM56.2408 25.616C56.3688 25.616 56.4861 25.6053 56.5928 25.584C56.6994 25.5413 56.7954 25.5093 56.8808 25.488C56.5608 25.2533 56.2728 24.944 56.0168 24.56C55.7821 24.1547 55.6434 23.6427 55.6008 23.024C55.2168 23.4293 55.0247 23.8667 55.0247 24.336C55.0247 24.6773 55.1314 24.976 55.3448 25.232C55.5581 25.488 55.8568 25.616 56.2408 25.616ZM66.2515 26.128C65.4622 26.128 64.7475 25.872 64.1075 25.36C63.4888 24.848 63.1795 24.0693 63.1795 23.024C63.1795 22.064 63.4142 21.04 63.8835 19.952C64.3528 18.8427 64.9502 17.872 65.6755 17.04C66.2942 16.3147 66.9875 15.7173 67.7555 15.248C68.5235 14.7787 69.2488 14.544 69.9315 14.544C70.4008 14.544 70.8062 14.672 71.1475 14.928C71.5102 15.2053 71.6915 15.6 71.6915 16.112C71.6915 16.6453 71.4888 17.232 71.0835 17.872C70.6782 18.512 70.1022 19.1093 69.3555 19.664C69.0355 19.8987 68.6302 20.1227 68.1395 20.336C67.6488 20.5493 67.1582 20.7307 66.6675 20.88C66.1768 21.008 65.7715 21.072 65.4515 21.072C65.3448 21.328 65.2382 21.6693 65.1315 22.096C65.0462 22.5227 65.0035 22.96 65.0035 23.408C65.0035 23.9413 65.1102 24.4213 65.3235 24.848C65.5368 25.2747 65.9315 25.488 66.5075 25.488C67.2115 25.488 67.8515 25.2853 68.4275 24.88C69.0035 24.4747 69.5155 23.9733 69.9635 23.376C70.4115 22.7573 70.7848 22.1387 71.0835 21.52C71.4035 20.9013 71.6595 20.3787 71.8515 19.952C71.9795 19.6533 72.1502 19.504 72.3635 19.504C72.4702 19.504 72.5235 19.5573 72.5235 19.664C72.5235 19.7493 72.4915 19.856 72.4275 19.984C72.1288 20.624 71.8088 21.3067 71.4675 22.032C71.1262 22.736 70.7208 23.408 70.2515 24.048C69.7822 24.6667 69.2168 25.168 68.5555 25.552C67.9155 25.936 67.1475 26.128 66.2515 26.128ZM65.6755 20.496C65.9742 20.496 66.4755 20.3893 67.1795 20.176C67.8835 19.9413 68.5235 19.5787 69.0995 19.088C69.6542 18.5973 70.0808 18.064 70.3795 17.488C70.6782 16.8907 70.8275 16.3893 70.8275 15.984C70.8275 15.5147 70.6568 15.28 70.3155 15.28C70.0595 15.28 69.7075 15.4507 69.2595 15.792C68.8115 16.1333 68.2568 16.7093 67.5955 17.52C67.1902 18.032 66.8062 18.5867 66.4435 19.184C66.0808 19.7813 65.8248 20.2187 65.6755 20.496ZM86.8535 27.44C85.0402 27.44 83.5362 27.152 82.3415 26.576C81.1468 26.0213 80.2508 25.2853 79.6535 24.368C79.0775 23.4293 78.7895 22.4373 78.7895 21.392C78.7895 20.2187 79.1415 19.056 79.8455 17.904C80.5495 16.7307 81.5948 15.728 82.9815 14.896C84.3895 14.0427 86.1068 13.5093 88.1335 13.296C87.8348 12.8907 87.6108 12.432 87.4615 11.92C87.3122 11.3867 87.2375 10.8853 87.2375 10.416C87.2588 9.28533 87.5788 8.29333 88.1975 7.44C88.8162 6.56533 89.6055 5.82933 90.5655 5.232C91.5468 4.63467 92.5922 4.18667 93.7015 3.888C94.8108 3.568 95.8562 3.408 96.8375 3.408C97.4348 3.408 98.0428 3.49333 98.6615 3.664C99.2802 3.81333 99.8028 4.09067 100.23 4.496C100.656 4.90133 100.87 5.47733 100.87 6.224C100.87 6.84267 100.678 7.39733 100.294 7.888C99.9095 8.37867 99.4402 8.624 98.8855 8.624C98.4802 8.624 98.1282 8.47467 97.8295 8.176C97.5308 7.87733 97.3815 7.536 97.3815 7.152C97.3815 6.704 97.5202 6.34133 97.7975 6.064C98.0962 5.76533 98.4588 5.616 98.8855 5.616C99.0775 5.616 99.2908 5.68 99.5255 5.808C99.7815 5.936 99.9415 6.064 100.006 6.192C100.027 6.10667 100.038 5.98933 100.038 5.84C100.038 5.264 99.8028 4.85867 99.3335 4.624C98.8642 4.38933 98.3628 4.272 97.8295 4.272C96.9762 4.272 95.9842 4.48533 94.8535 4.912C93.7228 5.31733 92.6242 5.98933 91.5575 6.928C91.1735 7.26933 90.7788 7.71733 90.3735 8.272C89.9682 8.82667 89.6268 9.424 89.3495 10.064C89.0722 10.6827 88.9335 11.312 88.9335 11.952C88.9335 12.4427 89.0188 12.8693 89.1895 13.232C89.5095 13.232 89.8722 13.2213 90.2775 13.2C90.7042 13.1573 91.1415 13.136 91.5895 13.136C92.1442 13.136 92.5815 13.2533 92.9015 13.488C93.2215 13.7227 93.3815 13.9893 93.3815 14.288C93.3815 14.5013 93.2535 14.704 92.9975 14.896C92.7415 15.088 92.3362 15.184 91.7815 15.184C91.0775 15.184 90.4375 15.0347 89.8615 14.736C89.3068 14.416 88.8695 14.096 88.5495 13.776C87.1415 13.968 85.9468 14.4907 84.9655 15.344C83.9842 16.1973 83.2375 17.2107 82.7255 18.384C82.2135 19.536 81.9575 20.688 81.9575 21.84C81.9575 22.7573 82.1282 23.6107 82.4695 24.4C82.8322 25.1893 83.3762 25.8187 84.1015 26.288C84.8268 26.7787 85.7442 27.024 86.8535 27.024C88.0055 27.024 89.0508 26.8107 89.9895 26.384C90.9495 25.9787 91.7708 25.4453 92.4535 24.784C93.1362 24.1227 93.6588 23.4293 94.0215 22.704C94.4055 21.9573 94.5975 21.264 94.5975 20.624C94.5975 20.0693 94.3948 19.6107 93.9895 19.248C93.6055 18.864 93.0935 18.5867 92.4535 18.416C91.8135 18.224 91.1308 18.128 90.4055 18.128C89.6588 18.128 88.9122 18.2347 88.1655 18.448C87.4402 18.64 86.8215 18.9493 86.3095 19.376C85.7975 19.7813 85.4882 20.304 85.3815 20.944C85.3815 20.9867 85.3708 21.04 85.3495 21.104C85.3495 21.1467 85.3495 21.1893 85.3495 21.232C85.3495 21.7013 85.5202 22.1707 85.8615 22.64C86.2242 23.088 86.7788 23.504 87.5255 23.888C87.7175 23.9733 87.8135 24.1333 87.8135 24.368C87.8135 24.6027 87.7068 24.6667 87.4935 24.56C86.3202 23.9413 85.4562 23.2693 84.9015 22.544C84.3682 21.7973 84.1015 21.0933 84.1015 20.432C84.1015 19.472 84.6135 18.6507 85.6375 17.968C86.6828 17.264 88.1655 16.912 90.0855 16.912H95.7495C96.0908 16.912 96.5922 16.8373 97.2535 16.688C97.9362 16.5387 98.6295 16.3253 99.3335 16.048C100.038 15.7493 100.635 15.408 101.126 15.024C101.638 14.6187 101.894 14.16 101.894 13.648C101.894 13.3707 101.798 13.072 101.606 12.752C101.563 12.688 101.542 12.6133 101.542 12.528C101.542 12.4 101.595 12.336 101.702 12.336C101.787 12.336 101.862 12.3893 101.926 12.496C102.246 12.9653 102.406 13.4453 102.406 13.936C102.406 14.512 102.192 15.0453 101.766 15.536C101.36 16.0267 100.806 16.464 100.102 16.848C99.3975 17.2107 98.6082 17.488 97.7335 17.68C96.8802 17.872 96.0055 17.9573 95.1095 17.936C95.5148 18.2773 95.8135 18.6613 96.0055 19.088C96.1975 19.5147 96.2935 19.9627 96.2935 20.432C96.2935 21.2213 96.0588 22.032 95.5895 22.864C95.1202 23.6747 94.4588 24.432 93.6055 25.136C92.7522 25.8187 91.7495 26.3733 90.5975 26.8C89.4668 27.2267 88.2188 27.44 86.8535 27.44ZM91.7815 14.64C92.4855 14.64 92.8375 14.5013 92.8375 14.224C92.8375 14.1173 92.7415 14.0107 92.5495 13.904C92.3788 13.776 92.1442 13.7013 91.8455 13.68C91.7175 13.6587 91.5042 13.648 91.2055 13.648C90.9068 13.648 90.5868 13.648 90.2455 13.648C89.9255 13.648 89.6588 13.648 89.4455 13.648C89.9788 14.3093 90.7575 14.64 91.7815 14.64ZM103.209 34.736C102.953 34.736 102.697 34.6933 102.441 34.608C102.164 34.544 101.887 34.5333 101.609 34.576C101.737 34.448 101.983 34.0747 102.345 33.456C102.708 32.8587 103.135 32.112 103.625 31.216C104.095 30.32 104.596 29.3493 105.129 28.304C105.663 27.2587 106.164 26.2347 106.633 25.232C107.103 24.208 107.497 23.28 107.817 22.448C108.159 21.5947 108.372 20.9227 108.457 20.432C108.265 20.7093 108.073 20.8693 107.881 20.912C107.711 20.9333 107.668 20.8693 107.753 20.72C107.796 20.6347 107.881 20.432 108.009 20.112C108.159 19.7707 108.287 19.4827 108.393 19.248C108.564 18.8213 108.703 18.352 108.809 17.84C108.937 17.328 109.001 16.8373 109.001 16.368C109.001 16.0693 108.969 15.8133 108.905 15.6C108.841 15.3867 108.724 15.2693 108.553 15.248C108.553 15.248 108.671 15.2267 108.905 15.184C109.14 15.1413 109.385 15.0987 109.641 15.056C109.897 15.0133 110.068 14.992 110.153 14.992C110.281 14.9707 110.399 14.96 110.505 14.96C110.612 14.9387 110.708 14.928 110.793 14.928C110.985 14.928 111.113 15.0027 111.177 15.152C111.263 15.28 111.305 15.5573 111.305 15.984C111.305 16.5173 111.209 17.2 111.017 18.032C110.847 18.8427 110.644 19.5573 110.409 20.176C110.644 19.792 110.943 19.3013 111.305 18.704C111.689 18.1067 112.127 17.4987 112.617 16.88C113.108 16.2613 113.62 15.7493 114.153 15.344C114.687 14.9173 115.209 14.704 115.721 14.704C115.828 14.704 115.967 14.7253 116.137 14.768C116.735 14.9173 117.151 15.216 117.385 15.664C117.641 16.0907 117.769 16.6027 117.769 17.2C117.769 17.84 117.641 18.544 117.385 19.312C117.151 20.08 116.831 20.8373 116.425 21.584C116.02 22.3093 115.572 22.9707 115.081 23.568C114.484 24.3147 113.769 24.912 112.937 25.36C112.105 25.808 111.252 26.032 110.377 26.032C109.588 26.032 108.852 25.8293 108.169 25.424L105.129 33.072C104.831 33.712 104.543 34.1493 104.265 34.384C103.988 34.6187 103.636 34.736 103.209 34.736ZM109.353 25.36C109.951 25.36 110.623 25.0827 111.369 24.528C112.116 23.9733 112.831 23.2693 113.513 22.416C114.217 21.5413 114.804 20.6667 115.273 19.792C115.593 19.1947 115.828 18.6507 115.977 18.16C116.127 17.648 116.201 17.2107 116.201 16.848C116.201 16.016 115.903 15.6 115.305 15.6C115.028 15.6 114.665 15.7493 114.217 16.048C113.791 16.3467 113.289 16.8907 112.713 17.68C112.095 18.5333 111.412 19.6107 110.665 20.912C109.94 22.192 109.193 23.5467 108.425 24.976C108.681 25.232 108.991 25.36 109.353 25.36ZM122.47 13.008C122.15 13.008 121.883 12.9013 121.67 12.688C121.478 12.4533 121.382 12.176 121.382 11.856C121.382 11.4507 121.542 11.0987 121.862 10.8C122.182 10.5013 122.534 10.352 122.918 10.352C123.259 10.352 123.536 10.4587 123.75 10.672C123.963 10.8853 124.07 11.1413 124.07 11.44C124.07 11.8453 123.91 12.208 123.59 12.528C123.27 12.848 122.896 13.008 122.47 13.008ZM119.878 26C119.088 26 118.534 25.776 118.214 25.328C117.894 24.8587 117.734 24.3253 117.734 23.728C117.734 23.408 117.766 23.088 117.83 22.768C117.915 22.4267 118.011 22.1173 118.118 21.84L120.262 16.368C120.326 16.1973 120.358 16.048 120.358 15.92C120.358 15.7067 120.304 15.5253 120.198 15.376C120.091 15.2053 120.016 15.088 119.974 15.024L121.734 14.96C122.054 14.9387 122.278 14.9813 122.406 15.088C122.555 15.1733 122.63 15.28 122.63 15.408C122.63 15.536 122.555 15.7707 122.406 16.112L119.75 22.352C119.75 22.352 119.686 22.4907 119.558 22.768C119.451 23.024 119.387 23.1947 119.366 23.28C119.302 23.6 119.259 23.8027 119.238 23.888C119.216 23.9733 119.206 24.0267 119.206 24.048C119.206 24.0693 119.206 24.1547 119.206 24.304C119.206 24.5813 119.27 24.816 119.398 25.008C119.547 25.2 119.792 25.296 120.134 25.296C120.347 25.296 120.592 25.232 120.87 25.104C121.147 24.976 121.35 24.848 121.478 24.72C122.011 24.1653 122.534 23.44 123.046 22.544C123.579 21.6267 124.07 20.72 124.518 19.824C124.603 19.6107 124.71 19.504 124.838 19.504C124.944 19.504 124.998 19.5787 124.998 19.728C124.998 19.8133 124.966 19.9413 124.902 20.112C124.688 20.56 124.422 21.1147 124.102 21.776C123.782 22.4373 123.398 23.0987 122.95 23.76C122.523 24.4 122.054 24.9333 121.542 25.36C121.03 25.7867 120.475 26 119.878 26ZM127.167 26.128C125.951 26.128 125.097 25.84 124.607 25.264C124.116 24.6667 123.871 23.9413 123.871 23.088C123.871 22.1493 124.084 21.1467 124.511 20.08C124.959 19.0133 125.481 18.0853 126.079 17.296C126.697 16.464 127.38 15.824 128.127 15.376C128.873 14.9067 129.631 14.672 130.399 14.672C131.209 14.672 131.807 14.8747 132.191 15.28C132.575 15.6853 132.724 16.2293 132.639 16.912C132.596 17.3387 132.393 17.7653 132.031 18.192C131.668 18.5973 131.305 18.8 130.943 18.8C130.772 18.8 130.623 18.736 130.495 18.608C130.665 18.3947 130.847 18.1387 131.039 17.84C131.231 17.5413 131.369 17.2533 131.455 16.976C131.54 16.72 131.583 16.464 131.583 16.208C131.583 15.6747 131.327 15.408 130.815 15.408C130.239 15.408 129.631 15.7067 128.991 16.304C128.372 16.88 127.828 17.5093 127.359 18.192C127.167 18.448 126.932 18.8533 126.655 19.408C126.399 19.9413 126.164 20.5387 125.951 21.2C125.737 21.84 125.631 22.4693 125.631 23.088C125.631 23.728 125.769 24.304 126.047 24.816C126.345 25.3067 126.836 25.552 127.519 25.552C128.457 25.552 129.257 25.264 129.919 24.688C130.601 24.0907 131.199 23.3547 131.711 22.48C132.244 21.6053 132.724 20.752 133.151 19.92C133.279 19.664 133.407 19.536 133.535 19.536C133.641 19.536 133.695 19.6213 133.695 19.792C133.695 19.8773 133.663 19.984 133.599 20.112C133.087 21.2213 132.564 22.2347 132.031 23.152C131.497 24.0693 130.847 24.7947 130.079 25.328C129.332 25.8613 128.361 26.128 127.167 26.128ZM138.647 26.224C138.071 26.16 137.548 25.8933 137.079 25.424C136.631 24.9333 136.321 24.2827 136.151 23.472C136.129 23.3227 136.108 23.1947 136.087 23.088C136.087 22.96 136.087 22.8213 136.087 22.672C136.087 21.8187 136.279 21.136 136.663 20.624C137.047 20.0907 137.399 19.8133 137.719 19.792C138.06 19.8133 138.476 19.7387 138.967 19.568C139.457 19.376 139.884 19.12 140.247 18.8C140.865 18.3093 141.175 17.808 141.175 17.296C141.175 16.7627 140.865 16.496 140.247 16.496C139.905 16.496 139.468 16.6133 138.935 16.848C138.423 17.0827 137.825 17.488 137.143 18.064C136.289 18.7893 135.404 19.76 134.487 20.976C134.359 21.2533 134.209 21.6693 134.039 22.224C133.868 22.7573 133.719 23.312 133.591 23.888C133.484 24.464 133.431 24.9547 133.431 25.36C133.431 25.68 133.484 25.8933 133.591 26H131.575C131.34 26 131.223 25.904 131.223 25.712C131.223 25.648 131.233 25.5947 131.255 25.552C131.276 25.5093 131.297 25.424 131.319 25.296C131.617 24.1867 132.012 23.1413 132.503 22.16C132.993 21.1787 133.484 20.144 133.975 19.056C133.228 20.4427 132.545 21.6693 131.927 22.736C131.329 23.7813 130.87 24.4533 130.55 24.752C130.508 24.7947 130.454 24.816 130.39 24.816C130.305 24.816 130.252 24.7627 130.23 24.656C130.188 24.5493 130.209 24.4427 130.294 24.336C130.742 23.7387 131.255 22.9173 131.831 21.872C132.428 20.8267 133.057 19.664 133.719 18.384C134.38 17.0827 135.052 15.7707 135.735 14.448C136.417 13.1253 137.079 11.8773 137.719 10.704C138.38 9.53067 138.977 8.53867 139.51 7.728C139.895 7.152 140.257 6.74667 140.599 6.512C140.94 6.256 141.292 6.128 141.655 6.128H141.815C142.007 6.128 142.22 6.16 142.455 6.224C142.711 6.288 142.945 6.29867 143.159 6.256C142.753 6.576 142.263 7.09867 141.687 7.824C141.111 8.54933 140.503 9.41333 139.863 10.416C139.223 11.4187 138.572 12.4853 137.911 13.616C137.271 14.7467 136.663 15.8667 136.087 16.976C135.873 17.4027 135.671 17.8507 135.479 18.32C135.287 18.7893 135.105 19.2587 134.935 19.728C135.383 19.1733 135.895 18.5973 136.471 18C137.047 17.4027 137.644 16.8587 138.263 16.368C138.903 15.856 139.532 15.4827 140.151 15.248C140.855 14.992 141.441 14.864 141.911 14.864C142.401 14.864 142.753 14.9813 142.967 15.216C143.201 15.4507 143.319 15.7493 143.319 16.112C143.319 16.5173 143.159 17.008 142.839 17.584C142.519 18.1387 142.081 18.6187 141.527 19.024C141.057 19.344 140.567 19.6213 140.055 19.856C139.543 20.0907 138.935 20.24 138.231 20.304C138.103 20.6027 138.007 20.912 137.943 21.232C137.9 21.5307 137.879 21.8293 137.879 22.128C137.879 22.96 138.071 23.696 138.455 24.336C138.839 24.9547 139.34 25.264 139.959 25.264C140.257 25.264 140.577 25.1787 140.919 25.008C141.281 24.8373 141.655 24.5493 142.039 24.144C142.465 23.7173 142.892 23.1093 143.319 22.32C143.767 21.5307 144.215 20.6667 144.663 19.728C144.748 19.5573 144.844 19.472 144.951 19.472C145.079 19.472 145.143 19.5573 145.143 19.728C145.143 19.8133 145.111 19.92 145.047 20.048C144.428 21.4773 143.831 22.6187 143.255 23.472C142.7 24.304 142.156 24.9333 141.623 25.36C141.111 25.7653 140.609 26.0213 140.119 26.128C139.628 26.2347 139.137 26.2667 138.647 26.224Z" fill="#FF9F0D"/>
</svg>
