<svg width="170" height="37" viewBox="0 0 170 37" fill="none" xmlns="http://www.w3.org/2000/svg">
<path d="M11.5365 30.192C9.46717 30.192 7.6325 29.7867 6.0325 28.976C4.4325 28.1867 3.17383 27.0987 2.2565 25.712C1.3605 24.304 0.9125 22.7147 0.9125 20.944C0.9125 19.8347 1.1045 18.6933 1.4885 17.52C1.70183 16.9013 2.01117 16.3573 2.4165 15.888C2.82183 15.4187 3.2485 15.0347 3.6965 14.736C4.1445 14.4373 4.5285 14.2453 4.8485 14.16C5.08317 14.096 5.2325 14.064 5.2965 14.064C5.44583 14.064 5.3925 14.1707 5.1365 14.384C4.90183 14.576 4.60317 14.7893 4.2405 15.024C3.83517 15.3013 3.36583 15.7173 2.8325 16.272C2.29917 16.8267 1.9365 17.648 1.7445 18.736C1.70183 18.992 1.66983 19.248 1.6485 19.504C1.62717 19.76 1.6165 20.0053 1.6165 20.24C1.6165 21.6267 1.92583 22.8533 2.5445 23.92C3.1845 24.9653 4.00583 25.84 5.0085 26.544C6.01117 27.248 7.09917 27.7813 8.2725 28.144C9.46717 28.5067 10.6085 28.688 11.6965 28.688C13.4245 28.688 15.0245 28.3467 16.4965 27.664C17.9685 27.0027 19.3125 26.0853 20.5285 24.912C21.7658 23.7387 22.8752 22.3947 23.8565 20.88C24.8378 19.344 25.7018 17.7227 26.4485 16.016C26.2778 16.016 26.0325 16.016 25.7125 16.016C25.3925 15.9947 25.0405 15.984 24.6565 15.984C24.0805 15.984 23.4512 16.0267 22.7685 16.112C22.1072 16.176 21.4778 16.336 20.8805 16.592C20.3045 16.8267 19.8352 17.2 19.4725 17.712C19.3445 17.8613 19.2272 17.936 19.1205 17.936C19.0352 17.936 18.9712 17.8827 18.9285 17.776C18.8858 17.6693 18.8965 17.552 18.9605 17.424C19.4725 16.2933 20.1765 15.5253 21.0725 15.12C21.9685 14.7147 22.9712 14.512 24.0805 14.512C24.5498 14.512 25.0192 14.544 25.4885 14.608C25.9792 14.6507 26.4592 14.7147 26.9285 14.8C27.3125 13.8827 27.7392 12.9653 28.2085 12.048C28.6778 11.1307 29.1365 10.2773 29.5845 9.488C30.0325 8.69867 30.4378 8.03733 30.8005 7.504C31.1632 6.94933 31.4192 6.58667 31.5685 6.416C30.2032 5.73333 28.7952 5.104 27.3445 4.528C25.8938 3.952 24.3792 3.55733 22.8005 3.344C22.4805 3.30133 22.1605 3.26933 21.8405 3.248C21.5205 3.22667 21.2112 3.216 20.9125 3.216C19.5045 3.216 18.2458 3.44 17.1365 3.888C16.0272 4.336 15.0885 4.912 14.3205 5.616C13.5525 6.29867 12.9658 7.03467 12.5605 7.824C12.1552 8.592 11.9525 9.31733 11.9525 10C11.9525 10.896 12.2725 11.536 12.9125 11.92C13.2965 12.1547 13.6805 12.3253 14.0645 12.432C14.4698 12.5387 14.8538 12.592 15.2165 12.592C16.0272 12.592 16.7632 12.4213 17.4245 12.08C18.0858 11.7387 18.6085 11.3653 18.9925 10.96C19.3978 10.5333 19.6005 10.2133 19.6005 10C19.6005 9.78667 19.6645 9.60533 19.7925 9.456C19.9205 9.28533 20.0272 9.2 20.1125 9.2C20.1978 9.2 20.2405 9.27467 20.2405 9.424C20.2405 9.53067 20.2085 9.68 20.1445 9.872C19.8245 10.9813 19.1738 11.8347 18.1925 12.432C17.2325 13.008 16.2192 13.296 15.1525 13.296C14.7045 13.296 14.2565 13.2427 13.8085 13.136C13.3818 13.0293 12.9765 12.8693 12.5925 12.656C11.8885 12.2507 11.3658 11.7387 11.0245 11.12C10.6832 10.48 10.5125 9.79733 10.5125 9.072C10.5125 8.24 10.7258 7.38667 11.1525 6.512C11.5792 5.616 12.1872 4.80533 12.9765 4.08C13.7872 3.33333 14.7578 2.736 15.8885 2.288C17.0192 1.81867 18.2992 1.584 19.7285 1.584C20.8165 1.584 22.0325 1.76533 23.3765 2.128C25.1472 2.59733 26.7792 3.184 28.2725 3.888C29.7658 4.57067 31.0032 5.22133 31.9845 5.84C32.1338 5.66933 32.3792 5.44533 32.7205 5.168C33.0618 4.89067 33.4992 4.752 34.0325 4.752C34.2245 4.752 34.4485 4.784 34.7045 4.848C34.8965 4.912 35.0352 5.01867 35.1205 5.168C35.2272 5.31733 35.2805 5.46667 35.2805 5.616C35.2805 5.808 35.2165 5.904 35.0885 5.904C35.0032 5.904 34.8752 5.808 34.7045 5.616C34.5552 5.552 34.3952 5.52 34.2245 5.52C33.9472 5.52 33.6805 5.59467 33.4245 5.744C33.1685 5.89333 32.9445 6.05333 32.7525 6.224C33.1365 6.416 33.6378 6.64 34.2565 6.896C34.8965 7.152 35.6005 7.408 36.3685 7.664C37.1365 7.92 37.9045 8.13333 38.6725 8.304C39.4618 8.45333 40.1872 8.528 40.8485 8.528C41.4032 8.528 41.9045 8.45333 42.3525 8.304C42.8005 8.15467 43.1205 7.87733 43.3125 7.472C43.4832 7.06667 43.6432 6.864 43.7925 6.864C43.8992 6.864 43.9525 6.98133 43.9525 7.216C43.9525 7.28 43.9525 7.344 43.9525 7.408C43.9525 7.472 43.9418 7.536 43.9205 7.6C43.8352 8.176 43.4832 8.66667 42.8645 9.072C42.2458 9.456 41.4992 9.648 40.6245 9.648C40.4965 9.648 40.3578 9.648 40.2085 9.648C40.0805 9.62667 39.9418 9.60533 39.7925 9.584C38.5552 9.37067 37.4032 9.06133 36.3365 8.656C35.2698 8.25067 34.3738 7.86667 33.6485 7.504C32.9445 7.14133 32.4858 6.91733 32.2725 6.832C31.5898 7.6 30.9818 8.496 30.4485 9.52C29.9152 10.544 29.4458 11.5573 29.0405 12.56C28.6565 13.5627 28.3045 14.416 27.9845 15.12C28.6458 15.2053 29.3605 15.2693 30.1285 15.312C30.9178 15.3333 31.6538 15.344 32.3365 15.344C32.6778 15.344 32.9872 15.344 33.2645 15.344C33.5632 15.3227 33.8192 15.312 34.0325 15.312H34.2245C34.6512 15.312 34.8645 15.3867 34.8645 15.536C34.8645 15.6853 34.6192 15.824 34.1285 15.952C33.8085 16.0373 33.2645 16.1013 32.4965 16.144C31.7498 16.1867 30.9712 16.208 30.1605 16.208C29.6698 16.208 29.2005 16.1973 28.7525 16.176C28.3045 16.1547 27.9205 16.1227 27.6005 16.08C27.1525 17.296 26.6405 18.5547 26.0645 19.856C25.4885 21.1573 24.7845 22.4267 23.9525 23.664C23.1418 24.88 22.1605 25.9787 21.0085 26.96C19.8778 27.9627 18.5338 28.752 16.9765 29.328C15.4192 29.904 13.6058 30.192 11.5365 30.192ZM36.328 26C35.5173 26 34.92 25.7333 34.536 25.2C34.152 24.6453 33.96 23.9733 33.96 23.184C33.96 22.224 34.184 21.2213 34.632 20.176C35.0587 19.1947 35.6027 18.2987 36.264 17.488C36.9253 16.6773 37.64 16.0267 38.408 15.536C39.176 15.024 39.9227 14.768 40.648 14.768C41.4587 14.768 42.056 15.0347 42.44 15.568C42.824 16.1013 43.016 16.7733 43.016 17.584C43.016 18.5653 42.792 19.568 42.344 20.592C42.088 21.168 41.7253 21.808 41.256 22.512C40.7867 23.1947 40.2533 23.824 39.656 24.4C39.784 24.6347 39.9653 24.8373 40.2 25.008C40.4347 25.1573 40.7547 25.232 41.16 25.232C41.672 25.232 42.152 25.0187 42.6 24.592C43.0693 24.1653 43.496 23.6533 43.88 23.056C44.264 22.4373 44.6053 21.8187 44.904 21.2C45.2027 20.5813 45.448 20.08 45.64 19.696C45.704 19.568 45.8107 19.504 45.96 19.504C46.0453 19.504 46.1093 19.5467 46.152 19.632C46.1947 19.696 46.184 19.8027 46.12 19.952C45.992 20.272 45.7787 20.752 45.48 21.392C45.1813 22.0107 44.8187 22.6613 44.392 23.344C43.9653 24.0053 43.4747 24.5707 42.92 25.04C42.3653 25.5093 41.7467 25.744 41.064 25.744C40.5947 25.744 40.1893 25.6693 39.848 25.52C39.5067 25.3493 39.2293 25.1467 39.016 24.912C38.568 25.2533 38.12 25.52 37.672 25.712C37.224 25.904 36.776 26 36.328 26ZM36.808 25.296C37.384 25.296 38.0027 25.0187 38.664 24.464C38.4933 24.208 38.3653 23.9413 38.28 23.664C38.1947 23.3867 38.152 23.1307 38.152 22.896C38.152 22.512 38.2373 22.1813 38.408 21.904C38.6 21.6267 38.888 21.488 39.272 21.488C39.5493 21.488 39.7733 21.5947 39.944 21.808C40.136 22 40.232 22.224 40.232 22.48C40.232 22.544 40.2213 22.608 40.2 22.672C40.2 22.7147 40.1893 22.768 40.168 22.832C40.5307 22.3413 40.872 21.7653 41.192 21.104C41.896 19.5893 42.248 18.3413 42.248 17.36C42.248 16.8693 42.152 16.4853 41.96 16.208C41.768 15.9307 41.48 15.792 41.096 15.792C40.648 15.792 40.1573 15.984 39.624 16.368C39.112 16.752 38.6107 17.264 38.12 17.904C37.6507 18.544 37.2347 19.2587 36.872 20.048C36.5307 20.7733 36.2533 21.4773 36.04 22.16C35.848 22.8213 35.752 23.3973 35.752 23.888C35.752 24.3147 35.8373 24.656 36.008 24.912C36.1787 25.168 36.4453 25.296 36.808 25.296ZM47.0468 26C46.2361 26 45.6387 25.7333 45.2548 25.2C44.8708 24.6453 44.6788 23.9733 44.6788 23.184C44.6788 22.224 44.9028 21.2213 45.3508 20.176C45.7774 19.1947 46.3214 18.2987 46.9828 17.488C47.6441 16.6773 48.3588 16.0267 49.1268 15.536C49.8948 15.024 50.6414 14.768 51.3668 14.768C52.1774 14.768 52.7748 15.0347 53.1588 15.568C53.5428 16.1013 53.7348 16.7733 53.7348 17.584C53.7348 18.5653 53.5108 19.568 53.0628 20.592C52.8068 21.168 52.4441 21.808 51.9748 22.512C51.5054 23.1947 50.9721 23.824 50.3748 24.4C50.5028 24.6347 50.6841 24.8373 50.9188 25.008C51.1534 25.1573 51.4734 25.232 51.8788 25.232C52.3908 25.232 52.8708 25.0187 53.3188 24.592C53.7881 24.1653 54.2148 23.6533 54.5988 23.056C54.9828 22.4373 55.3241 21.8187 55.6228 21.2C55.9214 20.5813 56.1668 20.08 56.3588 19.696C56.4228 19.568 56.5294 19.504 56.6788 19.504C56.7641 19.504 56.8281 19.5467 56.8708 19.632C56.9134 19.696 56.9028 19.8027 56.8388 19.952C56.7108 20.272 56.4974 20.752 56.1988 21.392C55.9001 22.0107 55.5374 22.6613 55.1108 23.344C54.6841 24.0053 54.1934 24.5707 53.6388 25.04C53.0841 25.5093 52.4654 25.744 51.7828 25.744C51.3134 25.744 50.9081 25.6693 50.5668 25.52C50.2254 25.3493 49.9481 25.1467 49.7348 24.912C49.2868 25.2533 48.8388 25.52 48.3908 25.712C47.9428 25.904 47.4948 26 47.0468 26ZM47.5268 25.296C48.1028 25.296 48.7214 25.0187 49.3828 24.464C49.2121 24.208 49.0841 23.9413 48.9988 23.664C48.9134 23.3867 48.8708 23.1307 48.8708 22.896C48.8708 22.512 48.9561 22.1813 49.1268 21.904C49.3188 21.6267 49.6068 21.488 49.9908 21.488C50.2681 21.488 50.4921 21.5947 50.6628 21.808C50.8548 22 50.9508 22.224 50.9508 22.48C50.9508 22.544 50.9401 22.608 50.9188 22.672C50.9188 22.7147 50.9081 22.768 50.8868 22.832C51.2494 22.3413 51.5908 21.7653 51.9108 21.104C52.6148 19.5893 52.9668 18.3413 52.9668 17.36C52.9668 16.8693 52.8708 16.4853 52.6788 16.208C52.4868 15.9307 52.1988 15.792 51.8148 15.792C51.3668 15.792 50.8761 15.984 50.3428 16.368C49.8308 16.752 49.3294 17.264 48.8388 17.904C48.3694 18.544 47.9534 19.2587 47.5908 20.048C47.2494 20.7733 46.9721 21.4773 46.7588 22.16C46.5668 22.8213 46.4708 23.3973 46.4708 23.888C46.4708 24.3147 46.5561 24.656 46.7268 24.912C46.8974 25.168 47.1641 25.296 47.5268 25.296ZM63.3015 26C62.7255 26 62.2455 25.712 61.8615 25.136C61.7548 24.9653 61.6588 24.7413 61.5735 24.464C61.4882 24.1867 61.4455 23.8773 61.4455 23.536C61.4455 23.344 61.4562 23.152 61.4775 22.96C61.4988 22.7467 61.5415 22.5333 61.6055 22.32C61.3068 22.7893 60.9548 23.312 60.5495 23.888C60.1655 24.4427 59.7175 24.9333 59.2055 25.36C58.7148 25.7653 58.1602 25.968 57.5415 25.968C57.3282 25.968 57.1042 25.936 56.8695 25.872C56.2935 25.7013 55.8775 25.4027 55.6215 24.976C55.3868 24.5493 55.2695 24.0373 55.2695 23.44C55.2695 22.7787 55.3975 22.0533 55.6535 21.264C55.9308 20.4747 56.2722 19.7067 56.6775 18.96C57.1042 18.2133 57.5415 17.5733 57.9895 17.04C58.6295 16.2933 59.3655 15.696 60.1975 15.248C61.0295 14.8 61.8722 14.576 62.7255 14.576C63.4935 14.576 64.2188 14.7787 64.9015 15.184C65.2215 14.5867 65.5628 13.9253 65.9255 13.2C66.2882 12.4533 66.6508 11.7173 67.0135 10.992C67.3762 10.2667 67.6962 9.60533 67.9735 9.008C68.2508 8.38933 68.4642 7.92 68.6135 7.6C68.9335 6.85333 69.2322 6.384 69.5095 6.192C69.8082 5.97867 70.1602 5.872 70.5655 5.872C70.8002 5.872 71.0562 5.904 71.3335 5.968C71.6322 6.01067 71.9202 6.02133 72.1975 6C72.0695 6.128 71.8028 6.50133 71.3975 7.12C71.0135 7.71733 70.5548 8.48533 70.0215 9.424C69.4882 10.3627 68.9122 11.3973 68.2935 12.528C67.6962 13.6373 67.0988 14.768 66.5015 15.92C65.9255 17.0507 65.3815 18.128 64.8695 19.152C64.3788 20.1547 63.9842 21.0187 63.6855 21.744C63.6002 21.9147 63.4722 22.2667 63.3015 22.8C63.1522 23.312 63.0775 23.76 63.0775 24.144C63.0775 24.4213 63.1415 24.6667 63.2695 24.88C63.3975 25.072 63.6108 25.168 63.9095 25.168C64.3148 25.168 64.7202 24.9653 65.1255 24.56C65.5522 24.1333 65.9575 23.6213 66.3415 23.024C66.7255 22.4053 67.0668 21.808 67.3655 21.232C67.6642 20.6347 67.8882 20.1653 68.0375 19.824C68.1442 19.5893 68.2722 19.472 68.4215 19.472C68.5495 19.472 68.6135 19.568 68.6135 19.76C68.6135 19.7813 68.6135 19.824 68.6135 19.888C68.6135 19.9307 68.5922 19.984 68.5495 20.048C68.3575 20.496 68.0908 21.0507 67.7495 21.712C67.4295 22.3733 67.0455 23.0347 66.5975 23.696C66.1495 24.3573 65.6482 24.912 65.0935 25.36C64.5388 25.7867 63.9415 26 63.3015 26ZM57.7655 25.04C58.0642 25.04 58.4375 24.88 58.8855 24.56C59.3335 24.2187 59.8135 23.6853 60.3255 22.96C60.9228 22.1067 61.6055 21.04 62.3735 19.76C63.1415 18.48 63.8988 17.1253 64.6455 15.696C64.3682 15.44 64.0482 15.312 63.6855 15.312C63.0882 15.312 62.4162 15.5893 61.6695 16.144C60.9442 16.6987 60.2295 17.4027 59.5255 18.256C58.8428 19.1093 58.2668 19.9733 57.7975 20.848C57.4775 21.4453 57.2428 21.9893 57.0935 22.48C56.9655 22.9707 56.9015 23.3973 56.9015 23.76C56.9015 24.6133 57.1895 25.04 57.7655 25.04ZM86.8505 29.296C86.0612 29.296 85.2505 29.2107 84.4185 29.04C83.6078 28.8693 82.7972 28.6133 81.9865 28.272C80.6638 27.696 79.5972 26.9387 78.7865 26C77.9758 25.0827 77.3892 24.0373 77.0265 22.864C76.6638 21.6907 76.4825 20.464 76.4825 19.184C76.4825 17.84 76.6425 16.496 76.9625 15.152C77.3038 13.808 77.7732 12.528 78.3705 11.312C78.9678 10.0747 79.6398 8.976 80.3865 8.016C80.2372 7.46133 80.1092 6.82133 80.0025 6.096C79.9172 5.37067 79.8745 4.63467 79.8745 3.888C79.8745 2.75733 80.0025 1.68 80.2585 0.655998C80.3438 0.357332 80.4932 0.207998 80.7065 0.207998C80.8558 0.207998 80.9305 0.314665 80.9305 0.527998C80.9305 0.655999 80.9198 0.751999 80.8985 0.815998C80.8558 1.136 80.8132 1.46667 80.7705 1.808C80.7492 2.14933 80.7385 2.50133 80.7385 2.864C80.7385 3.58933 80.7812 4.304 80.8665 5.008C80.9518 5.712 81.0478 6.36267 81.1545 6.96C82.7118 4.93333 84.4932 3.42933 86.4985 2.448C88.5252 1.44533 90.6478 0.943998 92.8665 0.943998C93.4425 0.943998 93.9972 0.975999 94.5305 1.04C96.2372 1.232 97.6345 1.65867 98.7225 2.32C99.8105 2.96 100.611 3.74933 101.123 4.688C101.656 5.62667 101.923 6.61867 101.923 7.664C101.923 8.688 101.688 9.70133 101.219 10.704C100.749 11.7067 100.067 12.624 99.1705 13.456C98.2745 14.2667 97.1758 14.928 95.8745 15.44C94.5945 15.9307 93.1438 16.176 91.5225 16.176C91.1598 16.176 90.7972 16.1653 90.4345 16.144C90.0718 16.1227 89.6772 16.08 89.2505 16.016C87.5652 15.76 86.0292 15.216 84.6425 14.384C83.2558 13.552 82.1358 12.272 81.2825 10.544C81.1118 10.7573 80.8772 11.1947 80.5785 11.856C80.2798 12.496 79.9812 13.2747 79.6825 14.192C79.3838 15.1093 79.1278 16.112 78.9145 17.2C78.7012 18.2667 78.5945 19.344 78.5945 20.432C78.5945 21.4773 78.7332 22.4907 79.0105 23.472C79.2878 24.432 79.7678 25.2747 80.4505 26C81.1332 26.7467 82.0612 27.3013 83.2345 27.664C83.8105 27.8347 84.4078 27.9627 85.0265 28.048C85.6452 28.1333 86.2745 28.176 86.9145 28.176C88.1518 28.176 89.3785 28.016 90.5945 27.696C91.8105 27.376 92.9412 26.9067 93.9865 26.288C95.3732 25.4773 96.4398 24.5387 97.1865 23.472C97.9332 22.384 98.6265 21.168 99.2665 19.824C99.3518 19.6107 99.4692 19.504 99.6185 19.504C99.7252 19.504 99.7785 19.5787 99.7785 19.728C99.7785 19.8347 99.7358 19.9627 99.6505 20.112C99.2025 21.0507 98.7545 21.9147 98.3065 22.704C97.8585 23.472 97.3358 24.1867 96.7385 24.848C96.1412 25.5093 95.3838 26.16 94.4665 26.8C93.4212 27.5253 92.2478 28.1227 90.9465 28.592C89.6452 29.0613 88.2798 29.296 86.8505 29.296ZM91.3305 15.344C92.8025 15.344 94.1038 15.1307 95.2345 14.704C96.3652 14.256 97.3145 13.68 98.0825 12.976C98.8718 12.2507 99.4585 11.4507 99.8425 10.576C100.248 9.70133 100.451 8.816 100.451 7.92C100.451 7.04533 100.248 6.21333 99.8425 5.424C99.4372 4.63467 98.8185 3.96267 97.9865 3.408C97.1758 2.832 96.1305 2.45867 94.8505 2.288C94.3812 2.224 93.9118 2.192 93.4425 2.192C91.9918 2.192 90.5625 2.50133 89.1545 3.12C87.7678 3.71733 86.4558 4.57067 85.2185 5.68C83.9812 6.768 82.8825 8.048 81.9225 9.52C82.6692 11.376 83.7145 12.7413 85.0585 13.616C86.4238 14.4907 87.9812 15.0347 89.7305 15.248C90.2852 15.312 90.8185 15.344 91.3305 15.344ZM106.11 26.096C105.876 26.1173 105.609 26.064 105.31 25.936C105.012 25.808 104.745 25.5733 104.51 25.232C104.297 24.8907 104.19 24.4107 104.19 23.792C104.19 23.28 104.286 22.6613 104.478 21.936C104.222 22.3413 103.892 22.8427 103.486 23.44C103.081 24.016 102.644 24.528 102.174 24.976C101.769 25.36 101.385 25.6373 101.022 25.808C100.66 25.9787 100.329 26.064 100.03 26.064C99.4756 26.064 99.0276 25.8187 98.6863 25.328C98.3449 24.816 98.1743 24.1547 98.1743 23.344C98.1743 22.4907 98.3876 21.52 98.8143 20.432C99.2409 19.344 99.9343 18.2133 100.894 17.04C101.513 16.2933 102.26 15.696 103.134 15.248C104.03 14.7787 104.905 14.544 105.758 14.544C106.249 14.544 106.718 14.6293 107.166 14.8C107.614 14.9493 108.009 15.2053 108.35 15.568C108.5 15.7173 108.574 15.888 108.574 16.08C108.574 16.208 108.521 16.3147 108.414 16.4C108.308 16.4853 108.169 16.5067 107.998 16.464C107.764 15.7173 107.262 15.344 106.494 15.344C106.132 15.344 105.716 15.4613 105.246 15.696C104.521 16.08 103.764 16.7093 102.974 17.584C102.206 18.4587 101.534 19.3653 100.958 20.304C100.873 20.432 100.734 20.6773 100.542 21.04C100.372 21.4027 100.201 21.808 100.03 22.256C99.8596 22.704 99.7423 23.1413 99.6783 23.568C99.6569 23.696 99.6463 23.792 99.6463 23.856C99.6463 23.8987 99.6463 23.9733 99.6463 24.08C99.6463 24.784 99.9129 25.136 100.446 25.136C101.086 25.136 101.812 24.6667 102.622 23.728C103.177 23.0453 103.678 22.3307 104.126 21.584C104.574 20.8373 105.033 20.0373 105.502 19.184C105.822 18.608 106.121 18.128 106.398 17.744C106.676 17.36 107.07 17.168 107.582 17.168C107.817 17.168 108.052 17.2 108.286 17.264C108.521 17.328 108.766 17.3387 109.022 17.296C108.852 17.4667 108.617 17.7867 108.318 18.256C108.041 18.7253 107.742 19.2587 107.422 19.856C107.102 20.4533 106.814 21.0613 106.558 21.68C106.302 22.2987 106.121 22.832 106.014 23.28C105.993 23.408 105.961 23.5893 105.918 23.824C105.897 24.0587 105.886 24.2293 105.886 24.336C105.886 24.9333 106.057 25.232 106.398 25.232C106.74 25.232 107.102 25.0293 107.486 24.624C107.892 24.2187 108.286 23.7173 108.67 23.12C109.054 22.5227 109.406 21.9253 109.726 21.328C110.046 20.7093 110.302 20.208 110.494 19.824C110.58 19.6107 110.708 19.504 110.878 19.504C110.985 19.504 111.038 19.5787 111.038 19.728C111.038 19.792 111.006 19.9093 110.942 20.08C110.686 20.6133 110.377 21.2213 110.014 21.904C109.652 22.5653 109.257 23.216 108.83 23.856C108.404 24.4747 107.956 24.9973 107.486 25.424C107.038 25.8293 106.58 26.0533 106.11 26.096ZM112.016 26C111.419 26 110.886 25.7973 110.416 25.392C109.947 24.9653 109.712 24.304 109.712 23.408C109.712 22.704 109.84 21.84 110.096 20.816C110.374 19.7707 110.704 18.6933 111.088 17.584C111.494 16.4533 111.888 15.4293 112.272 14.512H110.576C110.427 14.512 110.352 14.4053 110.352 14.192C110.352 14.0853 110.374 13.9893 110.416 13.904C110.48 13.8187 110.566 13.776 110.672 13.776H112.592C112.955 12.9653 113.339 12.176 113.744 11.408C114.15 10.64 114.544 9.91467 114.928 9.232C115.419 8.37867 115.942 7.73867 116.496 7.312C117.051 6.88533 117.531 6.672 117.936 6.672C118.256 6.672 118.523 6.8 118.736 7.056C118.95 7.29067 119.056 7.65333 119.056 8.144C119.056 8.44267 118.992 8.85867 118.864 9.392C118.736 9.904 118.534 10.448 118.256 11.024C118.107 11.3227 117.894 11.7493 117.616 12.304C117.36 12.8587 117.104 13.3493 116.848 13.776H118.384C118.534 13.776 118.608 13.8827 118.608 14.096C118.608 14.1813 118.587 14.2773 118.544 14.384C118.502 14.4693 118.438 14.512 118.352 14.512H116.464C115.931 15.4293 115.323 16.3253 114.64 17.2C113.958 18.0747 113.147 18.9493 112.208 19.824C112.144 20.016 112.059 20.2933 111.952 20.656C111.867 21.0187 111.782 21.392 111.696 21.776C111.632 22.1387 111.568 22.448 111.504 22.704C111.462 22.96 111.44 23.088 111.44 23.088C111.376 23.3653 111.344 23.6213 111.344 23.856C111.344 24.304 111.451 24.6347 111.664 24.848C111.878 25.04 112.123 25.136 112.4 25.136C112.571 25.136 112.742 25.1147 112.912 25.072C113.083 25.008 113.275 24.9013 113.488 24.752C114.235 24.2187 114.886 23.4933 115.44 22.576C116.016 21.6587 116.518 20.7733 116.944 19.92C117.072 19.664 117.2 19.536 117.328 19.536C117.414 19.536 117.456 19.6 117.456 19.728C117.456 19.792 117.424 19.9093 117.36 20.08C116.891 21.0613 116.496 21.8507 116.176 22.448C115.856 23.0453 115.547 23.5467 115.248 23.952C114.95 24.336 114.598 24.72 114.192 25.104C113.894 25.4027 113.552 25.6267 113.168 25.776C112.784 25.9253 112.4 26 112.016 26ZM114.544 13.776H116.176C116.475 13.2213 116.752 12.6773 117.008 12.144C117.286 11.6107 117.531 11.0773 117.744 10.544C117.894 10.2027 118.022 9.81867 118.128 9.392C118.235 8.96533 118.288 8.63467 118.288 8.4C118.288 8.08 118.214 7.92 118.064 7.92C117.958 7.92 117.798 8.016 117.584 8.208C117.392 8.37867 117.147 8.67733 116.848 9.104C116.464 9.63733 116.08 10.3307 115.696 11.184C115.334 12.016 114.95 12.88 114.544 13.776ZM112.464 18.8C113.083 18.16 113.659 17.4773 114.192 16.752C114.747 16.0267 115.259 15.28 115.728 14.512H114.224C113.883 15.3013 113.563 16.0693 113.264 16.816C112.966 17.5627 112.699 18.224 112.464 18.8ZM119.158 26.128C118.368 26.128 117.654 25.872 117.014 25.36C116.395 24.848 116.086 24.0693 116.086 23.024C116.086 22.064 116.32 21.04 116.79 19.952C117.259 18.8427 117.856 17.872 118.582 17.04C119.2 16.3147 119.894 15.7173 120.662 15.248C121.43 14.7787 122.155 14.544 122.838 14.544C123.307 14.544 123.712 14.672 124.054 14.928C124.416 15.2053 124.598 15.6 124.598 16.112C124.598 16.6453 124.395 17.232 123.99 17.872C123.584 18.512 123.008 19.1093 122.262 19.664C121.942 19.8987 121.536 20.1227 121.046 20.336C120.555 20.5493 120.064 20.7307 119.574 20.88C119.083 21.008 118.678 21.072 118.358 21.072C118.251 21.328 118.144 21.6693 118.038 22.096C117.952 22.5227 117.91 22.96 117.91 23.408C117.91 23.9413 118.016 24.4213 118.23 24.848C118.443 25.2747 118.838 25.488 119.414 25.488C120.118 25.488 120.758 25.2853 121.334 24.88C121.91 24.4747 122.422 23.9733 122.87 23.376C123.318 22.7573 123.691 22.1387 123.99 21.52C124.31 20.9013 124.566 20.3787 124.758 19.952C124.886 19.6533 125.056 19.504 125.27 19.504C125.376 19.504 125.43 19.5573 125.43 19.664C125.43 19.7493 125.398 19.856 125.334 19.984C125.035 20.624 124.715 21.3067 124.374 22.032C124.032 22.736 123.627 23.408 123.158 24.048C122.688 24.6667 122.123 25.168 121.462 25.552C120.822 25.936 120.054 26.128 119.158 26.128ZM118.582 20.496C118.88 20.496 119.382 20.3893 120.086 20.176C120.79 19.9413 121.43 19.5787 122.006 19.088C122.56 18.5973 122.987 18.064 123.286 17.488C123.584 16.8907 123.734 16.3893 123.734 15.984C123.734 15.5147 123.563 15.28 123.222 15.28C122.966 15.28 122.614 15.4507 122.166 15.792C121.718 16.1333 121.163 16.7093 120.502 17.52C120.096 18.032 119.712 18.5867 119.35 19.184C118.987 19.7813 118.731 20.2187 118.582 20.496ZM122.647 36.208C120.621 36.208 119.607 35.376 119.607 33.712C119.607 32.9227 119.885 32.2187 120.439 31.6C120.994 30.9813 121.655 30.448 122.423 30C123.49 29.36 124.525 28.848 125.527 28.464C126.53 28.08 127.479 27.7387 128.375 27.44C129.293 27.1627 130.157 26.8533 130.967 26.512C131.351 25.3813 131.607 24.1973 131.735 22.96C131.799 22.32 131.831 21.7653 131.831 21.296C131.831 20.8053 131.799 20.4853 131.735 20.336C131.501 20.784 131.191 21.328 130.807 21.968C130.423 22.608 129.986 23.2373 129.495 23.856C129.005 24.4533 128.471 24.9547 127.895 25.36C127.341 25.7653 126.765 25.968 126.167 25.968C125.954 25.968 125.751 25.936 125.559 25.872C124.962 25.616 124.525 25.2533 124.247 24.784C123.991 24.3147 123.863 23.7813 123.863 23.184C123.863 22.224 124.141 21.1893 124.695 20.08C125.25 18.9707 125.911 17.9573 126.679 17.04C127.298 16.2933 128.023 15.696 128.855 15.248C129.687 14.8 130.53 14.576 131.383 14.576C132.365 14.576 133.282 14.9067 134.135 15.568C134.455 15.824 134.615 16.1013 134.615 16.4C134.615 16.72 134.487 16.88 134.231 16.88C134.018 16.88 133.869 16.7413 133.783 16.464C133.485 15.6747 133.005 15.28 132.343 15.28C131.81 15.28 131.202 15.5147 130.519 15.984C129.837 16.432 129.197 16.9973 128.599 17.68C128.087 18.256 127.586 18.9173 127.095 19.664C126.626 20.4107 126.231 21.1467 125.911 21.872C125.613 22.5973 125.463 23.2267 125.463 23.76C125.463 24.1227 125.549 24.432 125.719 24.688C125.89 24.944 126.157 25.072 126.519 25.072C127.01 25.072 127.522 24.8373 128.055 24.368C128.61 23.8987 129.133 23.3227 129.623 22.64C130.135 21.9573 130.573 21.264 130.935 20.56C131.319 19.856 131.586 19.2693 131.735 18.8C131.885 18.3093 132.087 18.0107 132.343 17.904C132.599 17.776 132.855 17.712 133.111 17.712C133.367 17.712 133.581 17.648 133.751 17.52C133.837 17.9893 133.89 18.4693 133.911 18.96C133.954 19.4293 133.975 19.9093 133.975 20.4C133.975 22.0427 133.762 23.696 133.335 25.36C133.719 25.0613 134.114 24.7413 134.519 24.4C134.946 24.0373 135.309 23.6533 135.607 23.248C136.141 22.5227 136.535 21.8613 136.791 21.264C137.069 20.6453 137.282 20.1653 137.431 19.824C137.559 19.6107 137.698 19.504 137.847 19.504C137.975 19.504 138.039 19.568 138.039 19.696C138.039 19.8027 137.997 19.9307 137.911 20.08C137.378 21.2107 136.887 22.1813 136.439 22.992C135.991 23.7813 135.501 24.4533 134.967 25.008C134.434 25.5413 133.773 26 132.983 26.384C132.642 27.408 132.13 28.4853 131.447 29.616C130.765 30.7467 129.965 31.8133 129.047 32.816C128.13 33.8187 127.127 34.6293 126.039 35.248C124.951 35.888 123.821 36.208 122.647 36.208ZM121.879 35.568C122.349 35.568 122.839 35.4613 123.351 35.248C123.885 35.056 124.386 34.8213 124.855 34.544C125.325 34.2667 125.687 34.032 125.943 33.84C126.434 33.456 126.935 32.976 127.447 32.4C127.959 31.824 128.407 31.2693 128.791 30.736C129.154 30.224 129.495 29.68 129.815 29.104C130.157 28.5493 130.445 27.9947 130.679 27.44C130.509 27.504 130.295 27.5787 130.039 27.664C129.805 27.7493 129.634 27.8133 129.527 27.856C128.823 28.0907 128.045 28.3573 127.191 28.656C126.359 28.976 125.527 29.3173 124.695 29.68C123.863 30.064 123.106 30.48 122.423 30.928C121.826 31.3333 121.335 31.8667 120.951 32.528C120.546 33.1893 120.343 33.7653 120.343 34.256C120.343 34.6187 120.471 34.928 120.727 35.184C120.962 35.44 121.346 35.568 121.879 35.568ZM138.953 26C138.142 26 137.545 25.7333 137.161 25.2C136.777 24.6453 136.585 23.9733 136.585 23.184C136.585 22.224 136.809 21.2213 137.257 20.176C137.684 19.1947 138.228 18.2987 138.889 17.488C139.55 16.6773 140.265 16.0267 141.033 15.536C141.801 15.024 142.548 14.768 143.273 14.768C144.084 14.768 144.681 15.0347 145.065 15.568C145.449 16.1013 145.641 16.7733 145.641 17.584C145.641 18.5653 145.417 19.568 144.969 20.592C144.713 21.168 144.35 21.808 143.881 22.512C143.412 23.1947 142.878 23.824 142.281 24.4C142.409 24.6347 142.59 24.8373 142.825 25.008C143.06 25.1573 143.38 25.232 143.785 25.232C144.297 25.232 144.777 25.0187 145.225 24.592C145.694 24.1653 146.121 23.6533 146.505 23.056C146.889 22.4373 147.23 21.8187 147.529 21.2C147.828 20.5813 148.073 20.08 148.265 19.696C148.329 19.568 148.436 19.504 148.585 19.504C148.67 19.504 148.734 19.5467 148.777 19.632C148.82 19.696 148.809 19.8027 148.745 19.952C148.617 20.272 148.404 20.752 148.105 21.392C147.806 22.0107 147.444 22.6613 147.017 23.344C146.59 24.0053 146.1 24.5707 145.545 25.04C144.99 25.5093 144.372 25.744 143.689 25.744C143.22 25.744 142.814 25.6693 142.473 25.52C142.132 25.3493 141.854 25.1467 141.641 24.912C141.193 25.2533 140.745 25.52 140.297 25.712C139.849 25.904 139.401 26 138.953 26ZM139.433 25.296C140.009 25.296 140.628 25.0187 141.289 24.464C141.118 24.208 140.99 23.9413 140.905 23.664C140.82 23.3867 140.777 23.1307 140.777 22.896C140.777 22.512 140.862 22.1813 141.033 21.904C141.225 21.6267 141.513 21.488 141.897 21.488C142.174 21.488 142.398 21.5947 142.569 21.808C142.761 22 142.857 22.224 142.857 22.48C142.857 22.544 142.846 22.608 142.825 22.672C142.825 22.7147 142.814 22.768 142.793 22.832C143.156 22.3413 143.497 21.7653 143.817 21.104C144.521 19.5893 144.873 18.3413 144.873 17.36C144.873 16.8693 144.777 16.4853 144.585 16.208C144.393 15.9307 144.105 15.792 143.721 15.792C143.273 15.792 142.782 15.984 142.249 16.368C141.737 16.752 141.236 17.264 140.745 17.904C140.276 18.544 139.86 19.2587 139.497 20.048C139.156 20.7733 138.878 21.4773 138.665 22.16C138.473 22.8213 138.377 23.3973 138.377 23.888C138.377 24.3147 138.462 24.656 138.633 24.912C138.804 25.168 139.07 25.296 139.433 25.296ZM151.944 26.032C151.538 26.032 151.133 25.872 150.728 25.552C150.322 25.2107 150.12 24.6667 150.12 23.92C150.12 23.344 150.258 22.6827 150.536 21.936C150.792 21.2107 151.133 20.5067 151.56 19.824C152.008 19.1413 152.328 18.5867 152.52 18.16C152.584 17.9893 152.616 17.84 152.616 17.712C152.616 17.328 152.37 17.0507 151.88 16.88C151.41 16.7093 150.792 16.6133 150.024 16.592L149.64 17.648C149.405 18.3307 149.074 19.1307 148.648 20.048C148.242 20.9653 147.784 21.8507 147.272 22.704C146.781 23.5573 146.269 24.24 145.736 24.752C145.693 24.7947 145.64 24.816 145.576 24.816C145.49 24.816 145.437 24.7627 145.416 24.656C145.373 24.5493 145.416 24.4213 145.544 24.272C146.376 23.1627 147.122 21.936 147.784 20.592C148.445 19.2267 149 17.84 149.448 16.432C149.917 15.024 150.258 13.7227 150.472 12.528C150.536 12.1867 150.653 11.9413 150.824 11.792C150.994 11.6213 151.176 11.536 151.368 11.536C151.645 11.536 151.901 11.6747 152.136 11.952C152.37 12.208 152.488 12.5813 152.488 13.072C152.488 13.1573 152.477 13.2533 152.456 13.36C152.456 13.4667 152.445 13.5733 152.424 13.68C152.338 14.128 152.082 14.5547 151.656 14.96C151.25 15.344 150.92 15.632 150.664 15.824C150.877 15.8453 151.101 15.8667 151.336 15.888C151.57 15.888 151.826 15.888 152.104 15.888C153.106 15.888 154.098 15.824 155.08 15.696C155.122 15.824 155.144 15.92 155.144 15.984C155.144 16.2613 155.058 16.6133 154.888 17.04C154.738 17.4667 154.578 17.8507 154.408 18.192C154.322 18.384 154.152 18.736 153.896 19.248C153.64 19.7387 153.362 20.304 153.064 20.944C152.765 21.5627 152.509 22.1813 152.296 22.8C152.104 23.3973 152.008 23.9093 152.008 24.336C152.008 24.8907 152.221 25.168 152.648 25.168C152.968 25.168 153.32 24.9653 153.704 24.56C154.088 24.1333 154.461 23.6213 154.824 23.024C155.208 22.4053 155.549 21.808 155.848 21.232C156.168 20.6347 156.413 20.1653 156.584 19.824C156.669 19.6107 156.786 19.504 156.936 19.504C157.021 19.504 157.064 19.5787 157.064 19.728C157.064 19.8133 157.032 19.9413 156.968 20.112C156.733 20.6027 156.456 21.1573 156.136 21.776C155.816 22.3947 155.453 23.0027 155.048 23.6C154.664 24.1973 154.237 24.72 153.768 25.168C153.32 25.5947 152.829 25.872 152.296 26C152.232 26.0213 152.114 26.032 151.944 26.032ZM152.159 36.208C151.05 36.208 150.261 35.984 149.791 35.536C149.322 35.1093 149.087 34.5973 149.087 34C149.087 33.68 149.13 33.4027 149.215 33.168C149.301 32.9333 149.429 32.6347 149.599 32.272C149.898 31.6533 150.314 31.12 150.847 30.672C151.381 30.224 151.957 29.8613 152.576 29.584C153.685 29.072 154.944 28.656 156.352 28.336C157.781 28.016 159.146 27.664 160.448 27.28C160.853 26.576 161.226 25.776 161.568 24.88C161.909 23.9627 162.218 23.0773 162.496 22.224C162.773 21.3493 162.997 20.6347 163.168 20.08C162.912 20.5493 162.581 21.1253 162.176 21.808C161.792 22.4693 161.354 23.12 160.864 23.76C160.373 24.4 159.84 24.9333 159.264 25.36C158.709 25.7867 158.122 26 157.504 26C157.269 26 156.981 25.9467 156.64 25.84C156.32 25.7333 156.032 25.5413 155.776 25.264C155.541 24.9653 155.424 24.528 155.424 23.952C155.424 23.3973 155.552 22.864 155.808 22.352C156.085 21.8187 156.341 21.3067 156.576 20.816C156.512 20.816 156.437 20.7947 156.352 20.752C156.288 20.7093 156.256 20.6453 156.256 20.56C156.256 20.4747 156.277 20.3893 156.32 20.304C156.405 20.1333 156.501 19.952 156.608 19.76C156.714 19.568 156.81 19.3653 156.896 19.152C157.216 18.4907 157.536 17.8613 157.856 17.264C158.176 16.6453 158.453 16.1013 158.688 15.632C158.922 15.1627 159.328 14.928 159.904 14.928H161.888C161.738 15.056 161.546 15.2053 161.312 15.376C161.098 15.5253 160.896 15.76 160.704 16.08C160.128 17.0613 159.626 18.0107 159.2 18.928C158.773 19.824 158.314 20.784 157.824 21.808C157.589 22.2987 157.418 22.7467 157.312 23.152C157.205 23.5573 157.152 23.9093 157.152 24.208C157.152 24.912 157.386 25.264 157.856 25.264C158.368 25.264 158.986 24.848 159.712 24.016C160.309 23.312 160.906 22.48 161.504 21.52C162.122 20.5387 162.709 19.536 163.264 18.512C163.84 17.4667 164.341 16.5067 164.768 15.632C165.002 15.1627 165.418 14.928 166.016 14.928H167.776C167.157 15.3547 166.677 15.9093 166.336 16.592C166.016 17.2747 165.653 18.1493 165.248 19.216C164.8 20.3893 164.373 21.6053 163.968 22.864C163.584 24.1013 163.146 25.3493 162.656 26.608C163.36 26.3733 164.149 26.0107 165.024 25.52C165.92 25.0293 166.677 24.3253 167.296 23.408C167.786 22.6827 168.202 21.9893 168.544 21.328C168.906 20.6453 169.162 20.1547 169.312 19.856C169.397 19.6427 169.514 19.536 169.664 19.536C169.813 19.536 169.888 19.632 169.888 19.824C169.888 19.9307 169.856 20.048 169.792 20.176C169.237 21.2853 168.736 22.224 168.288 22.992C167.861 23.7387 167.381 24.3893 166.848 24.944C166.336 25.4773 165.706 25.9467 164.96 26.352C164.213 26.7787 163.264 27.2053 162.112 27.632C161.6 28.5493 161.013 29.4987 160.352 30.48C159.712 31.4827 158.976 32.4107 158.144 33.264C157.333 34.1387 156.426 34.8427 155.424 35.376C154.442 35.9307 153.354 36.208 152.159 36.208ZM151.391 35.568C152.095 35.568 152.821 35.3547 153.567 34.928C154.314 34.5013 155.039 33.9573 155.743 33.296C156.447 32.656 157.088 31.9947 157.664 31.312C158.261 30.6507 158.741 30.064 159.104 29.552C159.21 29.4027 159.328 29.2107 159.456 28.976C159.584 28.7413 159.712 28.5173 159.84 28.304C158.794 28.5813 157.642 28.88 156.384 29.2C155.146 29.5413 154.069 29.9147 153.151 30.32C152.127 30.7467 151.327 31.3547 150.751 32.144C150.154 32.9333 149.855 33.6373 149.855 34.256C149.855 34.64 149.983 34.9493 150.239 35.184C150.474 35.44 150.858 35.568 151.391 35.568Z" fill="#FF9F0D"/>
</svg>
