<svg width="131" height="40" viewBox="0 0 131 40" fill="none" xmlns="http://www.w3.org/2000/svg">
<path d="M12.4136 29.24C14.5256 29.24 16.4562 28.7813 18.2056 27.864C19.9549 26.968 21.5336 25.7413 22.9416 24.184C24.3709 22.6053 25.6189 20.8453 26.6856 18.904C27.3682 17.6667 28.0082 16.408 28.6056 15.128C29.2029 13.848 29.7576 12.6427 30.2696 11.512C30.7816 10.36 31.2402 9.368 31.6456 8.536C32.0509 7.704 32.3922 7.10667 32.6696 6.744C31.4962 6.31733 30.1416 5.944 28.6056 5.624C27.0909 5.28267 25.1922 5.048 22.9096 4.92C21.3096 4.83467 19.8802 5.016 18.6216 5.464C17.3842 5.912 16.3282 6.52 15.4536 7.288C14.6002 8.03467 13.9389 8.856 13.4696 9.752C13.0216 10.648 12.7976 11.512 12.7976 12.344C12.7976 13.1333 12.9789 13.784 13.3416 14.296C13.7042 14.7867 14.1736 15.1493 14.7496 15.384C15.3469 15.6187 15.9549 15.736 16.5736 15.736C17.3416 15.736 18.0136 15.576 18.5896 15.256C19.1656 14.936 19.6456 14.552 20.0296 14.104C20.4349 13.6347 20.7336 13.1973 20.9256 12.792C21.1389 12.3653 21.2456 12.056 21.2456 11.864V11.832C21.3522 11.704 21.4589 11.64 21.5656 11.64C21.7789 11.64 21.8856 11.7893 21.8856 12.088C21.7789 13.0053 21.4482 13.8053 20.8936 14.488C20.3602 15.1707 19.7096 15.6933 18.9416 16.056C18.1736 16.4187 17.3629 16.6 16.5096 16.6C15.6349 16.6 14.7922 16.3867 13.9816 15.96C13.1709 15.5333 12.5096 14.9147 11.9976 14.104C11.4856 13.2933 11.2296 12.312 11.2296 11.16C11.2296 10.2213 11.4322 9.29333 11.8376 8.376C12.2642 7.43733 12.8936 6.584 13.7256 5.816C14.5789 5.02666 15.6562 4.39733 16.9576 3.928C18.2589 3.45867 19.7949 3.224 21.5656 3.224C23.1442 3.224 24.5736 3.37333 25.8536 3.672C27.1549 3.97067 28.3922 4.344 29.5656 4.792C30.7602 5.21867 31.9656 5.64533 33.1816 6.072C33.5229 5.64533 33.9176 5.25067 34.3656 4.888C34.8349 4.504 35.3042 4.312 35.7736 4.312C36.2002 4.312 36.4136 4.44 36.4136 4.696C36.4136 4.952 36.2642 5.08 35.9656 5.08C35.6456 5.08 35.3149 5.21866 34.9736 5.496C34.6322 5.752 34.3336 6.04 34.0776 6.36C35.5922 6.85067 37.0322 7.27733 38.3976 7.64C39.7842 7.98133 40.9789 8.152 41.9816 8.152C42.9416 8.152 43.6242 8.07733 44.0296 7.928C44.4562 7.77867 44.6696 7.53333 44.6696 7.192C44.6696 7.064 44.6909 6.95733 44.7336 6.872C44.7976 6.76533 44.9042 6.712 45.0536 6.712C45.1602 6.712 45.2349 6.808 45.2776 7C45.3202 7.17067 45.3416 7.30933 45.3416 7.416C45.3416 7.928 45.0642 8.344 44.5096 8.664C43.9762 8.984 43.3042 9.144 42.4936 9.144C41.7896 9.144 40.9362 9.048 39.9336 8.856C38.9522 8.664 37.9069 8.41867 36.7976 8.12C35.6882 7.8 34.6109 7.448 33.5656 7.064C32.7762 8.344 32.1042 9.656 31.5496 11C31.0162 12.3227 30.5149 13.656 30.0456 15C29.5976 16.344 29.1176 17.6667 28.6056 18.968C27.5602 21.5707 26.2909 23.6933 24.7976 25.336C23.3042 26.9573 21.5336 28.1413 19.4856 28.888C17.4589 29.656 15.1016 30.04 12.4136 30.04C9.96023 30.04 7.86956 29.6773 6.14156 28.952C4.41356 28.2267 3.09089 27.2453 2.17356 26.008C1.27756 24.7493 0.829559 23.352 0.829559 21.816C0.829559 20.4933 1.04289 19.288 1.46956 18.2C1.91756 17.112 2.52556 16.2053 3.29356 15.48C4.08289 14.7547 4.97889 14.2747 5.98156 14.04C6.13089 14.04 6.20556 14.0933 6.20556 14.2C6.20556 14.3067 6.15223 14.392 6.04556 14.456C4.93623 15.1173 4.08289 16.056 3.48556 17.272C2.90956 18.4667 2.62156 19.7253 2.62156 21.048C2.62156 22.7973 3.05889 24.28 3.93356 25.496C4.82956 26.712 6.01356 27.64 7.48556 28.28C8.97889 28.92 10.6216 29.24 12.4136 29.24ZM33.3458 27.128C32.5565 27.128 31.8418 26.872 31.2018 26.36C30.5831 25.848 30.2738 25.0693 30.2738 24.024C30.2738 23.1493 30.4658 22.2213 30.8498 21.24C31.2551 20.2587 31.7778 19.3413 32.4178 18.488C33.0791 17.6133 33.8045 16.9093 34.5938 16.376C35.4045 15.8213 36.2151 15.544 37.0258 15.544C37.4311 15.544 37.8258 15.6613 38.2098 15.896C38.5938 16.1307 38.7858 16.536 38.7858 17.112C38.7858 17.6453 38.5831 18.232 38.1778 18.872C37.7725 19.512 37.1965 20.1093 36.4498 20.664C36.1298 20.8987 35.7245 21.1227 35.2338 21.336C34.7431 21.5493 34.2525 21.7307 33.7618 21.88C33.2711 22.008 32.8658 22.072 32.5458 22.072C32.4391 22.328 32.3325 22.6693 32.2258 23.096C32.1405 23.5227 32.0978 23.96 32.0978 24.408C32.0978 24.9413 32.2045 25.4213 32.4178 25.848C32.6311 26.2747 33.0258 26.488 33.6018 26.488C34.3058 26.488 34.9565 26.2853 35.5538 25.88C36.1725 25.4747 36.7165 24.9627 37.1858 24.344C37.6765 23.7253 38.0925 23.096 38.4338 22.456C38.7751 21.816 39.0418 21.272 39.2338 20.824C39.4898 20.824 39.6178 20.92 39.6178 21.112C39.3405 21.7093 39.0205 22.36 38.6578 23.064C38.3165 23.768 37.9005 24.4293 37.4098 25.048C36.9405 25.6453 36.3645 26.1467 35.6818 26.552C35.0205 26.936 34.2418 27.128 33.3458 27.128ZM32.7698 21.496C33.0685 21.496 33.5698 21.3893 34.2738 21.176C34.9778 20.9413 35.6178 20.5787 36.1938 20.088C36.7485 19.5973 37.1751 19.064 37.4738 18.488C37.7725 17.8907 37.9218 17.3893 37.9218 16.984C37.9218 16.5147 37.7511 16.28 37.4098 16.28C37.1538 16.28 36.8018 16.4507 36.3538 16.792C35.9058 17.1333 35.3511 17.7093 34.6898 18.52C34.2845 19.032 33.9005 19.5867 33.5378 20.184C33.1751 20.7813 32.9191 21.2187 32.7698 21.496ZM39.9013 27.128C39.0266 27.128 38.312 26.8613 37.7573 26.328C37.224 25.7733 36.9573 25.1973 36.9573 24.6C36.9573 24.1093 37.0853 23.6613 37.3413 23.256C37.576 22.8293 37.896 22.616 38.3013 22.616L38.3333 22.552C38.8026 21.6987 39.2506 20.8347 39.6773 19.96C40.1253 19.064 40.616 18.1147 41.1493 17.112C41.5973 16.28 42.0773 15.5973 42.5893 15.064C43.1226 14.5307 43.7413 14.264 44.4453 14.264C44.616 14.264 44.8506 14.3067 45.1493 14.392C45.448 14.456 45.5973 14.6053 45.5973 14.84C45.5973 15.0107 45.5013 15.096 45.3093 15.096C45.16 15.096 44.9893 15.0533 44.7973 14.968C44.6266 14.8827 44.488 14.84 44.3813 14.84C43.976 14.84 43.6346 15.0747 43.3573 15.544C43.08 16.0133 42.9413 16.5147 42.9413 17.048C42.9413 17.624 43.0373 18.1467 43.2293 18.616C43.4213 19.064 43.6453 19.5013 43.9013 19.928C44.1573 20.3547 44.3813 20.792 44.5733 21.24C44.7653 21.6667 44.8613 22.136 44.8613 22.648C44.8613 23.672 44.6586 24.504 44.2533 25.144C43.8693 25.7627 43.3573 26.232 42.7173 26.552H42.7493C43.88 26.552 44.808 26.0293 45.5333 24.984C46.28 23.9173 47.016 22.5307 47.7413 20.824C47.9973 20.824 48.1253 20.92 48.1253 21.112C47.72 22.072 47.272 23.0107 46.7813 23.928C46.2906 24.8453 45.7146 25.6027 45.0533 26.2C44.392 26.7973 43.5813 27.096 42.6213 27.096C42.216 27.096 41.8426 27.0533 41.5013 26.968C41.0106 27.0747 40.4773 27.128 39.9013 27.128ZM39.4213 23.736C39.4213 24.248 39.5386 24.7387 39.7733 25.208C40.008 25.6773 40.4346 26.0293 41.0533 26.264C41.608 25.944 42.0346 25.4533 42.3333 24.792C42.6533 24.1093 42.8133 23.4053 42.8133 22.68C42.8133 22.0827 42.7493 21.4747 42.6213 20.856C42.4933 20.2373 42.3546 19.6293 42.2053 19.032C42.0773 18.4347 42.0133 17.9013 42.0133 17.432C42.0133 17.2827 42.0133 17.1547 42.0133 17.048C42.0346 16.92 42.056 16.8027 42.0773 16.696C41.6933 17.272 41.2986 17.944 40.8933 18.712C40.5093 19.48 40.136 20.216 39.7733 20.92C39.4106 21.624 39.08 22.2 38.7813 22.648C39.208 22.712 39.4213 23.0747 39.4213 23.736ZM38.3653 25.336C38.3653 25.6773 38.4826 25.976 38.7173 26.232C38.952 26.488 39.304 26.616 39.7733 26.616C39.9866 26.616 40.1893 26.5947 40.3813 26.552C39.9333 26.2747 39.5706 25.9227 39.2933 25.496C39.0373 25.0693 38.9093 24.5787 38.9093 24.024C38.7173 24.2373 38.5786 24.4613 38.4933 24.696C38.408 24.9093 38.3653 25.1227 38.3653 25.336ZM54.3846 10.104C54.1072 10.5093 53.7979 11.0213 53.4566 11.64C53.1152 12.2587 52.7952 12.856 52.4966 13.432C52.2192 14.008 52.0059 14.4453 51.8566 14.744H54.8006C54.8006 14.8293 54.7579 14.968 54.6726 15.16C54.6086 15.352 54.4699 15.4907 54.2566 15.576H51.4726C51.2166 16.152 50.9179 16.8453 50.5766 17.656C50.2566 18.4667 49.9366 19.3093 49.6166 20.184C49.3179 21.0587 49.0619 21.88 48.8486 22.648C48.6566 23.3947 48.5606 24.0027 48.5606 24.472C48.5606 25.112 48.6459 25.592 48.8166 25.912C48.9872 26.2107 49.2966 26.36 49.7446 26.36C50.3206 26.36 50.8752 26.0827 51.4086 25.528C51.9419 24.952 52.4432 24.2373 52.9126 23.384C53.4032 22.5307 53.8299 21.6773 54.1926 20.824C54.4486 20.824 54.5766 20.92 54.5766 21.112C54.3419 21.688 54.0539 22.3173 53.7126 23C53.3712 23.6827 52.9766 24.344 52.5286 24.984C52.1019 25.6027 51.6112 26.1147 51.0566 26.52C50.5232 26.904 49.9259 27.096 49.2646 27.096C48.3686 27.096 47.7606 26.8507 47.4406 26.36C47.1206 25.848 46.9606 25.1973 46.9606 24.408C46.9606 23.832 47.0672 23.1387 47.2806 22.328C47.4939 21.496 47.7499 20.6427 48.0486 19.768C48.3686 18.8933 48.6779 18.0827 48.9766 17.336C49.2752 16.568 49.5099 15.9813 49.6806 15.576H47.6326C47.6326 15.4053 47.7072 15.224 47.8566 15.032C48.0059 14.84 48.1659 14.744 48.3366 14.744H50.0326C50.2032 14.4027 50.3952 13.976 50.6086 13.464C50.8432 12.952 51.1526 12.3867 51.5366 11.768C51.8566 11.256 52.2619 10.8507 52.7526 10.552C53.2646 10.2533 53.8086 10.104 54.3846 10.104ZM55.0941 27C54.3047 27 53.7501 26.776 53.4301 26.328C53.1101 25.8587 52.9501 25.3253 52.9501 24.728C52.9501 24.408 52.9821 24.088 53.0461 23.768C53.1314 23.4267 53.2274 23.1173 53.3341 22.84L55.4781 17.368C55.5421 17.1973 55.5741 17.048 55.5741 16.92C55.5741 16.7067 55.5207 16.5253 55.4141 16.376C55.3074 16.2053 55.2327 16.088 55.1901 16.024L56.9501 15.96C57.2701 15.9387 57.4941 15.9813 57.6221 16.088C57.7714 16.1733 57.8461 16.28 57.8461 16.408C57.8461 16.536 57.7714 16.7707 57.6221 17.112C57.4087 17.624 57.1207 18.264 56.7581 19.032C56.3954 19.8 56.0327 20.5893 55.6701 21.4C55.3287 22.2107 55.0301 22.968 54.7741 23.672C54.5394 24.376 54.4221 24.92 54.4221 25.304C54.4221 25.5813 54.4861 25.816 54.6141 26.008C54.7634 26.2 55.0087 26.296 55.3501 26.296C55.7981 26.296 56.2354 26.1253 56.6621 25.784C57.1101 25.4213 57.5261 24.9627 57.9101 24.408C58.2941 23.8533 58.6461 23.256 58.9661 22.616C59.3074 21.976 59.5954 21.3787 59.8301 20.824C60.0861 20.824 60.2141 20.92 60.2141 21.112C60.0007 21.6453 59.7234 22.2533 59.3821 22.936C59.0407 23.6187 58.6461 24.2693 58.1981 24.888C57.7714 25.4853 57.2914 25.9867 56.7581 26.392C56.2461 26.7973 55.6914 27 55.0941 27ZM57.9421 13.976C57.6647 13.976 57.4194 13.8693 57.2061 13.656C57.0141 13.4427 56.9181 13.1867 56.9181 12.888C56.9181 12.5253 57.0674 12.2053 57.3661 11.928C57.6647 11.6293 57.9954 11.48 58.3581 11.48C58.6567 11.48 58.9127 11.576 59.1261 11.768C59.3394 11.96 59.4461 12.2053 59.4461 12.504C59.4461 12.888 59.2967 13.2293 58.9981 13.528C58.6994 13.8267 58.3474 13.976 57.9421 13.976ZM56.7191 27.16C57.5084 25.6453 58.2551 24.1307 58.9591 22.616C59.6631 21.08 60.3777 19.6293 61.1031 18.264C61.5297 17.496 61.8817 16.9627 62.1591 16.664C62.4577 16.344 62.8524 16.184 63.3431 16.184C63.5137 16.184 63.6951 16.216 63.8871 16.28C64.0791 16.3227 64.2711 16.344 64.4631 16.344C64.5911 16.344 64.6871 16.3333 64.7511 16.312C64.4524 16.4827 64.0684 16.9093 63.5991 17.592C63.1297 18.2533 62.6497 19.0213 62.1591 19.896C61.6684 20.7707 61.2311 21.592 60.8471 22.36C61.2524 21.8693 61.6684 21.3787 62.0951 20.888C62.5431 20.3973 63.0337 19.928 63.5671 19.48C64.0364 19.0747 64.5271 18.6373 65.0391 18.168C65.5724 17.6773 66.0951 17.2613 66.6071 16.92C67.1191 16.5787 67.5671 16.408 67.9511 16.408C68.1004 16.408 68.1964 16.4187 68.2391 16.44C68.6444 16.6107 68.8471 16.888 68.8471 17.272C68.8471 17.4 68.7937 17.592 68.6871 17.848C68.4097 18.5733 68.0471 19.32 67.5991 20.088C67.1724 20.8347 66.7671 21.592 66.3831 22.36C66.7031 21.976 67.0977 21.5067 67.5671 20.952C68.0577 20.3973 68.5484 19.9067 69.0391 19.48C69.5084 19.0533 70.1057 18.6053 70.8311 18.136C71.5564 17.6667 72.2711 17.2613 72.9751 16.92C73.6791 16.5787 74.2444 16.408 74.6711 16.408C74.8204 16.408 74.9271 16.4187 74.9911 16.44C74.9911 16.44 74.8737 16.6533 74.6391 17.08C74.4044 17.4853 74.1057 18.0293 73.7431 18.712C73.4017 19.3733 73.0497 20.088 72.6871 20.856C72.3244 21.6027 71.9937 22.328 71.6951 23.032C71.4177 23.7147 71.2364 24.2907 71.1511 24.76C71.0871 25.0373 71.0551 25.2933 71.0551 25.528C71.0551 25.8693 71.1191 26.0933 71.2471 26.2C71.3751 26.3067 71.5137 26.36 71.6631 26.36C72.0897 26.36 72.5057 26.1787 72.9111 25.816C73.3377 25.4533 73.7537 24.9947 74.1591 24.44C74.5644 23.864 74.9271 23.256 75.2471 22.616C75.5884 21.976 75.8764 21.3787 76.1111 20.824C76.3671 20.824 76.4951 20.92 76.4951 21.112C76.2604 21.688 75.9617 22.328 75.5991 23.032C75.2577 23.7147 74.8631 24.3653 74.4151 24.984C73.9671 25.6027 73.4764 26.1147 72.9431 26.52C72.4097 26.9253 71.8337 27.128 71.2151 27.128C70.7671 27.128 70.3404 26.9787 69.9351 26.68C69.5511 26.3813 69.3591 25.8267 69.3591 25.016C69.3591 24.1413 69.5617 23.2667 69.9671 22.392C70.3937 21.5173 70.8311 20.7173 71.2791 19.992C71.4924 19.6293 71.5991 19.3413 71.5991 19.128C71.5991 18.872 71.4711 18.744 71.2151 18.744C71.0017 18.744 70.7031 18.8507 70.3191 19.064C69.9564 19.2773 69.4977 19.6507 68.9431 20.184C68.6017 20.504 68.1964 20.952 67.7271 21.528C67.2791 22.0827 66.8204 22.6907 66.3511 23.352C65.8817 24.0133 65.4764 24.664 65.1351 25.304C64.7937 25.944 64.5697 26.5093 64.4631 27C64.1431 27 63.8871 26.872 63.6951 26.616C63.5031 26.3387 63.4071 26.0187 63.4071 25.656C63.4071 25.592 63.4071 25.528 63.4071 25.464C63.4071 25.4 63.4177 25.3253 63.4391 25.24C63.5457 24.5787 63.7164 24.024 63.9511 23.576C64.1857 23.1067 64.4524 22.5627 64.7511 21.944C64.9004 21.6667 65.0711 21.3467 65.2631 20.984C65.4551 20.6 65.6257 20.2373 65.7751 19.896C65.9244 19.5333 65.9991 19.2347 65.9991 19C65.9991 18.7867 65.9137 18.68 65.7431 18.68C65.5511 18.68 65.2951 18.776 64.9751 18.968C64.6764 19.16 64.3884 19.384 64.1111 19.64C63.8337 19.8747 63.6204 20.056 63.4711 20.184C62.9377 20.696 62.2871 21.432 61.5191 22.392C60.7724 23.352 59.9511 24.7173 59.0551 26.488C58.9271 26.7227 58.7777 26.872 58.6071 26.936C58.4364 26.9787 58.1697 27 57.8071 27C57.5724 27 57.3804 27 57.2311 27C57.0604 27.0213 56.8897 27.0747 56.7191 27.16ZM78.0243 27C77.1496 27 76.499 26.6907 76.0723 26.072C75.667 25.432 75.4643 24.664 75.4643 23.768C75.4643 22.936 75.6243 22.072 75.9443 21.176C76.2856 20.1947 76.755 19.2987 77.3523 18.488C77.971 17.6773 78.643 17.0267 79.3683 16.536C80.115 16.024 80.851 15.768 81.5763 15.768C82.451 15.768 83.091 16.0667 83.4963 16.664C83.923 17.2613 84.1363 18.0187 84.1363 18.936C84.1363 19.576 84.0296 20.248 83.8163 20.952C83.603 21.656 83.315 22.3493 82.9523 23.032C83.2296 23.3093 83.6243 23.448 84.1363 23.448C84.7336 23.448 85.2456 23.256 85.6723 22.872C86.099 22.488 86.515 21.8053 86.9203 20.824C87.1763 20.824 87.3043 20.92 87.3043 21.112C86.899 22.0933 86.4296 22.8187 85.8963 23.288C85.3843 23.736 84.723 23.9493 83.9123 23.928C83.4216 23.928 83.0163 23.7893 82.6963 23.512C82.099 24.4933 81.3843 25.3253 80.5523 26.008C79.7416 26.6693 78.899 27 78.0243 27ZM78.4723 26.296C78.963 26.296 79.4536 26.0933 79.9443 25.688C80.435 25.2613 80.883 24.7813 81.2883 24.248C81.6936 23.7147 81.9816 23.256 82.1523 22.872C81.811 22.2533 81.6083 21.7947 81.5443 21.496C81.5016 21.176 81.4803 20.9413 81.4803 20.792C81.4803 20.3867 81.587 20.0773 81.8003 19.864C82.0136 19.6507 82.227 19.544 82.4403 19.544C82.739 19.544 82.995 19.672 83.2083 19.928C83.251 19.6933 83.283 19.48 83.3043 19.288C83.3256 19.0747 83.3363 18.872 83.3363 18.68C83.3363 18.1253 83.2296 17.6773 83.0163 17.336C82.8243 16.9733 82.515 16.792 82.0883 16.792C81.6403 16.792 81.171 16.984 80.6803 17.368C80.1896 17.752 79.7203 18.264 79.2723 18.904C78.8456 19.544 78.4723 20.2587 78.1523 21.048C77.875 21.7093 77.6616 22.3387 77.5123 22.936C77.363 23.512 77.2883 24.0453 77.2883 24.536C77.2883 25.0693 77.3843 25.496 77.5763 25.816C77.7683 26.136 78.067 26.296 78.4723 26.296ZM83.8448 27.256C84.6128 25.6987 85.3488 24.1627 86.0528 22.648C86.7568 21.112 87.4821 19.6507 88.2288 18.264C88.6555 17.496 89.0181 16.9627 89.3168 16.664C89.6155 16.344 90.0101 16.184 90.5008 16.184C90.6715 16.184 90.8528 16.216 91.0448 16.28C91.2368 16.3227 91.4288 16.344 91.6208 16.344C91.7488 16.344 91.8448 16.3333 91.9088 16.312C91.6101 16.4827 91.2155 16.9093 90.7248 17.592C90.2555 18.2533 89.7755 19.0213 89.2848 19.896C88.7941 20.7707 88.3568 21.592 87.9728 22.36C88.3781 21.8693 88.8048 21.3787 89.2528 20.888C89.7008 20.3973 90.1915 19.928 90.7248 19.48C91.2368 19.032 91.8448 18.5733 92.5488 18.104C93.2741 17.6133 93.9781 17.208 94.6608 16.888C95.3435 16.568 95.8875 16.408 96.2928 16.408C96.4421 16.408 96.5488 16.4187 96.6128 16.44C96.6128 16.44 96.4955 16.6533 96.2608 17.08C96.0261 17.4853 95.7275 18.0293 95.3648 18.712C95.0235 19.3733 94.6715 20.088 94.3088 20.856C93.9461 21.6027 93.6155 22.328 93.3168 23.032C93.0395 23.7147 92.8581 24.2907 92.7728 24.76C92.7088 25.0373 92.6768 25.2933 92.6768 25.528C92.6768 25.8693 92.7408 26.0933 92.8688 26.2C92.9968 26.3067 93.1355 26.36 93.2848 26.36C93.6901 26.36 94.1061 26.1787 94.5328 25.816C94.9595 25.4533 95.3648 24.9947 95.7488 24.44C96.1541 23.864 96.5275 23.256 96.8688 22.616C97.2101 21.976 97.4981 21.3787 97.7328 20.824C97.9888 20.824 98.1168 20.92 98.1168 21.112C97.8821 21.688 97.5835 22.328 97.2208 23.032C96.8795 23.7147 96.4848 24.3653 96.0368 24.984C95.6101 25.6027 95.1301 26.1147 94.5968 26.52C94.0635 26.9253 93.4875 27.128 92.8688 27.128C92.4421 27.128 91.9941 26.9787 91.5248 26.68C91.0768 26.3813 90.8528 25.8267 90.8528 25.016C90.8528 24.7813 90.8741 24.536 90.9168 24.28C90.9595 24.0027 91.0341 23.704 91.1408 23.384C91.3115 22.9573 91.5141 22.4987 91.7488 22.008C91.9835 21.5173 92.3675 20.8453 92.9008 19.992C93.0501 19.7573 93.1355 19.576 93.1568 19.448C93.1995 19.32 93.2208 19.2133 93.2208 19.128C93.2208 18.872 93.1035 18.744 92.8688 18.744C92.6768 18.744 92.3888 18.8507 92.0048 19.064C91.6421 19.2773 91.1835 19.6507 90.6288 20.184C90.0955 20.696 89.4555 21.4213 88.7088 22.36C87.9835 23.2987 87.1408 24.6853 86.1808 26.52C86.0315 26.7973 85.8608 26.9467 85.6688 26.968C85.4981 26.9893 85.2528 27.0107 84.9328 27.032C84.7195 27.0533 84.5168 27.064 84.3248 27.064C84.1328 27.0853 83.9728 27.1493 83.8448 27.256ZM98.6253 27C97.836 27 97.2813 26.776 96.9613 26.328C96.6413 25.8587 96.4813 25.3253 96.4813 24.728C96.4813 24.408 96.5133 24.088 96.5773 23.768C96.6626 23.4267 96.7586 23.1173 96.8653 22.84L99.0093 17.368C99.0733 17.1973 99.1053 17.048 99.1053 16.92C99.1053 16.7067 99.052 16.5253 98.9453 16.376C98.8386 16.2053 98.764 16.088 98.7213 16.024L100.481 15.96C100.801 15.9387 101.025 15.9813 101.153 16.088C101.303 16.1733 101.377 16.28 101.377 16.408C101.377 16.536 101.303 16.7707 101.153 17.112C100.94 17.624 100.652 18.264 100.289 19.032C99.9266 19.8 99.564 20.5893 99.2013 21.4C98.86 22.2107 98.5613 22.968 98.3053 23.672C98.0706 24.376 97.9533 24.92 97.9533 25.304C97.9533 25.5813 98.0173 25.816 98.1453 26.008C98.2946 26.2 98.54 26.296 98.8813 26.296C99.3293 26.296 99.7666 26.1253 100.193 25.784C100.641 25.4213 101.057 24.9627 101.441 24.408C101.825 23.8533 102.177 23.256 102.497 22.616C102.839 21.976 103.127 21.3787 103.361 20.824C103.617 20.824 103.745 20.92 103.745 21.112C103.532 21.6453 103.255 22.2533 102.913 22.936C102.572 23.6187 102.177 24.2693 101.729 24.888C101.303 25.4853 100.823 25.9867 100.289 26.392C99.7773 26.7973 99.2226 27 98.6253 27ZM101.473 13.976C101.196 13.976 100.951 13.8693 100.737 13.656C100.545 13.4427 100.449 13.1867 100.449 12.888C100.449 12.5253 100.599 12.2053 100.897 11.928C101.196 11.6293 101.527 11.48 101.889 11.48C102.188 11.48 102.444 11.576 102.657 11.768C102.871 11.96 102.977 12.2053 102.977 12.504C102.977 12.888 102.828 13.2293 102.529 13.528C102.231 13.8267 101.879 13.976 101.473 13.976ZM110.298 27.096C109.808 27.096 109.37 26.9573 108.986 26.68C108.624 26.4027 108.442 25.8373 108.442 24.984C108.442 24.6213 108.464 24.28 108.506 23.96C108.57 23.64 108.645 23.2987 108.73 22.936C108.538 23.256 108.272 23.6507 107.93 24.12C107.589 24.5893 107.205 25.048 106.778 25.496C106.373 25.944 105.946 26.3173 105.498 26.616C105.072 26.9147 104.666 27.064 104.282 27.064C103.728 27.064 103.28 26.8187 102.938 26.328C102.597 25.816 102.426 25.1547 102.426 24.344C102.426 23.4693 102.629 22.5307 103.034 21.528C103.44 20.5253 103.994 19.5653 104.698 18.648C105.402 17.7307 106.213 16.984 107.13 16.408C108.048 15.832 109.008 15.544 110.01 15.544C110.501 15.544 110.97 15.6293 111.418 15.8C111.866 15.9493 112.261 16.2053 112.602 16.568C112.752 16.7173 112.826 16.888 112.826 17.08C112.826 17.208 112.773 17.3147 112.666 17.4C112.56 17.4853 112.421 17.5067 112.25 17.464C112.016 16.7173 111.514 16.344 110.746 16.344C110.384 16.344 109.968 16.4613 109.498 16.696C108.922 16.9947 108.304 17.4747 107.642 18.136C107.002 18.776 106.394 19.512 105.818 20.344C105.264 21.1547 104.805 21.976 104.442 22.808C104.08 23.64 103.898 24.3973 103.898 25.08C103.898 25.784 104.165 26.136 104.698 26.136C105.168 26.136 105.648 25.912 106.138 25.464C106.65 25.016 107.13 24.4613 107.578 23.8C108.048 23.1173 108.474 22.4453 108.858 21.784C109.242 21.1227 109.541 20.5893 109.754 20.184C110.074 19.608 110.373 19.128 110.65 18.744C110.928 18.36 111.322 18.168 111.834 18.168C112.069 18.168 112.304 18.2 112.538 18.264C112.773 18.328 113.018 18.3387 113.274 18.296C112.634 18.936 112.069 19.6933 111.578 20.568C111.109 21.4427 110.746 22.3067 110.49 23.16C110.234 23.992 110.106 24.696 110.106 25.272C110.106 25.912 110.32 26.232 110.746 26.232C111.088 26.232 111.45 26.04 111.834 25.656C112.24 25.272 112.624 24.792 112.986 24.216C113.37 23.6187 113.722 23.0213 114.042 22.424C114.362 21.8053 114.618 21.272 114.81 20.824C114.917 20.824 115.002 20.8347 115.066 20.856C115.152 20.8773 115.194 20.9627 115.194 21.112C115.173 21.1973 115.13 21.2933 115.066 21.4C115.024 21.4853 114.949 21.6453 114.842 21.88C114.672 22.2213 114.437 22.68 114.138 23.256C113.84 23.832 113.488 24.4187 113.082 25.016C112.677 25.592 112.24 26.0827 111.77 26.488C111.301 26.8933 110.81 27.096 110.298 27.096ZM116.327 27.096C115.538 27.096 114.951 26.8613 114.567 26.392C114.204 25.9013 114.023 25.3253 114.023 24.664C114.023 23.9813 114.119 23.2773 114.311 22.552C114.503 21.8267 114.674 21.2187 114.823 20.728C115.164 19.5333 115.591 18.264 116.103 16.92C116.636 15.5547 117.212 14.2213 117.831 12.92C118.471 11.5973 119.1 10.4133 119.719 9.368C120.21 8.536 120.732 7.91733 121.287 7.512C121.863 7.08533 122.364 6.872 122.791 6.872C123.132 6.872 123.399 7 123.591 7.256C123.804 7.49067 123.911 7.85333 123.911 8.344C123.911 8.68533 123.847 9.09067 123.719 9.56C123.612 10.0293 123.42 10.5627 123.143 11.16C122.396 12.824 121.5 14.488 120.455 16.152C119.431 17.816 118.13 19.3733 116.551 20.824C116.295 21.4213 116.082 22.0613 115.911 22.744C115.74 23.4267 115.655 23.9813 115.655 24.408C115.655 25.7307 116.103 26.392 116.999 26.392C117.682 26.392 118.439 25.9013 119.271 24.92C120.103 23.9173 120.892 22.552 121.639 20.824C121.724 20.824 121.81 20.8453 121.895 20.888C121.98 20.9093 122.023 20.984 122.023 21.112C121.788 21.688 121.49 22.328 121.127 23.032C120.786 23.7147 120.38 24.3653 119.911 24.984C119.463 25.6027 118.94 26.1147 118.343 26.52C117.746 26.904 117.074 27.096 116.327 27.096ZM116.807 19.8C117.575 19.0107 118.322 18.104 119.047 17.08C119.772 16.0347 120.444 14.9573 121.063 13.848C121.703 12.7173 122.236 11.6507 122.663 10.648C122.812 10.328 122.93 9.976 123.015 9.592C123.122 9.208 123.175 8.888 123.175 8.632C123.175 8.33333 123.1 8.184 122.951 8.184C122.866 8.184 122.738 8.26933 122.567 8.44C122.396 8.58933 122.172 8.856 121.895 9.24C121.49 9.77333 121.042 10.4987 120.551 11.416C120.082 12.3333 119.602 13.3147 119.111 14.36C118.62 15.4053 118.172 16.4187 117.767 17.4C117.362 18.36 117.042 19.16 116.807 19.8ZM122.308 27.128C121.433 27.128 120.718 26.8613 120.164 26.328C119.63 25.7733 119.364 25.1973 119.364 24.6C119.364 24.1093 119.492 23.6613 119.748 23.256C119.982 22.8293 120.302 22.616 120.708 22.616L120.74 22.552C121.209 21.6987 121.657 20.8347 122.084 19.96C122.532 19.064 123.022 18.1147 123.556 17.112C124.004 16.28 124.484 15.5973 124.996 15.064C125.529 14.5307 126.148 14.264 126.852 14.264C127.022 14.264 127.257 14.3067 127.556 14.392C127.854 14.456 128.004 14.6053 128.004 14.84C128.004 15.0107 127.908 15.096 127.716 15.096C127.566 15.096 127.396 15.0533 127.204 14.968C127.033 14.8827 126.894 14.84 126.788 14.84C126.382 14.84 126.041 15.0747 125.764 15.544C125.486 16.0133 125.348 16.5147 125.348 17.048C125.348 17.624 125.444 18.1467 125.636 18.616C125.828 19.064 126.052 19.5013 126.308 19.928C126.564 20.3547 126.788 20.792 126.98 21.24C127.172 21.6667 127.268 22.136 127.268 22.648C127.268 23.672 127.065 24.504 126.66 25.144C126.276 25.7627 125.764 26.232 125.124 26.552H125.156C126.286 26.552 127.214 26.0293 127.94 24.984C128.686 23.9173 129.422 22.5307 130.148 20.824C130.404 20.824 130.532 20.92 130.532 21.112C130.126 22.072 129.678 23.0107 129.188 23.928C128.697 24.8453 128.121 25.6027 127.46 26.2C126.798 26.7973 125.988 27.096 125.028 27.096C124.622 27.096 124.249 27.0533 123.908 26.968C123.417 27.0747 122.884 27.128 122.308 27.128ZM121.828 23.736C121.828 24.248 121.945 24.7387 122.18 25.208C122.414 25.6773 122.841 26.0293 123.46 26.264C124.014 25.944 124.441 25.4533 124.74 24.792C125.06 24.1093 125.22 23.4053 125.22 22.68C125.22 22.0827 125.156 21.4747 125.028 20.856C124.9 20.2373 124.761 19.6293 124.612 19.032C124.484 18.4347 124.42 17.9013 124.42 17.432C124.42 17.2827 124.42 17.1547 124.42 17.048C124.441 16.92 124.462 16.8027 124.484 16.696C124.1 17.272 123.705 17.944 123.3 18.712C122.916 19.48 122.542 20.216 122.18 20.92C121.817 21.624 121.486 22.2 121.188 22.648C121.614 22.712 121.828 23.0747 121.828 23.736ZM120.772 25.336C120.772 25.6773 120.889 25.976 121.124 26.232C121.358 26.488 121.71 26.616 122.18 26.616C122.393 26.616 122.596 26.5947 122.788 26.552C122.34 26.2747 121.977 25.9227 121.7 25.496C121.444 25.0693 121.316 24.5787 121.316 24.024C121.124 24.2373 120.985 24.4613 120.9 24.696C120.814 24.9093 120.772 25.1227 120.772 25.336Z" fill="#FF9F0D"/>
</svg>
